<?xml version="1.0" standalone="no"?>
<!DOCTYPE svg PUBLIC "-//W3C//DTD SVG 1.1//EN" "http://www.w3.org/Graphics/SVG/1.1/DTD/svg11.dtd" >
<svg xmlns="http://www.w3.org/2000/svg">
<metadata></metadata>
<defs>
<font id="overlockblack_italic" horiz-adv-x="1175" >
<font-face units-per-em="2048" ascent="1638" descent="-410" />
<missing-glyph horiz-adv-x="389" />
<glyph horiz-adv-x="2048" />
<glyph horiz-adv-x="2048" />
<glyph unicode="&#xd;" horiz-adv-x="2048" />
<glyph unicode=" "  horiz-adv-x="389" />
<glyph unicode="&#x09;" horiz-adv-x="389" />
<glyph unicode="&#xa0;" horiz-adv-x="389" />
<glyph unicode="!" horiz-adv-x="606" d="M92 133q0 80 60 145.5t143 65.5q64 0 107.5 -46t43.5 -114q0 -77 -61 -140.5t-141 -63.5q-65 0 -108.5 42.5t-43.5 110.5zM172 575q0 13 20 147t40 307.5t20 281.5q0 63 -4 88q90 22 164 22q163 0 163 -121q0 -50 -29.5 -172.5t-59 -276t-29.5 -280.5q0 -45 4 -63 q-73 -39 -146 -39q-63 0 -103 27t-40 79z" />
<glyph unicode="&#x22;" horiz-adv-x="872" d="M156 948q26 91 30.5 256.5t8.5 192.5q7 56 42 84t123 28q123 0 123 -92q0 -37 -28.5 -156t-61.5 -229q-33 -100 -141 -100q-53 0 -96 16zM590 948q26 91 30.5 256.5t8.5 192.5q7 56 42.5 84t123.5 28q123 0 123 -92q0 -37 -29 -155t-62 -230q-33 -100 -141 -100 q-53 0 -96 16z" />
<glyph unicode="#" d="M-18 399q0 79 45 115.5t145 36.5q14 0 58 -1t75 -1l62 246q-93 -4 -151 -14.5t-130 -35.5q-4 36 -4 52q0 79 45 115t145 36q14 0 58 -1t76 -1q65 256 86 359q39 8 73 8t57 -17.5t23 -54.5q0 -19 -9 -50.5t-35 -111t-44 -137.5h207q71 278 88 363q39 8 74 8q34 0 57 -17.5 t23 -54.5q0 -19 -8.5 -49t-34 -108t-43.5 -136q63 2 101 4.5t86 8t87 8.5q-2 -42 -8 -72.5t-21.5 -60t-46 -45t-76.5 -15.5q-13 0 -75 6t-95 6q-29 -83 -71 -239q63 2 100 4.5t87.5 7.5t86.5 8q-2 -42 -8 -72t-21 -59.5t-45.5 -45t-76.5 -15.5q-13 0 -73 7t-93 7 q-6 -27 -22.5 -100t-22 -99t-11.5 -69t-6 -74q-42 -22 -90 -22q-38 0 -54.5 15.5t-16.5 49.5q0 15 4 36t12.5 53t17 59t23 76t24.5 81q-76 2 -135 2h-80q-6 -28 -18.5 -83.5t-18 -81.5t-13 -64.5t-10.5 -67t-3 -53.5q-42 -22 -90 -22q-38 0 -55 15.5t-17 49.5q0 15 4 36 t13 53.5t17 58.5t24.5 76.5t25.5 80.5q-93 -4 -147 -14t-127 -35q-4 36 -4 51zM440 545q152 0 224 4q11 35 63 246q-61 4 -141 4h-74q-47 -150 -72 -254z" />
<glyph unicode="$" d="M72 188q0 55 39.5 88t115.5 62q16 -61 76.5 -106.5t149.5 -49.5l6 37q12 85 22 170t21 164q-41 14 -62 21.5t-59 25t-59.5 34t-49.5 44t-43 59t-25.5 76t-10.5 96.5q0 177 111 302t308 155q1 7 13 137q38 10 51 10q72 0 72 -59l-2 -8q-1 -9 -3.5 -29t-5.5 -43 q74 -3 143 -26t119 -70.5t50 -108.5q0 -113 -166 -141q-17 51 -62 90t-112 47l-52 -352q132 -42 187 -75q139 -84 139 -249q0 -202 -114 -337t-324 -162q-10 -85 -10 -146q-9 -3 -20.5 -4.5t-18.5 -1.5h-7q-73 0 -73 62q0 8 10 82q-144 3 -249 63.5t-105 142.5zM477 967 q0 -66 68 -107l39 283q-47 -25 -77 -71t-30 -105zM575 217q105 68 105 191q0 59 -66 98z" />
<glyph unicode="%" horiz-adv-x="1748" d="M129 963q0 169 104.5 284t274.5 115q135 0 212 -75t77 -206q0 -169 -104 -284t-273 -115q-136 0 -213.5 75.5t-77.5 205.5zM340 25q0 31 31 73q796 1096 954 1336q109 -22 109 -84q0 -34 -31 -76q-796 -1104 -954 -1340q-109 33 -109 91zM358 985q0 -65 20 -108t60 -43 q43 0 73 38.5t42 87.5t12 99q0 66 -18.5 109.5t-57.5 43.5q-35 0 -62 -23t-41 -59t-21 -73t-7 -72zM952 260q0 169 104.5 284t274.5 115q135 0 212 -74.5t77 -205.5q0 -169 -104 -284t-273 -115q-136 0 -213.5 75t-77.5 205zM1182 283q0 -65 20 -108.5t60 -43.5 q43 0 73 38.5t42 87.5t12 99q0 66 -18.5 110t-57.5 44q-35 0 -62 -23t-41 -59t-21 -73t-7 -72z" />
<glyph unicode="&#x26;" horiz-adv-x="1550" d="M72 367q0 81 27 153t93 139t166 109q-79 39 -111 99t-32 141q0 98 64 183.5t179.5 138t254.5 52.5q43 0 94 -11.5t102 -33.5t85 -61.5t34 -89.5q0 -48 -45.5 -83.5t-142.5 -43.5q-21 60 -62 90.5t-90 30.5q-70 0 -117 -43t-47 -115q0 -52 38.5 -89.5t133.5 -37.5 q21 0 33 2q10 -42 10 -74q0 -100 -94 -118q-112 -22 -169.5 -102.5t-57.5 -180.5q0 -99 62.5 -170.5t172.5 -71.5q138 0 220 99t114 342h-12q-81 0 -135 -46q-27 53 -27 109q0 59 34.5 95t92.5 36q49 0 165.5 -28.5t149.5 -28.5q43 0 65.5 18t22.5 47q0 33 -28 72 q27 29 73 46t93 17q67 0 101 -37t34 -96q0 -57 -34.5 -117.5t-103 -105.5t-151.5 -45q-39 0 -55 2q-45 -162 -114 -276.5t-159.5 -180.5t-194 -95.5t-231.5 -29.5q-116 0 -212.5 32.5t-158.5 87t-96 124.5t-34 146z" />
<glyph unicode="'" horiz-adv-x="438" d="M156 948q26 91 30.5 256.5t8.5 192.5q7 56 42 84t123 28q123 0 123 -92q0 -37 -28.5 -156t-61.5 -229q-33 -100 -141 -100q-53 0 -96 16z" />
<glyph unicode="(" horiz-adv-x="702" d="M152 365q0 160 43 332t109 310.5t140.5 251.5t143 175.5t110.5 62.5q37 0 70 -47q-171 -220 -264.5 -562.5t-93.5 -637.5q0 -189 29.5 -353.5t86.5 -265.5q-41 -47 -80 -47q-41 0 -92 65t-96 168.5t-75.5 251t-30.5 296.5z" />
<glyph unicode=")" horiz-adv-x="702" d="M-66 -369q117 151 200 368t120 429t37 408q0 187 -30 349.5t-87 264.5q41 47 80 47q41 0 92 -64.5t96 -168t76 -251.5t31 -296q0 -137 -31.5 -282.5t-81.5 -267t-111.5 -232t-122.5 -186.5t-114 -120.5t-86 -44.5q-40 0 -68 47z" />
<glyph unicode="*" horiz-adv-x="950" d="M182 1214q16 62 56 104t94 42q34 0 75 -23t70 -59q0 20 2 68.5t2 76.5q0 26 -4 80q70 19 103 19q50 0 82 -20t32 -62q0 -50 -43 -168q164 108 191 133q71 -61 71 -127q0 -95 -264 -156q100 -112 189 -186q-27 -40 -71 -69t-89 -29q-50 0 -84 46.5t-72 145.5 q-29 -43 -95.5 -133.5t-68.5 -93.5q-57 20 -95 53t-38 70q6 75 201 204q-129 50 -244 84z" />
<glyph unicode="+" d="M72 498q0 48 25.5 85.5t80.5 37.5q16 0 109 -9t219 -12q0 49 -6.5 182.5t-18.5 231.5q27 8 88 8q52 0 87.5 -29t35.5 -75q0 -48 -10 -147.5t-10 -172.5q47 0 186.5 6.5t239.5 16.5q8 -25 8 -86q0 -52 -29.5 -87.5t-77.5 -35.5t-152 10t-177 10q0 -63 0.5 -108.5t3 -87.5 t4.5 -63t7 -74t7 -81q-43 -8 -88 -8q-48 0 -85.5 27t-37.5 78q0 17 9 101.5t12 217.5q-91 -1 -152.5 -3.5t-147 -9.5t-122.5 -9q-8 43 -8 86z" />
<glyph unicode="," horiz-adv-x="507" d="M-33 -266q0 25 10 55h9q56 0 101.5 49t45.5 103q0 67 -74 84q-12 30 -12 63q0 76 57 133.5t142 57.5q75 0 113 -51t38 -132q0 -92 -44.5 -190.5t-127 -169t-176.5 -70.5q-82 0 -82 68z" />
<glyph unicode="-" horiz-adv-x="563" d="M51 453q0 88 40 142t130 54q12 0 66.5 -6t87.5 -6h14q83 0 156 31q8 -41 8 -72q0 -84 -43 -132t-125 -48q-19 0 -74 7t-88 7q-73 0 -168 -33q-4 36 -4 56z" />
<glyph unicode="." horiz-adv-x="522" d="M45 145q0 85 58 151t155 66q79 0 122.5 -51.5t43.5 -124.5q0 -82 -56 -144t-157 -62q-80 0 -123 48t-43 117z" />
<glyph unicode="/" horiz-adv-x="520" d="M-31 -182q0 26 231 816t244 875q12 4 27.5 7t24.5 4h10q94 0 94 -62q0 -42 -239.5 -851.5t-239.5 -846.5q-45 -10 -70 -10q-47 0 -64.5 18t-17.5 50z" />
<glyph unicode="0" d="M66 504q0 170 44 327.5t122 279t197 194.5t259 73q196 0 308 -139.5t112 -384.5q0 -134 -27 -262t-81 -238.5t-128.5 -194t-174.5 -131.5t-214 -48q-197 0 -307 140t-110 384zM393 580q0 -110 15 -197t51 -144t88 -57q65 0 119.5 88.5t84 225.5t29.5 286q0 78 -9 147 t-26.5 125t-48 89t-69.5 33q-46 0 -89 -47.5t-75 -127.5t-51 -190.5t-19 -230.5z" />
<glyph unicode="1" d="M170 53q0 146 127 146h129q6 51 33 228t43 292q37 269 53 440q-186 -20 -229 -29q-2 10 -2 35q0 159 125 181q290 32 342 32q37 0 64.5 -24t27.5 -78q0 -16 -15.5 -101t-40.5 -232t-43 -277l-16 -115q-32 -231 -37 -361q121 0 197 9q4 -24 4 -49q0 -66 -21 -110t-67 -44 q-15 0 -79 1t-168 2t-216 1q-148 0 -207 -2q-4 40 -4 55z" />
<glyph unicode="2" d="M0 127q0 40 10 82q67 56 154.5 123.5t149 114.5t131 103t115.5 103t85.5 99.5t58.5 107.5t19 113q0 94 -46 148.5t-116 54.5q-129 0 -219 -170q-66 6 -115 49t-49 94q0 66 62.5 119t158.5 80.5t203 27.5q74 0 136.5 -11.5t118.5 -38t95.5 -68t62.5 -105.5t23 -145 q0 -75 -18.5 -146.5t-46.5 -129t-76 -117.5t-92 -104t-110.5 -97t-115 -88.5t-120.5 -86.5q-15 -11 -23 -16q52 -6 127 -6q261 0 406 59q26 -67 26 -120q0 -33 -10.5 -58t-26.5 -42t-47.5 -28.5t-59.5 -17.5t-78 -9.5t-87 -4t-102 -0.5q-112 0 -275 2t-221 2 q-47 0 -67.5 36.5t-20.5 90.5z" />
<glyph unicode="3" d="M47 135q0 77 131 123q23 -33 74.5 -54.5t118.5 -21.5q122 0 195 76.5t73 173.5q0 82 -67.5 139.5t-184.5 57.5q-82 0 -82 100q0 37 10 82q164 0 258.5 68t94.5 161q0 57 -34.5 96.5t-94.5 39.5q-49 0 -98 -35.5t-83 -102.5q-73 0 -114 33.5t-41 83.5q0 48 63 100 t166.5 87.5t208.5 35.5q171 0 262.5 -77.5t91.5 -192.5q0 -242 -280 -363q119 -42 177 -120.5t58 -175.5q0 -139 -85 -248t-220 -165t-291 -56q-152 0 -229.5 47t-77.5 108z" />
<glyph unicode="4" d="M49 494q0 51 17 108q95 141 309 395.5t309 339.5q48 43 221 43q75 0 119 -6q-3 -19 -34 -189.5t-50 -297.5t-37 -281q144 11 191 33q14 -46 14 -96q0 -95 -55 -125q-45 -23 -174 -29q-3 -26 -8 -73t-7.5 -74.5t-5 -64.5t-2.5 -66q0 -62 8 -109q-71 -22 -164 -22 q-91 0 -126 27.5t-35 90.5q0 18 6.5 63.5t19 118t17.5 107.5q-365 0 -482 8q-51 3 -51 99zM375 598q55 -6 114 -6q74 0 123 8q15 120 36 260t22 150q-43 -51 -94 -122.5t-113.5 -163t-87.5 -126.5z" />
<glyph unicode="5" d="M74 123q0 37 24 75.5t62 63.5q66 -78 194 -78q59 0 115.5 20t103 57t75 96.5t28.5 131.5q0 99 -75 166.5t-210 67.5q-85 0 -149 -12q-13 17 -13 59q0 12 2.5 31.5t11 65.5t18.5 100t30 164.5t41 228.5q68 -4 465 -4q165 0 266 16q12 -47 12 -88q0 -151 -172 -151 q-136 0 -334 12l-45 -230q61 7 99 7q187 0 286 -94t99 -273q0 -114 -43.5 -218t-121 -183.5t-194.5 -126.5t-254 -47q-35 0 -67.5 1.5t-82 10t-84.5 22.5t-61 42.5t-26 66.5z" />
<glyph unicode="6" d="M106 406q0 131 35 268t104.5 262.5t163 224.5t220.5 158t266 59q115 0 115 -88q0 -52 -29 -102q-40 8 -96 8q-87 0 -161.5 -38t-128.5 -104.5t-91.5 -151.5t-57.5 -185q133 127 287 127q122 0 202.5 -87t80.5 -251q0 -94 -39.5 -187.5t-107.5 -169t-170.5 -122.5 t-217.5 -47q-104 0 -179 33.5t-116.5 94.5t-60.5 134t-19 164zM424 428q0 -46 5.5 -85.5t18.5 -77t39 -59.5t62 -22q60 0 99.5 84.5t39.5 188.5q0 87 -32 136.5t-85 49.5q-26 0 -63 -24t-76 -72q-8 -54 -8 -119z" />
<glyph unicode="7" d="M92 98q115 110 264.5 318t265.5 400t179 323q-300 -11 -504 -11q-123 0 -123 119q0 60 27 125q112 -16 256 -16q556 0 673 4q11 -46 11 -70q0 -64 -45 -166q-79 -173 -619 -1001q-93 -143 -194 -143q-93 0 -191 118z" />
<glyph unicode="8" d="M78 297q0 85 26.5 159.5t72.5 129.5t100 96t118 70q-81 49 -125.5 114t-44.5 162q0 102 62 182.5t166.5 124t230.5 43.5q157 0 264 -69.5t107 -184.5q0 -242 -258 -372q102 -58 158.5 -135t56.5 -199q0 -84 -33 -161t-96 -139.5t-165.5 -100t-230.5 -37.5q-103 0 -183 26 t-128.5 70.5t-73 100.5t-24.5 120zM399 358q0 -73 36.5 -124.5t99.5 -51.5q68 0 112.5 73t44.5 165q0 80 -35 129.5t-110 99.5q-148 -108 -148 -291zM539 1034q0 -59 26 -101t80 -77q96 85 96 213q0 47 -29 77t-71 30q-39 0 -70.5 -41t-31.5 -101z" />
<glyph unicode="9" d="M152 854q0 94 38.5 187.5t106 169t169.5 122.5t218 47q105 0 180.5 -33t118 -93t61.5 -133t19 -163q0 -125 -35 -260t-104.5 -262.5t-162.5 -229.5t-220.5 -164t-266.5 -62q-58 0 -81 22t-23 66q0 22 12 104q40 -6 76 -6q90 0 169 40t135.5 108t95.5 151.5t59 177.5 q-140 -125 -285 -125q-121 0 -200.5 91t-79.5 245zM481 903q0 -88 32 -138t87 -50q26 0 64.5 24.5t76.5 73.5q7 72 7 123q0 244 -123 244q-63 0 -103.5 -85.5t-40.5 -191.5z" />
<glyph unicode=":" horiz-adv-x="550" d="M45 145q0 85 58 151t155 66q79 0 122.5 -51.5t43.5 -124.5q0 -82 -56 -144t-157 -62q-80 0 -123 48t-43 117zM123 776q0 85 58 151t155 66q79 0 122.5 -51.5t43.5 -124.5q0 -82 -56 -144.5t-157 -62.5q-80 0 -123 48t-43 118z" />
<glyph unicode=";" horiz-adv-x="610" d="M-33 -266q0 25 10 55h9q56 0 101.5 49t45.5 103q0 67 -74 84q-12 30 -12 63q0 76 57 133.5t142 57.5q75 0 113 -51t38 -132q0 -92 -44.5 -190.5t-127 -169t-176.5 -70.5q-82 0 -82 68zM154 776q0 85 58 151t155 66q79 0 122 -51.5t43 -124.5q0 -82 -56 -144.5t-157 -62.5 q-80 0 -122.5 48t-42.5 118z" />
<glyph unicode="&#x3c;" d="M182 520l465 443q40 32 74 32q43 0 83.5 -30.5t59.5 -69.5q-50 -45 -160.5 -134t-199.5 -160.5t-98 -80.5q39 -39 121.5 -112.5t191.5 -169t141 -123.5q-22 -42 -62.5 -71.5t-80.5 -29.5q-38 0 -74 33z" />
<glyph unicode="=" d="M152 301q0 48 25.5 85.5t78.5 37.5q8 0 139 -10.5t228 -10.5q271 0 419 21q11 -46 11 -86q0 -52 -29.5 -87.5t-75.5 -35.5q-36 0 -160 11.5t-186 11.5q-221 0 -442 -23q-8 43 -8 86zM152 702q0 48 25.5 85.5t78.5 37.5q8 0 139 -10t228 -10q278 0 419 20q11 -46 11 -86 q0 -52 -29.5 -87.5t-75.5 -35.5q-36 0 -160 11.5t-186 11.5q-221 0 -442 -23q-8 43 -8 86z" />
<glyph unicode="&#x3e;" d="M242 115q31 27 227.5 190.5t251.5 214.5q-7 8 -82.5 80t-167 161t-133.5 134q24 39 65.5 69.5t81.5 30.5q34 0 66 -32l379 -443l-496 -473q-36 -33 -74 -33q-37 0 -70.5 29.5t-47.5 71.5z" />
<glyph unicode="?" horiz-adv-x="833" d="M111 1210q0 65 56 114.5t140.5 74t179.5 24.5q60 0 118 -12t113 -38.5t88.5 -76t33.5 -116.5q0 -64 -19 -120t-49.5 -98t-67.5 -80t-74 -73t-67.5 -70t-49.5 -78.5t-19 -91.5q0 -27 6 -57q-87 -43 -150 -43q-79 0 -115 30.5t-36 78.5q0 46 19 91t49 83.5t66.5 77l73 77 t66.5 77t49 83.5t19 90q0 41 -25.5 64.5t-71.5 23.5q-49 0 -98 -42t-70 -111q-165 20 -165 118zM131 133q0 80 60 145.5t143 65.5q64 0 107.5 -46t43.5 -114q0 -77 -61 -140.5t-141 -63.5q-65 0 -108.5 42.5t-43.5 110.5z" />
<glyph unicode="@" horiz-adv-x="1734" d="M164 279q0 168 74 336t196.5 298.5t294 212.5t354.5 82q245 0 384 -123t139 -321q0 -82 -23 -168.5t-68.5 -167.5t-107 -145.5t-146 -103t-178.5 -38.5q-69 0 -113.5 39.5t-54.5 118.5q-117 -188 -253 -188q-77 0 -122.5 56t-45.5 163q0 76 20.5 156.5t61 155.5 t95.5 134.5t130 95t157 35.5q193 0 318 -94q-48 -128 -91.5 -280t-43.5 -226q0 -67 37 -67q28 0 62.5 42.5t65 108.5t51.5 156.5t21 177.5q0 157 -84.5 242.5t-259.5 85.5q-105 0 -208 -44.5t-184.5 -121.5t-144.5 -173.5t-97.5 -206t-34.5 -214.5q0 -96 32.5 -166.5 t88 -109.5t119.5 -57.5t136 -18.5q109 0 198 34.5t114 85.5q106 -42 106 -106q0 -55 -53.5 -98.5t-141.5 -66.5t-192 -23q-87 0 -170.5 17t-163.5 56.5t-140.5 97t-97 145.5t-36.5 196zM741 403q0 -44 14 -71t40 -27q28 0 60.5 29t62.5 84q15 48 45.5 163t31.5 117 q-39 27 -82 27q-41 0 -75 -36t-54.5 -88t-31.5 -105t-11 -93z" />
<glyph unicode="A" horiz-adv-x="1214" d="M-20 102q0 30 26.5 87t106.5 213t153 313q239 509 281 657q102 12 168 12q170 0 194 -133q89 -479 129 -651q91 -394 144 -571q-125 -49 -219 -49q-115 0 -134 81q-27 107 -63 330q-83 -6 -172 -6q-86 0 -174 6q-149 -355 -170 -418q-46 1 -88 6.5t-86 18.5t-70 39.5 t-26 64.5zM498 588q66 -4 135 -4q77 0 106 4q-33 261 -53 536q-72 -238 -188 -536z" />
<glyph unicode="B" horiz-adv-x="1159" d="M94 115q58 223 115 678q49 373 49 559q162 26 358 26q494 0 494 -299q0 -129 -67 -219t-171 -119q99 -51 152 -115.5t53 -160.5q0 -146 -74 -258.5t-192 -169.5t-258 -57q-315 0 -459 135zM432 227q20 -17 60.5 -29t80.5 -12q79 0 136 67.5t57 178.5q0 205 -188 205 q-34 0 -74 -6q-35 -239 -72 -404zM530 823q36 -4 60 -4q211 0 211 203q0 72 -43 110.5t-111 38.5q-39 0 -80 -12q-18 -187 -37 -336z" />
<glyph unicode="C" horiz-adv-x="1163" d="M90 541q0 172 47 315.5t123 238t174.5 160t200 94.5t201.5 29q154 0 256 -65t102 -176q0 -60 -53.5 -98.5t-139.5 -47.5q-19 91 -75 135.5t-127 44.5q-109 0 -194 -85t-128 -216.5t-43 -281.5q0 -116 27 -204t90 -143t156 -55q65 0 124.5 43t102.5 119q65 -24 108 -60 t43 -79q0 -87 -133 -158t-315 -71q-253 0 -400 152t-147 409z" />
<glyph unicode="D" horiz-adv-x="1370" d="M94 109q60 269 108 624t54 621q39 7 153.5 15.5t200.5 8.5q125 0 229.5 -16.5t198 -56.5t158 -102t102 -157.5t37.5 -218.5q0 -130 -33 -253t-99.5 -231t-160 -189t-223 -127.5t-278.5 -46.5q-301 0 -447 129zM440 238q73 -52 189 -52q82 0 147.5 39.5t106 101t68 142.5 t38 158.5t10.5 154.5q0 193 -89 291t-255 98q-30 0 -84 -4q-42 -497 -131 -929z" />
<glyph unicode="E" horiz-adv-x="1067" d="M111 70q0 59 34.5 304t68.5 517.5t34 400.5q0 37 -2 51q255 19 483 19q313 0 352 -39q17 -17 17 -57q0 -36 -12 -83t-27 -77q-94 43 -326 43q-66 0 -168 -6q-4 -76 -37 -312q264 0 338 9q4 -40 4 -72q0 -134 -90 -143q-49 -4 -282 -4q-41 -330 -41 -414q58 -4 131 -4 q109 0 222.5 13.5t147.5 31.5q17 -83 17 -115q0 -98 -72 -118.5t-323 -20.5q-313 0 -379 4q-50 3 -70 19.5t-20 52.5z" />
<glyph unicode="F" horiz-adv-x="1017" d="M111 121q0 14 10 86t37 268t55 420q35 277 35 397q0 37 -2 51q255 19 493 19q314 0 353 -39q16 -16 16 -57q0 -36 -12 -83t-27 -77q-94 43 -326 43q-76 0 -178 -6q-4 -76 -37 -312q264 0 338 9q4 -40 4 -72q0 -134 -90 -143q-49 -4 -282 -4l-27 -213q-25 -183 -25 -271 q0 -63 9 -121q-68 -22 -187 -22q-85 0 -121 31t-36 96z" />
<glyph unicode="G" horiz-adv-x="1228" d="M90 541q0 186 57 343t157.5 265t241 168.5t304.5 60.5q148 0 246 -67.5t98 -171.5q0 -60 -53.5 -99.5t-139.5 -48.5q-19 90 -73.5 135t-124.5 45q-106 0 -191 -78.5t-131.5 -209t-46.5 -283.5q0 -183 58 -298.5t170 -115.5q89 0 149 66q19 232 27 352q78 19 149 19 q76 0 124 -24.5t48 -80.5q0 -11 -11.5 -61t-29 -134.5t-28.5 -162.5q-17 -77 -146.5 -128.5t-308.5 -51.5q-253 0 -399 152t-146 409z" />
<glyph unicode="H" horiz-adv-x="1368" d="M111 121q0 14 10 86t37 268t55 420q39 327 45 457q63 12 164 12q168 0 168 -109q0 -10 -9 -60.5t-25.5 -151t-29.5 -205.5q80 -2 244 -2q119 0 180 2l8 57q41 341 46 457q63 12 163 12q168 0 168 -109q0 -10 -9.5 -65t-26.5 -164.5t-31 -222.5l-51 -395 q-25 -183 -25 -271q0 -69 8 -121q-68 -22 -186 -22q-85 0 -121.5 31t-36.5 96q0 12 6.5 60t25 181.5t36.5 270.5q-28 0 -86 -1t-88 -1q-82 0 -250 4l-29 -227q-25 -183 -25 -271q0 -63 9 -121q-68 -22 -187 -22q-85 0 -121 31t-36 96z" />
<glyph unicode="I" horiz-adv-x="622" d="M111 121q0 14 10 86t37 268t55 420q39 327 45 457q63 12 164 12q168 0 168 -109q0 -10 -9.5 -65t-27 -164t-31.5 -223l-51 -395q-25 -183 -25 -271q0 -63 9 -121q-68 -22 -187 -22q-85 0 -121 31t-36 96z" />
<glyph unicode="J" horiz-adv-x="774" d="M0 -92q0 39 2 59q66 5 112 22.5t75.5 44t49.5 75t30.5 97.5t21.5 130l76 567q27 191 43 449q70 12 163 12q76 0 122 -26t46 -83q0 -12 -9 -68.5t-26.5 -162.5t-29.5 -190l-84 -584q-32 -218 -166.5 -356t-304.5 -138q-121 0 -121 152z" />
<glyph unicode="K" horiz-adv-x="1181" d="M111 121q0 14 10 86t37 268t55 420q39 327 45 457q63 12 164 12q168 0 168 -109q0 -10 -9 -60t-25.5 -148.5t-29.5 -200.5q224 179 319.5 297.5t129.5 224.5q103 -17 151 -48t48 -79q0 -82 -85 -171t-341 -294q98 -212 272 -518q21 -38 45.5 -47.5t71.5 -9.5q18 0 39 6 q6 -35 6 -64q0 -163 -181 -163q-71 0 -117.5 24t-95.5 92q-62 85 -139 233t-125 281l-30 -20l-23 -182q-25 -183 -25 -271q0 -63 9 -121q-68 -22 -187 -22q-85 0 -121 31t-36 96z" />
<glyph unicode="L" horiz-adv-x="929" d="M111 113q0 87 108 817q26 207 39 422q59 12 158 12q174 0 174 -107q0 -12 -11 -72t-29 -162t-30 -187q-9 -68 -21 -150.5t-17.5 -123t-13 -92.5t-10.5 -76.5t-6.5 -56t-4.5 -50t-2 -39t-1 -41.5q29 -2 99 -2q107 0 218.5 13.5t145.5 31.5q23 -63 23 -121q0 -28 -9.5 -49 t-22.5 -35t-39.5 -23.5t-49 -14.5t-63.5 -7.5t-69 -3t-79 -0.5q-288 0 -381 6q-106 9 -106 111z" />
<glyph unicode="M" horiz-adv-x="1699" d="M111 113q0 18 7.5 70t22.5 144.5t23 145.5l74 516q20 147 20 260q0 55 -6 101q98 16 203 16q108 0 152 -41t73 -151q27 -102 52 -226t38 -203.5t38 -237.5t34 -216q177 535 391 956q64 125 246 125q83 0 188 -22q-47 -130 -90 -457l-68 -477q-28 -188 -28 -295 q0 -53 8 -105q-74 -22 -195 -22q-82 0 -115.5 33t-33.5 98q0 28 48.5 294t102.5 529q-105 -239 -205 -502t-149 -440q-68 -10 -121 -10q-76 0 -122.5 21t-59.5 77q-46 208 -150 854q-65 -644 -65 -827q0 -41 8 -111q-72 -16 -174 -16q-45 0 -76 11.5t-45.5 31t-20 37.5 t-5.5 39z" />
<glyph unicode="N" horiz-adv-x="1327" d="M111 117q0 18 9 79.5t23 152.5t21 149q15 125 39 303t33 266t10 166q0 64 -8 108q80 25 157 25q141 0 203 -100q21 -33 48 -90t61.5 -140t61.5 -149t70 -174.5t64 -159.5l35 326q39 347 47 473q64 12 137 12t122.5 -28t49.5 -93q0 -14 -12 -81t-29.5 -171.5t-27.5 -187.5 q-11 -87 -28.5 -222t-27.5 -213.5t-20 -178t-14 -179.5q-59 -16 -127 -16q-150 0 -189 92q-50 113 -152.5 394t-158.5 413q-82 -620 -82 -764q0 -41 8 -111q-68 -24 -155 -24q-94 0 -131 30t-37 93z" />
<glyph unicode="O" horiz-adv-x="1376" d="M90 539q0 175 52 329t144.5 266.5t228 178t294.5 65.5q250 0 391 -147.5t141 -407.5q0 -170 -51.5 -323.5t-144 -268.5t-230 -183t-299.5 -68q-247 0 -386.5 150.5t-139.5 408.5zM434 604q0 -85 13 -157.5t40.5 -132.5t75 -94t111.5 -34q99 0 174 84.5t111 214.5t36 281 q0 82 -13 152t-40.5 128t-75.5 91.5t-112 33.5q-95 0 -169 -78.5t-112.5 -207t-38.5 -281.5z" />
<glyph unicode="P" horiz-adv-x="1126" d="M111 121q0 13 10.5 86.5t37 266.5t54.5 421q37 326 37 459q161 24 336 24q84 0 156 -10.5t140.5 -37t117 -68.5t77.5 -109t29 -154q0 -128 -38.5 -234t-101 -171.5t-137.5 -101t-153 -35.5q-117 0 -191 65q-3 -28 -11.5 -90.5t-13.5 -103.5t-9.5 -95t-4.5 -96 q0 -63 9 -121q-68 -22 -187 -22q-85 0 -121 31t-36 96zM506 700q56 -36 106 -36q81 0 130 87.5t49 225.5q0 111 -39 154t-111 43q-31 0 -80 -9q-19 -220 -35 -329z" />
<glyph unicode="Q" horiz-adv-x="1376" d="M90 539q0 175 52 329t144.5 267.5t228 179t294.5 65.5q250 0 391 -148.5t141 -408.5q0 -210 -73.5 -388.5t-215 -298.5t-327.5 -148q47 -87 154.5 -130.5t238.5 -43.5q205 0 301 182q133 -63 133 -162q0 -54 -25 -97.5t-63.5 -69.5t-89.5 -43t-98 -23.5t-94 -6.5 q-526 0 -666 394q-202 29 -314 174.5t-112 376.5zM434 604q0 -85 13 -157.5t40.5 -132.5t75 -94t111.5 -34q99 0 174 84.5t111 214.5t36 281q0 82 -13 152t-40.5 128t-75.5 91.5t-112 33.5q-95 0 -169 -78.5t-112.5 -207t-38.5 -281.5z" />
<glyph unicode="R" horiz-adv-x="1200" d="M111 111q0 22 7.5 78t20 142.5t19.5 141.5l53 410q37 267 37 471q161 24 338 24q115 0 207 -21.5t151.5 -57t99 -85t56 -103.5t16.5 -114q0 -154 -70.5 -268t-177.5 -139q28 -87 69.5 -190.5t68.5 -147.5q18 -30 37 -40.5t63 -10.5q30 0 51 6q6 -38 6 -74 q0 -78 -51 -115.5t-129 -37.5q-66 0 -111 14.5t-77 50.5t-52.5 77.5t-46.5 113.5q-41 114 -102 305q-16 19 -16 57q0 55 26 109q8 -2 25 -2q41 0 71 28.5t44 74t20 88.5t6 87q0 116 -32.5 154.5t-106.5 38.5q-40 0 -70 -9q-8 -104 -37 -344l-53 -415q-25 -215 -25 -283 q0 -59 9 -109q-68 -22 -187 -22q-157 0 -157 117z" />
<glyph unicode="S" horiz-adv-x="1064" d="M47 193q0 58 38 95.5t116 63.5q31 -74 102.5 -118t149.5 -44q87 0 146.5 55t59.5 161q0 44 -27 73.5t-70 47t-95 33.5t-104.5 40t-95.5 59.5t-70 100t-27 153.5q0 145 73.5 251t195 158t276.5 52q57 0 116.5 -13t112.5 -37.5t87 -65.5t34 -91q0 -59 -43 -104t-137 -59 q-19 70 -80 112.5t-129 42.5q-80 0 -136.5 -51t-56.5 -145q0 -37 22 -65.5t58 -45t81.5 -34t93.5 -32.5t93.5 -41t81.5 -58.5t58 -86.5t22 -123q0 -236 -150.5 -366.5t-406.5 -130.5q-99 0 -188.5 28t-145 77.5t-55.5 107.5z" />
<glyph unicode="T" horiz-adv-x="972" d="M84 1212q0 135 102 140q47 2 199 2h367q284 0 350 6q6 -75 6 -78q0 -127 -100 -129q-59 -2 -267 -2q-13 -95 -36.5 -260t-35.5 -253.5t-26.5 -200.5t-20.5 -184t-6 -120q0 -59 9 -117q-68 -22 -185 -22q-86 0 -122.5 31t-36.5 96q0 22 22 176.5t55.5 402.5t53.5 447 q-236 0 -324 -4q-4 36 -4 69z" />
<glyph unicode="U" horiz-adv-x="1359" d="M145 322q0 49 51.5 433.5t61.5 594.5q63 14 164 14q168 0 168 -109q0 -6 -8 -55.5t-23.5 -148t-28.5 -189.5q-61 -395 -61 -467q0 -51 10 -90t38.5 -67.5t72.5 -28.5q78 0 172 100.5t143 251.5q82 612 90 791q63 12 164 12q168 0 168 -109q0 -10 -9.5 -65t-26.5 -164.5 t-31 -222.5l-50 -395q-24 -176 -24 -271q0 -69 8 -121q-74 -22 -188 -22q-95 0 -126.5 34t-31.5 105q0 5 2.5 24t7.5 52t8 61q-88 -140 -205 -215t-229 -75q-93 0 -159.5 48.5t-97 124.5t-30.5 169z" />
<glyph unicode="V" horiz-adv-x="1273" d="M147 391q0 131 34 319.5t34 356.5q0 151 -55 264q73 49 196 49q201 0 201 -194q0 -96 -42 -355t-42 -380q0 -198 37 -271q86 12 159.5 83.5t121 174.5t81.5 227.5t49 240t15 214.5q0 129 -35 217q79 43 197 43q92 0 144 -40t52 -123q0 -77 -15.5 -177t-50 -218.5 t-83 -236t-120.5 -227t-157 -193.5t-197.5 -134.5t-236.5 -50.5q-62 0 -123 22q-164 135 -164 389z" />
<glyph unicode="W" horiz-adv-x="1972" d="M147 391q0 131 34 319.5t34 356.5q0 151 -55 264q73 49 196 49q201 0 201 -194q0 -96 -42 -355t-42 -380q0 -198 37 -271q82 12 152 83.5t115 174.5t77.5 227.5t46.5 240t14 214.5q0 131 -34 217q79 43 196 43q92 0 144.5 -40t52.5 -123q0 -104 -28.5 -249.5 t-82.5 -293.5q-4 -66 -4 -101q0 -116 19.5 -221.5t50.5 -171.5q82 12 152 83.5t115 174.5t77.5 227.5t46.5 240t14 214.5q0 129 -35 217q79 43 197 43q92 0 144.5 -40t52.5 -123q0 -77 -15.5 -177t-49 -218.5t-81 -236t-118 -227t-153.5 -193.5t-193 -134.5t-232 -50.5 q-60 0 -121 22q-91 56 -123 215q-210 -237 -475 -237q-60 0 -121 22q-164 135 -164 389z" />
<glyph unicode="X" horiz-adv-x="1159" d="M12 135q0 27 17.5 64t51.5 81.5t69.5 86t87.5 94.5t89 89.5t90 87.5t75 73q-98 209 -170 314t-179 179q137 174 248 174q90 0 152 -118q63 -124 139 -369q84 129 152.5 270.5t83.5 218.5q63 -12 102 -22.5t83 -29t65.5 -45t21.5 -62.5q0 -24 -14.5 -57.5t-46.5 -78 t-59.5 -79.5t-77.5 -90t-73.5 -80.5t-75 -79.5t-57.5 -60q34 -85 66 -152t77.5 -144t103.5 -139t124 -105q-53 -73 -119 -124.5t-131 -51.5q-23 0 -45 8.5t-40 21.5t-37 36.5t-33.5 45.5t-32 58t-30 63.5t-29.5 72t-27.5 74t-28.5 79.5t-29 79q-89 -107 -180.5 -270.5 t-120.5 -267.5q-47 8 -81 16.5t-70.5 21.5t-59 28.5t-37 38t-14.5 50.5z" />
<glyph unicode="Y" horiz-adv-x="1042" d="M92 1247q70 67 118 94t105 27q52 0 85 -19.5t55 -76.5q86 -227 163 -475q74 115 166 311t101 268q135 0 203.5 -30.5t68.5 -98.5q0 -103 -452 -669l-21 -170q-2 -20 -7.5 -65t-9 -71.5t-6 -64.5t-2.5 -70q0 -63 9 -121q-68 -22 -187 -22q-85 0 -121 31t-36 96 q0 11 6 56.5t22.5 164.5t32.5 236q-79 249 -157 431t-136 238z" />
<glyph unicode="Z" horiz-adv-x="1200" d="M74 125q0 46 32 108q109 195 689 863q-71 0 -225.5 23.5t-233.5 23.5q-82 0 -158 -39q-28 72 -28 127q0 135 165 135q70 0 312 -27.5t358 -27.5q108 0 164 26q47 -47 47 -129q0 -74 -41 -121l-528 -604q-107 -126 -178 -231q14 2 47 2q68 0 211.5 -26.5t207.5 -26.5 q120 0 181 32q30 -71 30 -118q0 -73 -55.5 -104t-200.5 -31q-64 0 -252.5 25.5t-298.5 25.5q-107 0 -190 -25q-55 55 -55 119z" />
<glyph unicode="[" horiz-adv-x="843" d="M158 -389l245 1864h484q2 -14 2 -43q0 -125 -101 -125q-83 0 -153 4l-203 -1534q74 4 154 4q76 0 76 -70q0 -35 -21 -100h-483z" />
<glyph unicode="\" horiz-adv-x="552" d="M66 1440q0 44 27 62t79 18q34 -1 61 -11q22 -254 111 -833q75 -484 121 -774q10 -66 10 -70q0 -82 -96 -82q-27 0 -72 10q-19 220 -86 678q-155 959 -155 1002z" />
<glyph unicode="]" horiz-adv-x="808" d="M-45 -348q0 63 22.5 95t77.5 32q84 0 154 -4l203 1534q-74 -4 -154 -4q-40 0 -57 16t-17 51q0 38 19 103h483l-246 -1864h-483q-2 14 -2 41z" />
<glyph unicode="^" horiz-adv-x="1099" d="M39 846q58 87 232 264.5t280 271.5q109 -98 281 -274t229 -262q-68 -68 -119 -68q-18 0 -44 13t-58 38.5t-61.5 52t-66.5 63.5t-61 62t-56 60t-42 45q-14 -14 -66.5 -71.5t-87.5 -92.5t-83.5 -80t-88 -67.5t-67.5 -22.5q-53 0 -121 68z" />
<glyph unicode="_" horiz-adv-x="1095" d="M0 -250q0 33 18 59.5t56 26.5q7 0 129.5 -7t212.5 -7h291q262 0 383 14q6 -18 6 -61q0 -36 -20.5 -61t-53.5 -25q-32 0 -142 8t-167 8h-293q-234 0 -414 -16q-6 31 -6 61z" />
<glyph unicode="`" horiz-adv-x="468" d="M-98 1391q0 96 118 155q30 -52 90.5 -106.5t112.5 -91t92.5 -80.5t40.5 -82q0 -37 -15.5 -60.5t-55.5 -54.5q-52 45 -128 94t-127.5 79t-89.5 69t-38 78z" />
<glyph unicode="a" horiz-adv-x="1093" d="M53 344q0 93 22 184.5t67.5 174.5t109 146.5t154 101.5t194.5 38q210 0 408 -135q-31 -146 -45.5 -218t-31 -188.5t-16.5 -193.5q0 -76 66 -119q-53 -155 -205 -155q-85 0 -121.5 45.5t-36.5 136.5q0 24 3 51q-57 -113 -139.5 -173t-170.5 -60q-114 0 -186 93.5 t-72 270.5zM377 401q0 -103 23 -171t65 -68q39 0 88.5 62.5t81.5 162.5l51 346q-62 74 -125 74q-59 0 -102.5 -64.5t-62.5 -154.5t-19 -187z" />
<glyph unicode="b" horiz-adv-x="1085" d="M78 94q38 225 100 655t62 498q0 93 -64 103q15 77 75.5 123.5t143.5 46.5q160 0 160 -179q0 -114 -66 -524q51 82 126 128t147 46q120 0 196 -101t76 -284q0 -94 -23.5 -185t-71 -170.5t-113 -140t-156 -95.5t-193.5 -35q-206 0 -399 114zM403 225q60 -63 125 -63 q75 0 129 105t54 288q0 100 -29 175t-80 75q-33 0 -73 -59.5t-72 -159.5q-8 -61 -28 -191.5t-26 -169.5z" />
<glyph unicode="c" horiz-adv-x="935" d="M51 377q0 120 34.5 222.5t91.5 173.5t132 121.5t155 74.5t161 24q42 0 89 -10t93.5 -30t77 -58t30.5 -86q0 -62 -59.5 -110.5t-150.5 -55.5q-7 81 -44.5 119.5t-78.5 38.5q-93 0 -151 -112t-58 -265q0 -130 46.5 -195t117.5 -65q43 0 90 36t78 93q66 -24 95 -54t29 -79 q0 -76 -83 -128t-240 -52q-77 0 -144 14t-125 45t-99 76.5t-64 112.5t-23 149z" />
<glyph unicode="d" horiz-adv-x="1085" d="M51 344q0 173 57.5 321.5t159.5 237t224 88.5q56 0 106.5 -24t110.5 -76q15 81 28 207.5t13 150.5q0 89 -64 101q9 72 72.5 121t148.5 49q158 0 158 -183q0 -72 -65.5 -552.5t-65.5 -526.5q0 -40 13.5 -68t49.5 -53q-53 -157 -206 -157q-87 0 -131 48t-44 140q0 31 2 45 q-57 -113 -139 -173t-170 -60q-115 0 -186.5 93t-71.5 271zM375 412q0 -107 22 -178.5t68 -71.5q38 0 89 63.5t83 161.5l49 346q-61 74 -133 74q-73 0 -125.5 -111.5t-52.5 -283.5z" />
<glyph unicode="e" horiz-adv-x="956" d="M51 336q0 98 26.5 194t78 179t121 147t163 100.5t197.5 36.5q117 0 197.5 -65t80.5 -180q0 -122 -65.5 -211t-172.5 -132t-241 -43q-16 0 -61 5q0 -108 44.5 -155.5t117.5 -47.5q107 0 182 110q46 -23 77 -57.5t31 -69.5q0 -72 -105.5 -119.5t-242.5 -47.5 q-65 0 -124.5 11.5t-115.5 38.5t-97 67t-66 101.5t-25 137.5zM383 498q10 -2 31 -2q82 0 129 68t47 159q0 36 -20.5 61t-47.5 25q-48 0 -88.5 -84.5t-50.5 -226.5z" />
<glyph unicode="f" horiz-adv-x="778" d="M0 -111q27 8 50.5 44.5t40.5 87.5t32.5 126.5t25.5 147t19.5 164t15 161.5t11.5 156q-61 -2 -123 -10q-9 52 -9 70q0 137 117 137h33q8 105 39 191t89 154t151.5 106t216.5 38q47 0 92.5 -9t87.5 -28t68 -54t26 -81q0 -45 -41 -80.5t-129 -46.5q-15 63 -55.5 90t-83.5 27 q-48 0 -83 -47.5t-51.5 -114.5t-21.5 -149q143 0 273 10q12 -30 12 -74q0 -51 -23.5 -86.5t-74.5 -36.5q-47 -4 -207 -4q-34 -363 -64 -598q-23 -184 -45 -258q-53 -172 -185 -190q-16 -2 -34 -2q-59 0 -105 39.5t-65 119.5z" />
<glyph unicode="g" horiz-adv-x="1077" d="M-12 -381q0 54 43.5 94t87.5 58q58 -105 190 -105q134 0 203.5 122.5t79.5 375.5q-40 -66 -93 -109.5t-98 -59t-88 -15.5q-87 0 -147 54.5t-85.5 135t-25.5 178.5q0 126 40.5 243.5t110 205t169 140t211.5 52.5q225 0 424 -135q-65 -274 -101 -547q-5 -43 -14 -129 q-8 -77 -13 -116.5t-17 -110.5t-25 -109.5t-37 -96t-53.5 -89.5t-74 -70t-99 -57.5t-127.5 -33t-160 -13.5q-129 0 -215 35.5t-86 101.5zM379 406q0 -108 23.5 -176t64.5 -68q34 0 86 59.5t84 165.5q9 56 26 179.5t25 166.5q-59 74 -125 74q-52 0 -94.5 -54t-66 -145.5 t-23.5 -201.5z" />
<glyph unicode="h" horiz-adv-x="1124" d="M86 111q0 60 79 559.5t79 582.5q0 37 -16 65t-48 32q11 72 72.5 121t150.5 49q156 0 156 -185q0 -60 -18.5 -220t-46.5 -327q63 97 150 149t167 52q109 0 168 -66t59 -173q0 -36 -42 -240.5t-42 -251.5q0 -81 70 -123q-25 -74 -84.5 -114.5t-128.5 -40.5 q-73 0 -124.5 45.5t-51.5 126.5q0 66 39 263.5t39 272.5q0 115 -68 115q-48 0 -108 -85.5t-86 -195.5l-5 -20q-3 -20 -11.5 -82t-13 -97t-9 -86.5t-4.5 -89.5q0 -46 8 -116q-81 -35 -172 -35q-69 0 -113.5 27t-44.5 88z" />
<glyph unicode="i" horiz-adv-x="579" d="M78 166q0 96 46 302.5t46 258.5q0 37 -16 64.5t-48 31.5q11 72 73 121t151 49q155 0 155 -184q0 -81 -45 -290.5t-45 -258.5q0 -80 66 -123q-28 -79 -84.5 -118t-124.5 -39q-77 0 -125.5 42.5t-48.5 143.5zM201 1245q0 80 54.5 142.5t145.5 62.5q75 0 116.5 -49 t41.5 -117q0 -79 -53 -138t-148 -59q-77 0 -117 45.5t-40 112.5z" />
<glyph unicode="j" horiz-adv-x="649" d="M-369 -381q0 42 37.5 85.5t93.5 66.5q24 -42 67 -73.5t89 -31.5q64 0 118.5 67t80.5 216q116 700 116 778q0 36 -16 64t-47 32q11 72 73 121t150 49q47 0 79 -15.5t48 -43.5t22.5 -59t6.5 -72q0 -77 -41 -369.5t-72 -474.5q-35 -221 -165 -349t-353 -128q-28 0 -60.5 3 t-74 12.5t-74.5 23.5t-55.5 39.5t-22.5 58.5zM252 1245q0 80 55 142.5t146 62.5q75 0 116 -49t41 -117q0 -79 -52.5 -138t-147.5 -59q-77 0 -117.5 45.5t-40.5 112.5z" />
<glyph unicode="k" horiz-adv-x="1075" d="M86 96q0 60 79 560t79 583q0 37 -16 64.5t-48 31.5q11 72 72.5 121t150.5 49q156 0 156 -184q0 -60 -18.5 -216.5t-46.5 -322.5q86 112 156.5 159.5t154.5 47.5q90 0 150.5 -59.5t60.5 -153.5q0 -126 -80.5 -228t-198.5 -124q9 -22 21 -54.5t18.5 -49t16 -40.5 t15.5 -35.5t15 -27t16.5 -22.5t18 -14.5t21.5 -10t24 -2.5q44 0 107 18q14 -47 14 -69q0 -47 -35.5 -79.5t-81 -45t-94.5 -12.5q-69 0 -106 14.5t-70 58.5q-60 85 -127 353q-10 10 -10 34q0 49 32 105q24 -6 43 -6q61 0 105.5 53t44.5 123q0 38 -20 59t-54 21 q-13 0 -29 -5.5t-39 -23t-45 -44.5t-45.5 -76.5t-41.5 -113.5l-5 -24q-38 -241 -38 -375q0 -47 8 -117q-79 -34 -172 -34q-158 0 -158 114z" />
<glyph unicode="l" horiz-adv-x="555" d="M86 166q0 91 66.5 549t66.5 538q0 37 -15.5 65t-47.5 32q11 72 72.5 121t150.5 49q156 0 156 -185q0 -81 -66 -553.5t-66 -521.5q0 -80 66 -123q-23 -63 -73 -110t-128 -47q-46 0 -80 11.5t-53 29t-30.5 43.5t-15 49.5t-3.5 52.5z" />
<glyph unicode="m" horiz-adv-x="1660" d="M86 111q0 11 41 277t41 331q0 89 -64 104q11 78 71.5 124t135.5 46q174 0 174 -170q0 -5 -1 -15.5t-1 -16.5q61 95 148.5 146.5t167.5 51.5q98 0 157 -56.5t68 -148.5q73 102 156.5 153.5t167.5 51.5q109 0 168 -66t59 -173q0 -36 -42 -240.5t-42 -251.5q0 -81 70 -123 q-25 -74 -84.5 -114.5t-128.5 -40.5q-74 0 -125.5 45.5t-51.5 126.5q0 66 39 263.5t39 272.5q0 115 -67 115q-48 0 -108 -83t-87 -190q0 -6 -4 -22q-27 -230 -27 -361q0 -37 9 -116q-81 -35 -172 -35q-69 0 -113.5 27t-44.5 88q0 14 17 120.5t37 241t26 201.5v14 q0 52 -23 83.5t-59 31.5q-50 0 -110.5 -86t-86.5 -199q-28 -242 -28 -371q0 -46 8 -116q-81 -35 -172 -35q-69 0 -113.5 27t-44.5 88z" />
<glyph unicode="n" horiz-adv-x="1112" d="M86 111q0 11 41 277t41 331q0 89 -64 104q11 78 71.5 124t135.5 46q174 0 174 -170q0 -5 -1 -15.5t-1 -16.5q61 95 148.5 146.5t167.5 51.5q109 0 168 -66t59 -173q0 -36 -42 -240.5t-42 -251.5q0 -81 70 -123q-25 -74 -84.5 -114.5t-128.5 -40.5q-73 0 -124.5 45.5 t-51.5 126.5q0 66 38.5 263.5t38.5 272.5q0 115 -67 115q-50 0 -110.5 -86t-86.5 -199q-28 -242 -28 -371q0 -46 8 -116q-81 -35 -172 -35q-69 0 -113.5 27t-44.5 88z" />
<glyph unicode="o" horiz-adv-x="1058" d="M51 391q0 165 69 302t195.5 217.5t284.5 80.5q191 0 299.5 -105.5t108.5 -289.5q0 -165 -72 -306t-200.5 -225.5t-284.5 -84.5q-185 0 -292.5 113t-107.5 298zM383 422q0 -112 33 -185t92 -73q48 0 86.5 56.5t58 142.5t19.5 180q0 116 -32 190t-93 74q-48 0 -86.5 -57.5 t-58 -144.5t-19.5 -183z" />
<glyph unicode="p" horiz-adv-x="1095" d="M27 -319q0 94 75.5 537t75.5 503q0 86 -63 102q11 79 71.5 124.5t135.5 45.5q174 0 174 -166q0 -16 -2 -26q56 91 130.5 140.5t151.5 49.5q118 0 193 -90t75 -278q0 -140 -38.5 -262.5t-101 -204.5t-142 -129t-160.5 -47q-121 0 -217 92q-41 -226 -41 -303q0 -86 66 -129 q-58 -158 -217 -158q-89 0 -127.5 56.5t-38.5 142.5zM408 225q57 -63 127 -63q75 0 130.5 111t55.5 302q0 104 -28 168t-75 64q-33 0 -74.5 -56t-72.5 -149q-18 -123 -63 -377z" />
<glyph unicode="q" horiz-adv-x="1054" d="M51 346q0 172 70 319.5t193.5 235.5t271.5 88q229 0 422 -135q-38 -153 -109.5 -588.5t-71.5 -505.5q0 -79 66 -122q-21 -63 -74 -110.5t-125 -47.5q-57 0 -95 15.5t-56.5 46t-25.5 64.5t-7 83q0 106 78 475q-56 -89 -129.5 -136.5t-149.5 -47.5q-114 0 -186 94.5 t-72 271.5zM375 377q0 -89 23 -151t65 -62q39 0 90.5 63t81.5 168q6 38 23.5 164t25.5 176q-69 72 -125 72q-80 0 -132 -119.5t-52 -310.5z" />
<glyph unicode="r" horiz-adv-x="811" d="M84 111q0 16 41 282t41 326q0 90 -64 104q8 67 64.5 118.5t146.5 51.5q87 0 128.5 -44.5t41.5 -123.5q0 -28 -8 -75q59 120 134 180.5t141 60.5q54 0 79 -30t25 -78q0 -47 -23 -96.5t-57 -77.5q-62 51 -127 51q-142 0 -217 -283q-24 -232 -24 -348q0 -36 8 -98 q-34 -16 -85 -25.5t-89 -9.5q-83 0 -119.5 32.5t-36.5 82.5z" />
<glyph unicode="s" horiz-adv-x="878" d="M10 133q0 118 180 191q11 -74 60 -111t108 -37q62 0 103 26t41 81q0 26 -21.5 43.5t-55.5 28.5t-75.5 21.5t-82.5 28.5t-75 43t-55.5 70.5t-21.5 106.5q0 103 61 188.5t158 132.5t205 47q47 0 95.5 -8.5t94.5 -26.5t75.5 -51.5t29.5 -77.5q0 -38 -18.5 -68t-50.5 -49 t-66 -30t-74 -18q-7 63 -41.5 98t-81.5 35q-46 0 -82.5 -27.5t-36.5 -81.5q0 -31 21.5 -52t56 -33t76 -23t82.5 -27.5t75.5 -40.5t56 -67t21.5 -103q0 -107 -63 -191.5t-161 -127.5t-210 -43q-37 0 -72 2t-84.5 11.5t-85 24.5t-61 45t-25.5 70z" />
<glyph unicode="t" horiz-adv-x="798" d="M33 821q0 76 28 114t91 38h67q2 14 27 203q62 12 139 12q95 0 128.5 -17t33.5 -65q0 -28 -19 -135q232 0 320 10q10 -38 10 -76q0 -115 -102 -123q-68 -4 -258 -4q-4 -28 -24.5 -167.5t-32 -229.5t-11.5 -129q0 -52 31 -78.5t78 -26.5q80 0 135 64q55 -55 55 -113 q0 -32 -18.5 -55.5t-44 -35t-64.5 -18t-65.5 -8t-61.5 -1.5q-181 0 -262.5 70t-81.5 206q0 40 10 121t31 219t27 182q-27 0 -162 -12q-4 32 -4 55z" />
<glyph unicode="u" horiz-adv-x="1122" d="M96 215q0 44 41 239.5t41 262.5q0 27 -3 44t-17.5 35.5t-42.5 26.5q11 80 72.5 125t134.5 45q178 0 178 -188q0 -72 -40.5 -255.5t-41.5 -270.5q0 -113 65 -113q47 0 104.5 81.5t84.5 196.5q54 319 65 506q85 29 144 29q159 0 159 -148q0 -44 -44 -292t-44 -285 q0 -79 66 -119q-18 -61 -69 -108t-132 -47q-93 0 -127.5 47.5t-34.5 132.5q0 35 2 53q-52 -96 -141.5 -164.5t-191.5 -68.5q-109 0 -168.5 65t-59.5 170z" />
<glyph unicode="v" horiz-adv-x="980" d="M94 270q0 93 21.5 227t21.5 253q0 106 -39 186q34 25 87.5 40t107.5 15q97 0 136.5 -40.5t39.5 -119.5q0 -60 -33 -230.5t-33 -262.5q0 -74 17 -135q56 15 104 79t77.5 149t46 174t16.5 163q0 114 -31 172q64 51 170 51q73 0 123.5 -34t50.5 -101q0 -77 -32 -187 t-94.5 -229.5t-144 -222.5t-193 -170t-228.5 -67q-49 0 -90 16q-101 88 -101 274z" />
<glyph unicode="w" horiz-adv-x="1488" d="M94 270q0 93 21.5 227t21.5 253q0 106 -39 186q34 25 87.5 40t107.5 15q97 0 136.5 -40.5t39.5 -119.5q0 -60 -33 -230.5t-33 -262.5q0 -74 17 -135q56 15 104 79t77.5 149t46 174t16.5 163q0 114 -31 172q64 51 170 51q73 0 123.5 -34t50.5 -101q0 -128 -82 -321 q0 -146 7.5 -217.5t25.5 -114.5q56 15 104 79t77 149t45.5 174t16.5 163q0 116 -30 172q64 51 170 51q73 0 123.5 -34t50.5 -101q0 -77 -32 -187t-94.5 -229.5t-144 -222.5t-193 -170t-228.5 -67q-50 0 -91 16q-55 47 -65 147q-166 -163 -352 -163q-49 0 -90 16 q-101 88 -101 274z" />
<glyph unicode="x" horiz-adv-x="946" d="M23 106q0 25 11 53t35.5 59.5t44.5 55t59 57.5t57 49.5t59.5 49t46.5 37.5q-8 18 -24 51.5t-23.5 50t-22 44.5t-23.5 42t-23.5 34t-27.5 30t-29 20.5t-34.5 14.5t-38.5 4q-8 46 -8 71q0 69 56.5 119.5t129.5 50.5q31 0 58 -10.5t46.5 -24t39 -41t31.5 -47.5t26.5 -57.5 t21.5 -57.5t19.5 -62t17.5 -56q41 63 66.5 159t32.5 185q20 4 65 4q90 0 144.5 -39t54.5 -102q0 -25 -9.5 -52.5t-29.5 -57.5t-38.5 -55t-49.5 -57.5t-49 -50.5t-50.5 -49t-41.5 -39q7 -15 28 -57.5t28.5 -57t26.5 -48t29.5 -46.5t30 -34.5t36 -30t39 -15.5t46.5 -7 q8 -40 8 -70q0 -64 -50.5 -103.5t-121.5 -39.5q-30 0 -55 5t-45.5 12.5t-39 23t-32.5 29.5t-29 41t-25 48t-24.5 58.5t-23.5 65t-25 75.5q-138 -230 -150 -350q-20 -2 -55 -2q-92 0 -144 32t-52 88z" />
<glyph unicode="y" horiz-adv-x="993" d="M-369 -319q0 84 144 159q13 -53 68 -90t114 -37q190 0 360 293q-2 44 -30 161.5t-69.5 253.5t-100 259t-111.5 164q47 66 110.5 105.5t121.5 39.5q59 0 105.5 -44t68.5 -132q57 -229 98 -584q129 333 141 570q0 80 -30 141q71 51 165 51q177 0 177 -162 q0 -149 -110 -394.5t-243 -442.5q-46 -69 -77 -112.5t-75 -97.5t-81 -87t-87.5 -68.5t-102 -54.5t-117 -31t-140.5 -12q-135 0 -217 43.5t-82 108.5z" />
<glyph unicode="z" horiz-adv-x="966" d="M23 84q0 32 24 78q77 132 504 600q-49 0 -147 12t-152 12q-63 0 -121 -28q-16 59 -16 108q0 56 31 89.5t98 33.5q57 0 249 -19.5t283 -19.5q98 0 146 19q34 -37 34 -105q0 -49 -30 -82q-327 -343 -496 -561q10 2 31 2q44 0 140.5 -19.5t139.5 -19.5q69 0 113 25 q23 -54 23 -98q0 -69 -46 -100t-153 -31q-52 0 -206.5 18t-240.5 18q-102 0 -170 -18q-38 51 -38 86z" />
<glyph unicode="{" horiz-adv-x="843" d="M123 535l12 102q72 0 117.5 56t52.5 116l55 428q16 114 119 170.5t324 56.5q44 0 69 -2q2 -14 2 -43q0 -63 -25 -95t-83 -32q-54 0 -85 -6t-48 -23.5t-22.5 -36t-10.5 -57.5l-49 -364q-10 -71 -66.5 -135.5t-111.5 -83.5q45 -16 85 -74.5t40 -120.5q0 -15 -28 -219 t-28 -223q0 -37 28.5 -52.5t107.5 -15.5t79 -74q0 -33 -18 -96q-27 -2 -70 -2q-205 0 -295 48t-90 145q0 37 30 246t30 241q0 56 -30 101t-91 45z" />
<glyph unicode="|" horiz-adv-x="1030" d="M401 1499q47 10 88 10q136 0 136 -112q0 -10 -5.5 -155.5t-10.5 -384.5t-5 -476v-35q0 -680 25 -846q-47 -10 -88 -10q-135 0 -135 113q0 10 5 155.5t10 384t5 475.5v35q0 680 -25 846z" />
<glyph unicode="}" horiz-adv-x="841" d="M-31 -248q0 64 24 96.5t83 32.5q54 0 85 6t48 23.5t22.5 36t10.5 57.5l49 365q10 71 66.5 135.5t111.5 83.5q-45 16 -85 74t-40 120q0 15 27.5 220.5t27.5 222.5q0 37 -28 52t-107 15q-82 0 -82 70q0 32 21 100q27 2 69 2q205 0 295 -47.5t90 -144.5q0 -37 -29.5 -250 t-29.5 -240q0 -56 29.5 -99.5t91.5 -43.5l-12 -102q-72 0 -117.5 -56t-52.5 -116l-56 -428q-10 -76 -56 -125t-141.5 -76t-244.5 -27q-45 0 -68 2q-2 14 -2 41z" />
<glyph unicode="~" horiz-adv-x="1245" d="M63 547q0 168 263 168q113 0 292.5 -41t264.5 -41q149 0 229 72q70 -74 70 -142q0 -45 -28 -78.5t-75 -52.5t-100 -28t-111 -9q-72 0 -241 41t-262 41q-153 0 -232 -71q-70 74 -70 141z" />
<glyph unicode="&#xa1;" horiz-adv-x="704" d="M111 -328q0 50 29.5 172.5t59 276t29.5 280.5q0 46 -4 64q73 39 146 39q63 0 103 -27.5t40 -79.5q0 -13 -20 -147t-40 -307t-20 -281q0 -63 4 -88q-94 -23 -164 -23q-163 0 -163 121zM240 788q0 77 61 141t141 64q65 0 108.5 -42.5t43.5 -110.5q0 -80 -60 -145.5 t-143 -65.5q-64 0 -107.5 45.5t-43.5 113.5z" />
<glyph unicode="&#xa2;" d="M123 565q0 134 45 244t121 183t166.5 119t191.5 65q14 92 21 210q32 11 51 11q72 0 72 -60q0 -3 -3 -23t-8.5 -57.5t-9.5 -66.5h14q151 0 242.5 -56.5t91.5 -127.5q0 -43 -37.5 -79.5t-109.5 -54.5q-75 119 -199 119q-5 0 -15 -1t-14 -1q-51 -369 -92 -651q12 -2 39 -2 q61 0 115 31t90 92q72 -13 101.5 -39t29.5 -64q0 -62 -43.5 -107.5t-111 -67.5t-129 -32t-117.5 -10q-9 -67 -13 -166l-45 -6q-73 0 -73 62q0 17 14 121q-79 14 -145.5 44.5t-121.5 80t-86.5 124t-31.5 166.5zM442 606q0 -140 99 -219l75 553q-77 -53 -125.5 -142 t-48.5 -192z" />
<glyph unicode="&#xa3;" d="M10 72q0 57 53.5 104t159.5 53q73 78 111.5 128.5t63 107.5t24.5 117q0 36 -8 63q-59 0 -139 -3t-125 -3q-5 35 -5 43q0 48 22.5 82.5t72.5 40.5q6 1 125 6q-23 51 -34 78.5t-20.5 66t-9.5 74.5q0 99 67.5 180.5t176 125.5t231.5 44q96 0 153.5 -42.5t57.5 -100.5 q0 -47 -41.5 -89.5t-120.5 -66.5q-15 39 -43.5 60.5t-62.5 21.5q-47 0 -81 -32.5t-34 -86.5q0 -39 47.5 -120.5t57.5 -104.5q159 8 301 25q6 -40 6 -78q0 -62 -30 -94.5t-109 -32.5l-138 6q0 -67 -10.5 -117.5t-40.5 -106t-90 -106.5t-152 -102q42 -3 133 -20t130 -17 q131 0 141 135h20q172 0 172 -114q0 -53 -30 -94.5t-79 -64t-101 -33.5t-105 -11q-134 0 -241 16.5t-172.5 32.5t-96.5 16q-19 -26 -56.5 -44.5t-74.5 -18.5q-33 0 -54.5 18.5t-21.5 57.5z" />
<glyph unicode="&#xa5;" d="M57 391q0 45 22.5 68.5t63.5 23.5h254l17 113q-171 -3 -322 -16q-4 12 -4 36q0 45 23 69t63 24h197q-141 421 -258 546q105 113 202 113q49 0 80 -21.5t51 -68.5q105 -266 168 -494q89 130 189 322.5t110 269.5q258 0 258 -129q0 -56 -107 -213t-249 -325q123 3 252 16 v-20q0 -47 -22 -78t-66 -31h-272l-15 -113q167 0 344 17v-21q0 -47 -22 -77.5t-66 -30.5h-270q-1 -8 -8.5 -58.5t-10 -69.5t-5.5 -56t-3 -68q0 -49 6 -105q-65 -20 -155 -20q-86 0 -121 26.5t-35 81.5q0 52 33 267q-185 -3 -318 -15q-4 12 -4 37z" />
<glyph unicode="&#xa6;" d="M471 387q47 10 88 10q135 0 135 -112q0 -5 -5 -65.5t-10 -158.5t-5 -196v-15q0 -282 24 -348q-47 -12 -88 -12q-135 0 -135 111q0 5 5.5 65.5t10.5 159.5t5 197v14q0 281 -25 350zM471 1499q47 10 88 10q135 0 135 -112q0 -5 -5 -65.5t-10 -158.5t-5 -196v-14 q0 -283 24 -349q-47 -12 -88 -12q-135 0 -135 111q0 5 5.5 65.5t10.5 159.5t5 197v14q0 281 -25 350z" />
<glyph unicode="&#xa7;" horiz-adv-x="987" d="M39 -4q0 46 40 90.5t105 67.5q49 -129 222 -129q65 0 111 39t46 108q0 42 -23.5 75t-61 56t-82.5 44.5t-90 46.5t-82.5 55t-61 77.5t-23.5 106.5q0 78 36.5 146.5t103.5 115.5q-39 64 -39 143q0 69 25 125.5t68 95.5t100.5 66t120.5 39t130 12q150 0 226.5 -44.5 t76.5 -108.5q0 -54 -50.5 -101t-137.5 -65q-7 60 -52.5 96.5t-101.5 36.5q-55 0 -96 -31t-41 -88q0 -41 23.5 -75.5t60.5 -60.5t82 -51.5t90 -54t82 -61.5t60.5 -81.5t23.5 -106.5q0 -148 -131 -256q41 -64 41 -140q0 -107 -69.5 -187.5t-171.5 -118.5t-216 -38 q-175 0 -259.5 44.5t-84.5 111.5zM332 743q0 -53 42.5 -101t98 -78.5t133 -77t123.5 -85.5q12 27 12 54q0 47 -43 93.5t-99 80.5t-132.5 84.5t-122.5 95.5q-12 -28 -12 -66z" />
<glyph unicode="&#xa8;" horiz-adv-x="837" d="M242 1235q0 76 52.5 136.5t139.5 60.5q70 0 110 -47t40 -113q0 -74 -51 -130.5t-142 -56.5q-71 0 -110 43.5t-39 106.5zM709 1235q0 76 52.5 136.5t139.5 60.5q70 0 110 -47t40 -113q0 -74 -51 -130.5t-142 -56.5q-71 0 -110 43.5t-39 106.5z" />
<glyph unicode="&#xa9;" horiz-adv-x="1720" d="M238 655q0 205 94 371.5t256.5 260t359.5 93.5q145 0 275 -55t225 -150t151 -230.5t56 -289.5q0 -203 -95 -370t-257 -261t-355 -94q-147 0 -278.5 55.5t-226.5 151.5t-150 230.5t-55 287.5zM385 655q0 -137 44.5 -252t121 -192.5t179 -120.5t218.5 -43q113 0 215 43 t178 120.5t121 193t45 251.5t-45 251t-121 193t-178 121.5t-215 43.5q-115 0 -218 -43.5t-179.5 -121.5t-121 -193t-44.5 -251zM518 653q0 98 27 179t71 134.5t102.5 91t119.5 54t123 16.5q44 0 93 -10.5t95.5 -30.5t77 -56t30.5 -81q0 -80 -149 -100q-17 64 -64 96.5 t-98 32.5q-81 0 -136.5 -84t-55.5 -219q0 -90 21 -156.5t56.5 -103t75.5 -53.5t84 -17q48 0 97 24.5t83 69.5q84 -52 84 -110q0 -54 -84 -93.5t-198 -39.5q-65 0 -127 14t-122.5 47.5t-105.5 84t-72.5 130.5t-27.5 180z" />
<glyph unicode="&#xaa;" horiz-adv-x="706" d="M41 483q0 72 40 110t112 38q13 0 73.5 -6.5t98.5 -6.5h26q98 0 176 31q8 -36 8 -63q0 -74 -42 -111t-117 -37q-22 0 -82 7.5t-92 7.5h-11q-83 0 -186 -33q-4 29 -4 63zM72 881q0 34 8.5 61t19.5 45.5t35 33t42 22.5t54 15t57 10t66 7.5t66 7.5q4 40 4 56q0 35 -16 50 t-56 15q-94 0 -135 -76q-36 5 -62 26t-26 48q0 34 26.5 58.5t69 36t79 16t71.5 4.5q97 0 162 -37.5t65 -118.5q0 -17 -19.5 -144t-19.5 -198q0 -39 4 -55q-11 -7 -39.5 -15t-56.5 -8q-86 0 -86 64q-63 -72 -156 -72q-64 0 -110.5 39t-46.5 109zM262 899q0 -45 43 -45 q20 0 48 9t42 22l4 33q4 33 13 69q-30 -3 -45 -5t-39 -8.5t-35.5 -15t-21 -23.5t-9.5 -36z" />
<glyph unicode="&#xab;" horiz-adv-x="1163" d="M111 481q86 107 204.5 235.5t204.5 196.5q70 -36 95.5 -61.5t25.5 -50.5q0 -57 -229 -320q50 -76 98.5 -177t48.5 -136q0 -63 -151 -119q-67 67 -152.5 195.5t-144.5 236.5zM602 481q85 106 204.5 235t205.5 197q70 -36 95.5 -61.5t25.5 -50.5q0 -56 -230 -320 q50 -77 99 -177.5t49 -135.5q0 -62 -152 -119q-67 67 -152.5 195.5t-144.5 236.5z" />
<glyph unicode="&#xac;" d="M117 580q0 47 29.5 77.5t93.5 30.5h774q6 -477 6 -483q0 -73 -28 -106t-101 -33q-27 0 -68 7t-63 17q51 173 51 414v31h-381q-52 0 -139.5 -10t-153.5 -33q-20 45 -20 88z" />
<glyph unicode="&#xad;" horiz-adv-x="563" d="M51 453q0 88 40 142t130 54q12 0 66.5 -6t87.5 -6h14q83 0 156 31q8 -41 8 -72q0 -84 -43 -132t-125 -48q-19 0 -74 7t-88 7q-73 0 -168 -33q-4 36 -4 56z" />
<glyph unicode="&#xae;" horiz-adv-x="1171" d="M156 901q0 205 135 341t334 136q194 0 330.5 -137t136.5 -340q0 -202 -136.5 -339.5t-330.5 -137.5q-199 0 -334 137t-135 340zM276 901q0 -167 101 -271t248 -104q145 0 245.5 104t100.5 271t-100.5 271t-245.5 104q-147 0 -248 -104t-101 -271zM416 1147q153 12 198 12 q230 0 230 -160q0 -104 -123 -143q14 -29 94 -119q8 -8 37 -8q8 -16 8 -33q0 -22 -20 -35.5t-49 -13.5q-50 0 -82 37q-90 95 -134 174v-47q0 -83 19 -139q-41 -21 -76 -21q-54 0 -75 15t-21 47q0 19 2 61.5t2 59.5v137q0 107 -10 176zM575 926q8 -2 41 -2q35 0 57.5 17.5 t22.5 57.5q0 37 -28 60.5t-66 23.5h-27v-157z" />
<glyph unicode="&#xaf;" horiz-adv-x="843" d="M178 1126q0 3 0.5 30t1.5 40t3.5 39t9 40.5t16.5 31t26 24.5t37 8q7 0 100.5 -8t137.5 -8h55q121 0 293 16q0 -8 -1 -32t-1.5 -36.5t-3.5 -34.5t-7 -34.5t-11.5 -29t-18 -25t-26 -15t-35.5 -6.5q-1 0 -40.5 4t-103 7.5t-121.5 3.5h-55q-118 0 -256 -15z" />
<glyph unicode="&#xb0;" horiz-adv-x="718" d="M96 1065q0 158 102 274.5t261 116.5q119 0 191.5 -75t72.5 -195q0 -102 -43.5 -191.5t-127.5 -145.5t-190 -56q-121 0 -193.5 75.5t-72.5 196.5zM262 1081q0 -67 29 -107t86 -40q76 0 122 73.5t46 161.5q0 66 -28 106t-83 40q-77 0 -124.5 -72.5t-47.5 -161.5z" />
<glyph unicode="&#xb1;" d="M88 582q0 48 26 85.5t81 37.5q16 0 98.5 -9t208.5 -12q0 141 -25 352q27 8 88 8q52 0 87.5 -29t35.5 -75q0 -48 -10 -116.5t-10 -141.5q164 0 385 23q8 -25 8 -87q0 -52 -29.5 -87t-77.5 -35t-131.5 10t-156.5 10q0 -133 22 -258q-64 -12 -88 -12q-49 0 -86 25t-37 75 q0 20 10.5 86t10.5 86q-91 -1 -150 -4t-132.5 -9t-119.5 -9q-8 43 -8 86zM115 80q0 48 25.5 85.5t78.5 37.5q8 0 138.5 -10.5t224.5 -10.5q267 0 415 21q13 -27 13 -86q0 -52 -29.5 -87.5t-75.5 -35.5q-36 0 -157 11t-183 11q-231 0 -442 -22q-8 43 -8 86z" />
<glyph unicode="&#xb2;" horiz-adv-x="1021" d="M111 530q0 34 14 88q42 25 69.5 42t84.5 55.5t97 70t90.5 76.5t81.5 84t53 85t22 87q0 74 -88 74q-49 0 -103.5 -37t-97.5 -113q-59 9 -88 36.5t-29 66.5q0 54 42.5 100.5t104.5 74t126 43t114 15.5q148 0 222.5 -62.5t74.5 -160.5q0 -46 -16 -92.5t-39 -84t-63.5 -79 t-74 -70t-86 -65.5t-84 -57t-83.5 -52q35 -2 102 -2q63 0 97 1.5t90 10.5t116 27q31 -65 31 -108q0 -38 -17 -68.5t-51 -40.5q-84 -24 -258 -24q-79 0 -192.5 2t-169.5 2q-51 0 -71.5 19t-20.5 56z" />
<glyph unicode="&#xb3;" horiz-adv-x="1009" d="M111 545q0 45 29.5 80t80.5 69q58 -96 189 -96q75 0 114 38t39 109q0 51 -43 84t-129 33q-53 0 -53 58q0 29 14 71q250 5 250 162q0 61 -80 61q-53 0 -113.5 -28.5t-89.5 -69.5q-77 21 -77 94q0 43 37 77.5t91.5 53t106.5 28t92 9.5q158 0 235 -51t77 -137 q0 -87 -52.5 -153t-142.5 -99q77 -26 113.5 -79t36.5 -120q0 -81 -36.5 -142.5t-100 -98t-142.5 -54.5t-170 -18q-30 0 -69.5 4.5t-89.5 16t-83.5 37t-33.5 61.5z" />
<glyph unicode="&#xb4;" horiz-adv-x="557" d="M0 1186q0 35 34.5 67.5t90.5 61.5t117 59t126 74t105 94q35 -23 59.5 -66t24.5 -81q0 -31 -16 -60.5t-43 -46.5q-51 -31 -228.5 -105.5t-216.5 -111.5q-27 25 -40 58t-13 57z" />
<glyph unicode="&#xb5;" horiz-adv-x="1114" d="M18 -319q0 94 75 534t77 502q0 26 -3 43.5t-18 36t-43 26.5q11 80 72.5 125t134.5 45q179 0 179 -188q0 -72 -40.5 -255.5t-41.5 -270.5q0 -113 65 -113q47 0 104.5 81.5t84.5 196.5q54 319 65 506q85 29 143 29q160 0 160 -148q0 -44 -44 -292t-44 -285q0 -79 66 -119 q-18 -61 -69 -108t-132 -47q-93 0 -127.5 47.5t-34.5 132.5q0 35 2 53q-29 -96 -83.5 -164.5t-129.5 -68.5q-46 0 -98 30q-25 -80 -25 -160q0 -153 88 -210q-58 -158 -217 -158q-89 0 -127.5 56.5t-38.5 142.5z" />
<glyph unicode="&#xb6;" horiz-adv-x="1032" d="M111 733q0 129 60 232t157 158t209 55q14 0 148 -4.5t200 -4.5q135 0 209 2q4 -32 4 -45q0 -52 -32.5 -75t-100.5 -23h-47q-35 -163 -76 -399t-62 -402q-9 -74 -25.5 -137.5t-47 -126.5t-72 -107.5t-105 -72t-141.5 -27.5q-76 0 -114.5 30t-38.5 81q0 36 22 88 q61 -25 119 -25q45 0 78.5 17.5t53.5 50t33 70t19.5 86.5t10 90t7 90t7.5 78q60 394 106 614q-59 0 -112 4q-42 -166 -97 -563q-4 -35 -94 -35q-120 0 -199 82t-79 219z" />
<glyph unicode="&#xb7;" horiz-adv-x="468" d="M53 508q0 85 58 151t155 66q79 0 122.5 -51.5t43.5 -124.5q0 -82 -56 -144.5t-157 -62.5q-80 0 -123 48t-43 118z" />
<glyph unicode="&#xb8;" horiz-adv-x="806" d="M33 -432q0 51 61 119q24 -27 66 -27q33 0 52 22t19 54q0 31 -35.5 72t-35.5 69q0 62 78 189l165 -11q0 -1 -25.5 -48t-25.5 -73q0 -19 22.5 -38.5t49.5 -35.5t49.5 -50t22.5 -78q0 -72 -55.5 -130.5t-132 -88t-150.5 -29.5q-64 0 -94.5 23.5t-30.5 60.5z" />
<glyph unicode="&#xb9;" horiz-adv-x="892" d="M129 508q0 127 107 127h92q32 209 71 557q-86 -9 -172 -41q-10 33 -10 70q0 48 19.5 83.5t60.5 45.5q53 12 144 20t139 8q64 0 92 -26.5t28 -79.5q0 -33 -26 -166.5t-33 -183.5q-31 -213 -31 -291q74 0 148 8q6 -24 6 -55q0 -53 -19.5 -94t-60.5 -41q-13 0 -63.5 1 t-140 2t-197.5 1q-97 0 -150 -2q-4 36 -4 57z" />
<glyph unicode="&#xba;" horiz-adv-x="788" d="M41 483q0 72 40 110t112 38q13 0 73.5 -6.5t98.5 -6.5h26q98 0 176 31q8 -36 8 -63q0 -74 -42 -111t-117 -37q-22 0 -82 7.5t-92 7.5h-11q-83 0 -186 -33q-4 29 -4 63zM88 987q0 133 92.5 231.5t231.5 98.5q117 0 185.5 -63.5t68.5 -172.5q0 -132 -94.5 -231.5 t-233.5 -99.5q-115 0 -182.5 64.5t-67.5 172.5zM260 1006q0 -66 23.5 -107t68.5 -41q67 0 105.5 60.5t38.5 140.5q0 66 -24.5 105.5t-72.5 39.5q-66 0 -102.5 -59t-36.5 -139z" />
<glyph unicode="&#xbb;" horiz-adv-x="1169" d="M31 156q0 65 233 325q-43 63 -96 164.5t-53 140.5q0 29 31 57.5t122 69.5q115 -115 297 -432q-89 -109 -208 -237t-205 -195q-121 50 -121 107zM524 156q0 24 24 65.5t74 101.5t70 83.5t66 74.5q-44 64 -97 165t-53 140q0 29 31 57.5t123 69.5q115 -115 297 -432 q-88 -107 -208 -235.5t-206 -196.5q-121 50 -121 107z" />
<glyph unicode="&#xbc;" horiz-adv-x="2039" d="M129 508q0 127 107 127h92q32 209 71 557q-86 -9 -172 -41q-10 33 -10 70q0 48 19.5 83.5t60.5 45.5q53 12 144 20t139 8q64 0 92 -26.5t28 -79.5q0 -33 -26 -166.5t-33 -183.5q-31 -213 -31 -291q74 0 148 8q6 -24 6 -55q0 -53 -19.5 -94t-60.5 -41q-13 0 -63.5 1 t-140 2t-197.5 1q-97 0 -150 -2q-4 36 -4 57zM487 -139q0 23 23 61l582 971q223 370 354 620q49 0 90 -20t41 -59q0 -33 -23 -66l-581 -971q-241 -399 -355 -620q-50 2 -90.5 23.5t-40.5 60.5zM1118 309q0 14 2.5 30t7 34t5.5 26q89 132 210 275.5t207 214.5q50 43 172 43 q73 0 125 -10q-1 -10 -12 -76t-31 -190t-37 -250q93 6 134 24q10 -62 10 -90q0 -66 -36.5 -89t-131.5 -26q-12 -80 -12 -131q0 -46 10 -98q-62 -16 -109 -16q-74 0 -102.5 19t-28.5 62q0 11 4 35.5t10.5 63.5l10.5 63q-24 0 -98 1t-102.5 1.5t-75.5 3.5t-81 9q-51 10 -51 71 zM1352 399q39 -4 198 -4q15 129 43 303q-145 -157 -241 -299z" />
<glyph unicode="&#xbd;" horiz-adv-x="2101" d="M129 508q0 127 107 127h92q32 209 71 557q-86 -9 -172 -41q-10 33 -10 70q0 48 19.5 83.5t60.5 45.5q53 12 144 20t139 8q64 0 92 -26.5t28 -79.5q0 -33 -26 -166.5t-33 -183.5q-31 -213 -31 -291q74 0 148 8q6 -24 6 -55q0 -53 -19.5 -94t-60.5 -41q-13 0 -63.5 1 t-140 2t-197.5 1q-97 0 -150 -2q-4 36 -4 57zM487 -139q0 23 23 61l582 971q223 370 354 620q49 0 90 -20t41 -59q0 -33 -23 -66l-581 -971q-241 -399 -355 -620q-50 2 -90.5 23.5t-40.5 60.5zM1190 76q0 34 14 88q42 25 69.5 42t84.5 55.5t97 70t90.5 76.5t81.5 84t53 85 t22 87q0 73 -88 73q-50 0 -104 -36.5t-97 -112.5q-59 9 -88 36t-29 66q0 54 42.5 101t104.5 74.5t126 43t114 15.5q148 0 222.5 -62.5t74.5 -161.5q0 -46 -16 -92.5t-39 -84t-63.5 -78.5t-73.5 -69.5t-86 -65.5t-84.5 -57t-83.5 -52q35 -2 102 -2q63 0 97 1.5t90 10.5 t116 27q31 -65 31 -109q0 -38 -16.5 -68.5t-50.5 -40.5q-84 -24 -258 -24q-79 0 -193 2t-170 2q-51 0 -71.5 19.5t-20.5 56.5z" />
<glyph unicode="&#xbe;" horiz-adv-x="2062" d="M111 545q0 45 29.5 80t80.5 69q58 -96 189 -96q75 0 114 38t39 109q0 51 -43 84t-129 33q-53 0 -53 58q0 29 14 71q250 5 250 162q0 61 -80 61q-53 0 -113.5 -28.5t-89.5 -69.5q-77 21 -77 94q0 43 37 77.5t91.5 53t106.5 28t92 9.5q158 0 235 -51t77 -137 q0 -87 -52.5 -153t-142.5 -99q77 -26 113.5 -79t36.5 -120q0 -81 -36.5 -142.5t-100 -98t-142.5 -54.5t-170 -18q-30 0 -69.5 4.5t-89.5 16t-83.5 37t-33.5 61.5zM510 -139q0 25 22 61l582 971q223 370 354 620q49 0 90 -20t41 -59q0 -35 -22 -66l-582 -971 q-234 -387 -354 -620q-50 2 -90.5 23.5t-40.5 60.5zM1141 309q0 14 2.5 30t6.5 34.5t5 25.5q88 131 210 275t208 215q50 43 172 43q73 0 125 -10q-1 -10 -12 -76t-31 -190t-37 -250q92 6 133 24q10 -62 10 -90q0 -66 -36.5 -89t-131.5 -26q-12 -80 -12 -131q0 -46 10 -98 q-62 -16 -108 -16q-74 0 -102.5 19t-28.5 62q0 4 24 162q-24 0 -98 1t-102.5 1.5t-75 3.5t-80.5 9q-51 10 -51 71zM1374 399q39 -4 199 -4q15 129 43 303q-149 -161 -242 -299z" />
<glyph unicode="&#xbf;" horiz-adv-x="839" d="M0 -205q0 64 19 120t49.5 98t67.5 80t74 73t67.5 70t49.5 78.5t19 91.5q0 27 -6 57q87 43 149 43q79 0 115.5 -30.5t36.5 -78.5q0 -46 -19 -91t-49 -83.5t-66.5 -77l-73 -77t-66.5 -77t-49 -83.5t-19 -90q0 -41 25 -64.5t71 -23.5q49 0 98 42t70 111q166 -20 166 -119 q0 -65 -56 -114.5t-141 -74t-180 -24.5q-47 0 -93.5 7t-94 25t-83.5 44.5t-58.5 70t-22.5 97.5zM354 791q0 77 61.5 140.5t141.5 63.5q65 0 108.5 -42.5t43.5 -110.5q0 -80 -60 -145.5t-143 -65.5q-64 0 -108 46t-44 114z" />
<glyph unicode="&#xc0;" horiz-adv-x="1214" d="M-20 102q0 30 26.5 87t106.5 213t153 313q239 509 281 657q102 12 168 12q170 0 194 -133q89 -479 129 -651q91 -394 144 -571q-125 -49 -219 -49q-115 0 -134 81q-27 107 -63 330q-83 -6 -172 -6q-86 0 -174 6q-149 -355 -170 -418q-46 1 -88 6.5t-86 18.5t-70 39.5 t-26 64.5zM362 1786q0 96 119 156q30 -52 90.5 -106.5t112.5 -91t92.5 -81t40.5 -82.5q0 -37 -16 -60.5t-56 -54.5q-52 45 -128 94t-127.5 79t-89.5 69t-38 78zM498 588q66 -4 135 -4q77 0 106 4q-33 261 -53 536q-72 -238 -188 -536z" />
<glyph unicode="&#xc1;" horiz-adv-x="1214" d="M-20 102q0 30 26.5 87t106.5 213t153 313q239 509 281 657q102 12 168 12q170 0 194 -133q89 -479 129 -651q91 -394 144 -571q-125 -49 -219 -49q-115 0 -134 81q-27 107 -63 330q-83 -6 -172 -6q-86 0 -174 6q-149 -355 -170 -418q-46 1 -88 6.5t-86 18.5t-70 39.5 t-26 64.5zM498 588q66 -4 135 -4q77 0 106 4q-33 261 -53 536q-72 -238 -188 -536zM506 1581q0 35 34.5 67.5t90.5 61.5t117 59t126 74t105 94q35 -23 59.5 -66t24.5 -81q0 -31 -16 -60.5t-43 -46.5q-51 -31 -228.5 -105.5t-216.5 -111.5q-27 25 -40 58t-13 57z" />
<glyph unicode="&#xc2;" horiz-adv-x="1214" d="M-20 102q0 30 26.5 87t106.5 213t153 313q239 509 281 657q102 12 168 12q170 0 194 -133q89 -479 129 -651q91 -394 144 -571q-125 -49 -219 -49q-115 0 -134 81q-27 107 -63 330q-83 -6 -172 -6q-86 0 -174 6q-149 -355 -170 -418q-46 1 -88 6.5t-86 18.5t-70 39.5 t-26 64.5zM350 1552q82 83 187.5 169.5t199.5 146.5q45 -30 78 -53.5t73.5 -56t65.5 -60t42.5 -59.5t17.5 -60q0 -33 -38.5 -70t-96.5 -51q-38 57 -81.5 102.5t-67.5 62.5l-25 17q-210 -165 -259 -165q-34 0 -52.5 15t-43.5 62zM498 588q66 -4 135 -4q77 0 106 4 q-33 261 -53 536q-72 -238 -188 -536z" />
<glyph unicode="&#xc3;" horiz-adv-x="1214" d="M-20 102q0 30 26.5 87t106.5 213t153 313q239 509 281 657q102 12 168 12q170 0 194 -133q89 -479 129 -651q91 -394 144 -571q-125 -49 -219 -49q-115 0 -134 81q-27 107 -63 330q-83 -6 -172 -6q-86 0 -174 6q-149 -355 -170 -418q-46 1 -88 6.5t-86 18.5t-70 39.5 t-26 64.5zM346 1567q0 55 46 106.5t109.5 81t119.5 29.5q46 0 124.5 -44t112.5 -44q26 0 54.5 17.5t84.5 64.5q23 -4 43.5 -23.5t20.5 -48.5q0 -56 -45 -107.5t-108.5 -80.5t-121.5 -29q-46 0 -124 44t-111 44q-27 0 -54.5 -17t-86.5 -65q-64 27 -64 72zM498 588 q66 -4 135 -4q77 0 106 4q-33 261 -53 536q-72 -238 -188 -536z" />
<glyph unicode="&#xc4;" horiz-adv-x="1214" d="M-20 102q0 30 26.5 87t106.5 213t153 313q239 509 281 657q102 12 168 12q170 0 194 -133q89 -479 129 -651q91 -394 144 -571q-125 -49 -219 -49q-115 0 -134 81q-27 107 -63 330q-83 -6 -172 -6q-86 0 -174 6q-149 -355 -170 -418q-46 1 -88 6.5t-86 18.5t-70 39.5 t-26 64.5zM299 1630q0 76 53 136.5t140 60.5q70 0 109.5 -47t39.5 -113q0 -74 -50.5 -130t-141.5 -56q-71 0 -110.5 43.5t-39.5 105.5zM498 588q66 -4 135 -4q77 0 106 4q-33 261 -53 536q-72 -238 -188 -536zM766 1630q0 76 52.5 136.5t139.5 60.5q70 0 110 -47t40 -113 q0 -74 -51 -130t-142 -56q-71 0 -110 43t-39 106z" />
<glyph unicode="&#xc5;" horiz-adv-x="1214" d="M-20 102q0 30 26.5 87t106.5 213t153 313q239 509 281 657q102 12 168 12q170 0 194 -133q89 -479 129 -651q91 -394 144 -571q-125 -49 -219 -49q-115 0 -134 81q-27 107 -63 330q-83 -6 -172 -6q-86 0 -174 6q-149 -355 -170 -418q-46 1 -88 6.5t-86 18.5t-70 39.5 t-26 64.5zM498 588q66 -4 135 -4q77 0 106 4q-33 261 -53 536q-72 -238 -188 -536zM500 1700q0 110 72 194t186 84q89 0 139.5 -52.5t50.5 -143.5q0 -118 -68.5 -199.5t-185.5 -81.5q-89 0 -141.5 54t-52.5 145zM618 1724q0 -54 24 -87t67 -33q55 0 88.5 45.5t33.5 105.5 q0 55 -23 88t-65 33q-56 0 -90.5 -46.5t-34.5 -105.5z" />
<glyph unicode="&#xc6;" horiz-adv-x="1630" d="M-90 104q0 40 39 99q38 58 135 195.5t147 211.5q138 201 264.5 403.5t192.5 325.5q377 23 604 23q314 0 353 -39q16 -16 16 -57q0 -36 -12 -83t-27 -77q-94 43 -326 43q-66 0 -168 -6q-4 -87 -36 -312q264 0 338 9q4 -40 4 -72q0 -133 -91 -143q-49 -4 -282 -4 q-41 -330 -41 -414q58 -4 131 -4q109 0 223 13.5t148 31.5q16 -78 16 -115q0 -98 -72 -118.5t-323 -20.5q-313 0 -379 4q-50 3 -70 19.5t-20 52.5q0 60 35 317q-43 -2 -129 -2q-73 0 -191 4q-193 -290 -254 -409q-225 30 -225 124zM520 586q29 -2 98 -2q61 0 119 4 q53 412 54 418z" />
<glyph unicode="&#xc7;" horiz-adv-x="1163" d="M90 541q0 172 47 315.5t123 238t174.5 160t200 94.5t201.5 29q154 0 256 -65t102 -176q0 -60 -53.5 -98.5t-139.5 -47.5q-19 91 -75 135.5t-127 44.5q-109 0 -194 -85t-128 -216.5t-43 -281.5q0 -116 27 -204t90 -143t156 -55q65 0 124.5 43t102.5 119q65 -24 108 -60 t43 -79q0 -81 -119 -149.5t-288 -77.5q-10 -27 -10 -48q0 -19 22.5 -38.5t49 -35.5t49 -50t22.5 -78q0 -72 -55.5 -130.5t-132 -88t-150.5 -29.5q-64 0 -94.5 23.5t-30.5 60.5q0 50 62 119q24 -27 65 -27q33 0 52.5 22t19.5 54q0 31 -36 72t-36 69q0 47 35 115 q-198 35 -309 181t-111 368z" />
<glyph unicode="&#xc8;" horiz-adv-x="1067" d="M111 70q0 59 34.5 304t68.5 517.5t34 400.5q0 37 -2 51q255 19 483 19q313 0 352 -39q17 -17 17 -57q0 -36 -12 -83t-27 -77q-94 43 -326 43q-66 0 -168 -6q-4 -76 -37 -312q264 0 338 9q4 -40 4 -72q0 -134 -90 -143q-49 -4 -282 -4q-41 -330 -41 -414q58 -4 131 -4 q109 0 222.5 13.5t147.5 31.5q17 -83 17 -115q0 -98 -72 -118.5t-323 -20.5q-313 0 -379 4q-50 3 -70 19.5t-20 52.5zM387 1786q0 96 119 156q30 -52 90.5 -106.5t112.5 -91t92.5 -81t40.5 -82.5q0 -37 -16 -60.5t-56 -54.5q-52 45 -128 94t-127.5 79t-89.5 69t-38 78z" />
<glyph unicode="&#xc9;" horiz-adv-x="1067" d="M111 70q0 59 34.5 304t68.5 517.5t34 400.5q0 37 -2 51q255 19 483 19q313 0 352 -39q17 -17 17 -57q0 -36 -12 -83t-27 -77q-94 43 -326 43q-66 0 -168 -6q-4 -76 -37 -312q264 0 338 9q4 -40 4 -72q0 -134 -90 -143q-49 -4 -282 -4q-41 -330 -41 -414q58 -4 131 -4 q109 0 222.5 13.5t147.5 31.5q17 -83 17 -115q0 -98 -72 -118.5t-323 -20.5q-313 0 -379 4q-50 3 -70 19.5t-20 52.5zM530 1581q0 35 34.5 67.5t91 61.5t117.5 59t126 74t105 94q35 -23 59 -66t24 -81q0 -31 -16 -60.5t-43 -46.5q-51 -31 -228 -105.5t-216 -111.5 q-27 25 -40.5 58t-13.5 57z" />
<glyph unicode="&#xca;" horiz-adv-x="1067" d="M111 70q0 59 34.5 304t68.5 517.5t34 400.5q0 37 -2 51q255 19 483 19q313 0 352 -39q17 -17 17 -57q0 -36 -12 -83t-27 -77q-94 43 -326 43q-66 0 -168 -6q-4 -76 -37 -312q264 0 338 9q4 -40 4 -72q0 -134 -90 -143q-49 -4 -282 -4q-41 -330 -41 -414q58 -4 131 -4 q109 0 222.5 13.5t147.5 31.5q17 -83 17 -115q0 -98 -72 -118.5t-323 -20.5q-313 0 -379 4q-50 3 -70 19.5t-20 52.5zM375 1552q82 83 187.5 169.5t199.5 146.5q58 -38 98.5 -68t85.5 -69.5t68.5 -78t23.5 -73.5q0 -33 -38.5 -70t-96.5 -51q-38 57 -81.5 102.5t-67.5 62.5 l-25 17q-210 -165 -258 -165q-34 0 -52.5 15t-43.5 62z" />
<glyph unicode="&#xcb;" horiz-adv-x="1101" d="M111 70q0 59 34.5 304t68.5 517.5t34 400.5q0 37 -2 51q255 19 483 19q313 0 352 -39q17 -17 17 -57q0 -36 -12 -83t-27 -77q-94 43 -326 43q-66 0 -168 -6q-4 -76 -37 -312q264 0 338 9q4 -40 4 -72q0 -134 -90 -143q-49 -4 -282 -4q-41 -330 -41 -414q58 -4 131 -4 q109 0 222.5 13.5t147.5 31.5q17 -83 17 -115q0 -98 -72 -118.5t-323 -20.5q-313 0 -379 4q-50 3 -70 19.5t-20 52.5zM324 1630q0 76 52.5 136.5t139.5 60.5q70 0 110 -47t40 -113q0 -74 -51 -130t-142 -56q-71 0 -110 43t-39 106zM791 1630q0 76 52.5 136.5t139.5 60.5 q70 0 110 -47t40 -113q0 -74 -51 -130t-142 -56q-71 0 -110 43t-39 106z" />
<glyph unicode="&#xcc;" horiz-adv-x="622" d="M111 121q0 14 10 86t37 268t55 420q39 327 45 457q63 12 164 12q168 0 168 -109q0 -10 -9.5 -65t-27 -164t-31.5 -223l-51 -395q-25 -183 -25 -271q0 -63 9 -121q-68 -22 -187 -22q-85 0 -121 31t-36 96zM154 1786q0 97 118 156q30 -52 90.5 -106.5t112.5 -91t92.5 -81 t40.5 -82.5q0 -37 -15.5 -60.5t-55.5 -54.5q-52 45 -128 94t-127.5 79t-89.5 69t-38 78z" />
<glyph unicode="&#xcd;" horiz-adv-x="622" d="M111 121q0 14 10 86t37 268t55 420q39 327 45 457q63 12 164 12q168 0 168 -109q0 -10 -9.5 -65t-27 -164t-31.5 -223l-51 -395q-25 -183 -25 -271q0 -63 9 -121q-68 -22 -187 -22q-85 0 -121 31t-36 96zM256 1581q0 35 34.5 67.5t90.5 61.5t117 59t126 74t105 94 q35 -23 59.5 -66t24.5 -81q0 -31 -16 -60.5t-43 -46.5q-51 -31 -228.5 -105.5t-216.5 -111.5q-27 25 -40 58t-13 57z" />
<glyph unicode="&#xce;" horiz-adv-x="622" d="M100 1552q82 83 187.5 169.5t199.5 146.5q45 -30 78 -53.5t73.5 -56t65.5 -60t42.5 -59.5t17.5 -60q0 -33 -38.5 -70t-96.5 -51q-38 57 -81.5 102.5t-67.5 62.5l-25 17q-210 -165 -258 -165q-34 0 -53 15t-44 62zM111 121q0 14 10 86t37 268t55 420q39 327 45 457 q63 12 164 12q168 0 168 -109q0 -10 -9.5 -65t-27 -164t-31.5 -223l-51 -395q-25 -183 -25 -271q0 -63 9 -121q-68 -22 -187 -22q-85 0 -121 31t-36 96z" />
<glyph unicode="&#xcf;" horiz-adv-x="622" d="M49 1630q0 76 53 136.5t140 60.5q70 0 109.5 -47t39.5 -113q0 -74 -50.5 -130t-141.5 -56q-71 0 -110.5 43.5t-39.5 105.5zM111 121q0 14 10 86t37 268t55 420q39 327 45 457q63 12 164 12q168 0 168 -109q0 -10 -9.5 -65t-27 -164t-31.5 -223l-51 -395 q-25 -183 -25 -271q0 -63 9 -121q-68 -22 -187 -22q-85 0 -121 31t-36 96zM516 1630q0 76 53 136.5t140 60.5q70 0 109.5 -47t39.5 -113q0 -74 -50.5 -130t-141.5 -56q-71 0 -110.5 43.5t-39.5 105.5z" />
<glyph unicode="&#xd0;" horiz-adv-x="1460" d="M74 684q0 134 90 143q62 4 141 4q35 278 41 523q39 7 153.5 15.5t200.5 8.5q125 0 229.5 -16.5t198 -56.5t158 -102t102 -157.5t37.5 -218.5q0 -130 -33 -253t-99.5 -231t-160 -189t-223 -127.5t-278.5 -46.5q-301 0 -447 129q45 206 92 512q-127 0 -198 -9q-4 40 -4 72z M530 238q73 -52 189 -52q82 0 147.5 39.5t106.5 101t68 142.5t38 158.5t11 154.5q0 193 -89.5 291t-255.5 98q-29 0 -83 -4q-7 -108 -35 -336q242 0 313 9q4 -40 4 -72q0 -134 -90 -143q-47 -4 -256 -4q-31 -209 -68 -383z" />
<glyph unicode="&#xd1;" horiz-adv-x="1327" d="M111 117q0 18 9 79.5t23 152.5t21 149q15 125 39 303t33 266t10 166q0 64 -8 108q80 25 157 25q141 0 203 -100q21 -33 48 -90t61.5 -140t61.5 -149t70 -174.5t64 -159.5l35 326q39 347 47 473q64 12 137 12t122.5 -28t49.5 -93q0 -14 -12 -81t-29.5 -171.5t-27.5 -187.5 q-11 -87 -28.5 -222t-27.5 -213.5t-20 -178t-14 -179.5q-59 -16 -127 -16q-150 0 -189 92q-50 113 -152.5 394t-158.5 413q-82 -620 -82 -764q0 -41 8 -111q-68 -24 -155 -24q-94 0 -131 30t-37 93zM469 1567q0 55 45.5 106.5t109 81t119.5 29.5q46 0 125 -44t113 -44 q26 0 54.5 17.5t84.5 64.5q23 -4 43.5 -23.5t20.5 -48.5q0 -56 -45 -107.5t-108.5 -80.5t-121.5 -29q-46 0 -124 44t-111 44q-27 0 -55.5 -17.5t-86.5 -64.5q-63 26 -63 72z" />
<glyph unicode="&#xd2;" horiz-adv-x="1376" d="M90 539q0 175 52 329t144.5 266.5t228 178t294.5 65.5q250 0 391 -147.5t141 -407.5q0 -170 -51.5 -323.5t-144 -268.5t-230 -183t-299.5 -68q-247 0 -386.5 150.5t-139.5 408.5zM434 604q0 -85 13 -157.5t40.5 -132.5t75 -94t111.5 -34q99 0 174 84.5t111 214.5t36 281 q0 82 -13 152t-40.5 128t-75.5 91.5t-112 33.5q-95 0 -169 -78.5t-112.5 -207t-38.5 -281.5zM498 1786q0 97 118 156q30 -52 90.5 -106.5t112.5 -91t92.5 -81t40.5 -82.5q0 -37 -15.5 -60.5t-55.5 -54.5q-52 45 -128 94t-127.5 79t-89.5 69t-38 78z" />
<glyph unicode="&#xd3;" horiz-adv-x="1376" d="M90 539q0 175 52 329t144.5 266.5t228 178t294.5 65.5q250 0 391 -147.5t141 -407.5q0 -170 -51.5 -323.5t-144 -268.5t-230 -183t-299.5 -68q-247 0 -386.5 150.5t-139.5 408.5zM434 604q0 -85 13 -157.5t40.5 -132.5t75 -94t111.5 -34q99 0 174 84.5t111 214.5t36 281 q0 82 -13 152t-40.5 128t-75.5 91.5t-112 33.5q-95 0 -169 -78.5t-112.5 -207t-38.5 -281.5zM641 1581q0 35 34.5 67.5t90.5 61.5t117 59t126 74t105 94q35 -23 59.5 -66t24.5 -81q0 -31 -16 -60.5t-43 -46.5q-51 -31 -228.5 -105.5t-216.5 -111.5q-27 25 -40 58t-13 57z " />
<glyph unicode="&#xd4;" horiz-adv-x="1376" d="M90 539q0 175 52 329t144.5 266.5t228 178t294.5 65.5q250 0 391 -147.5t141 -407.5q0 -170 -51.5 -323.5t-144 -268.5t-230 -183t-299.5 -68q-247 0 -386.5 150.5t-139.5 408.5zM434 604q0 -85 13 -157.5t40.5 -132.5t75 -94t111.5 -34q99 0 174 84.5t111 214.5t36 281 q0 82 -13 152t-40.5 128t-75.5 91.5t-112 33.5q-95 0 -169 -78.5t-112.5 -207t-38.5 -281.5zM485 1552q82 83 187.5 169.5t199.5 146.5q45 -30 78 -53.5t73.5 -56t65.5 -60t42.5 -59.5t17.5 -60q0 -33 -38.5 -70t-96.5 -51q-38 57 -81.5 102.5t-68.5 62.5l-24 17 q-210 -165 -258 -165q-34 0 -53 15t-44 62z" />
<glyph unicode="&#xd5;" horiz-adv-x="1376" d="M90 539q0 175 52 329t144.5 266.5t228 178t294.5 65.5q250 0 391 -147.5t141 -407.5q0 -170 -51.5 -323.5t-144 -268.5t-230 -183t-299.5 -68q-247 0 -386.5 150.5t-139.5 408.5zM434 604q0 -85 13 -157.5t40.5 -132.5t75 -94t111.5 -34q99 0 174 84.5t111 214.5t36 281 q0 82 -13 152t-40.5 128t-75.5 91.5t-112 33.5q-95 0 -169 -78.5t-112.5 -207t-38.5 -281.5zM481 1567q0 55 46 106.5t109.5 81t119.5 29.5q46 0 124.5 -44t112.5 -44q26 0 55.5 18t84.5 64q22 -4 42.5 -23.5t20.5 -48.5q0 -56 -44.5 -107.5t-108 -80.5t-121.5 -29 q-46 0 -124.5 44t-111.5 44q-27 0 -54.5 -17t-86.5 -65q-64 27 -64 72z" />
<glyph unicode="&#xd6;" horiz-adv-x="1376" d="M90 539q0 175 52 329t144.5 266.5t228 178t294.5 65.5q250 0 391 -147.5t141 -407.5q0 -170 -51.5 -323.5t-144 -268.5t-230 -183t-299.5 -68q-247 0 -386.5 150.5t-139.5 408.5zM434 604q0 -85 13 -157.5t40.5 -132.5t75 -94t111.5 -34q99 0 174 84.5t111 214.5t36 281 q0 82 -13 152t-40.5 128t-75.5 91.5t-112 33.5q-95 0 -169 -78.5t-112.5 -207t-38.5 -281.5zM434 1630q0 76 53 136.5t140 60.5q70 0 109.5 -47t39.5 -113q0 -74 -50.5 -130t-141.5 -56q-71 0 -110.5 43.5t-39.5 105.5zM901 1630q0 76 53 136.5t140 60.5q70 0 109.5 -47 t39.5 -113q0 -74 -50.5 -130t-141.5 -56q-71 0 -110.5 43.5t-39.5 105.5z" />
<glyph unicode="&#xd7;" d="M119 815q73 111 147 111q40 0 70 -33q15 -15 95 -107.5t165 -183.5q1 1 32 34t65 70t76 83.5t82.5 93t68.5 80.5q41 -23 74.5 -65t33.5 -85q0 -37 -31 -68q-37 -39 -137 -127t-147 -135q31 -31 153 -141t201 -172q-69 -109 -149 -109q-37 0 -68 31q-41 39 -127 135 t-129 140q-117 -116 -183.5 -188t-142.5 -167q-38 27 -55.5 41t-36 44.5t-18.5 64.5q0 39 28 67q14 14 104 90.5t185 165.5q-216 210 -356 330z" />
<glyph unicode="&#xd8;" horiz-adv-x="1376" d="M90 539q0 175 52 329t144.5 267.5t228 179t294.5 65.5q146 0 262 -55q23 38 63 106t56 95q48 -2 81.5 -24.5t33.5 -59.5q0 -24 -25 -66l-90 -135q151 -148 151 -418q0 -170 -51.5 -323.5t-144 -268.5t-230 -183t-299.5 -68q-126 0 -221 36l-108 -188q-49 2 -82 25t-33 59 q0 26 25 65l73 113q-180 148 -180 449zM434 604q0 -120 27 -219l457 700q-63 86 -164 86q-95 0 -169 -78.5t-112.5 -207t-38.5 -281.5zM539 242q56 -56 135 -56q99 0 174 84.5t111 214.5t36 281q0 87 -14 156z" />
<glyph unicode="&#xd9;" horiz-adv-x="1359" d="M145 322q0 49 51.5 433.5t61.5 594.5q63 14 164 14q168 0 168 -109q0 -6 -8 -55.5t-23.5 -148t-28.5 -189.5q-61 -395 -61 -467q0 -51 10 -90t38.5 -67.5t72.5 -28.5q78 0 172 100.5t143 251.5q82 612 90 791q63 12 164 12q168 0 168 -109q0 -10 -9.5 -65t-26.5 -164.5 t-31 -222.5l-50 -395q-24 -176 -24 -271q0 -69 8 -121q-74 -22 -188 -22q-95 0 -126.5 34t-31.5 105q0 5 2.5 24t7.5 52t8 61q-88 -140 -205 -215t-229 -75q-93 0 -159.5 48.5t-97 124.5t-30.5 169zM518 1786q0 96 119 156q30 -52 90.5 -106.5t112.5 -91t92.5 -81 t40.5 -82.5q0 -37 -16 -60.5t-56 -54.5q-52 45 -128 94t-127.5 79t-89.5 69t-38 78z" />
<glyph unicode="&#xda;" horiz-adv-x="1359" d="M145 322q0 49 51.5 433.5t61.5 594.5q63 14 164 14q168 0 168 -109q0 -6 -8 -55.5t-23.5 -148t-28.5 -189.5q-61 -395 -61 -467q0 -51 10 -90t38.5 -67.5t72.5 -28.5q78 0 172 100.5t143 251.5q82 612 90 791q63 12 164 12q168 0 168 -109q0 -10 -9.5 -65t-26.5 -164.5 t-31 -222.5l-50 -395q-24 -176 -24 -271q0 -69 8 -121q-74 -22 -188 -22q-95 0 -126.5 34t-31.5 105q0 5 2.5 24t7.5 52t8 61q-88 -140 -205 -215t-229 -75q-93 0 -159.5 48.5t-97 124.5t-30.5 169zM662 1581q0 35 34.5 67.5t90.5 61.5t117 59t126 74t105 94 q35 -23 59.5 -66t24.5 -81q0 -31 -16.5 -60.5t-43.5 -46.5q-51 -31 -228 -105.5t-216 -111.5q-27 25 -40 58t-13 57z" />
<glyph unicode="&#xdb;" horiz-adv-x="1359" d="M145 322q0 49 51.5 433.5t61.5 594.5q63 14 164 14q168 0 168 -109q0 -6 -8 -55.5t-23.5 -148t-28.5 -189.5q-61 -395 -61 -467q0 -51 10 -90t38.5 -67.5t72.5 -28.5q78 0 172 100.5t143 251.5q82 612 90 791q63 12 164 12q168 0 168 -109q0 -10 -9.5 -65t-26.5 -164.5 t-31 -222.5l-50 -395q-24 -176 -24 -271q0 -69 8 -121q-74 -22 -188 -22q-95 0 -126.5 34t-31.5 105q0 5 2.5 24t7.5 52t8 61q-88 -140 -205 -215t-229 -75q-93 0 -159.5 48.5t-97 124.5t-30.5 169zM506 1552q82 83 187.5 169.5t199.5 146.5q58 -38 98.5 -68t85.5 -69.5 t68.5 -78t23.5 -73.5q0 -33 -38.5 -70t-96.5 -51q-38 57 -81.5 102.5t-68.5 62.5l-24 17q-210 -165 -258 -165q-34 0 -52.5 15t-43.5 62z" />
<glyph unicode="&#xdc;" horiz-adv-x="1359" d="M145 322q0 49 51.5 433.5t61.5 594.5q63 14 164 14q168 0 168 -109q0 -6 -8 -55.5t-23.5 -148t-28.5 -189.5q-61 -395 -61 -467q0 -51 10 -90t38.5 -67.5t72.5 -28.5q78 0 172 100.5t143 251.5q82 612 90 791q63 12 164 12q168 0 168 -109q0 -10 -9.5 -65t-26.5 -164.5 t-31 -222.5l-50 -395q-24 -176 -24 -271q0 -69 8 -121q-74 -22 -188 -22q-95 0 -126.5 34t-31.5 105q0 5 2.5 24t7.5 52t8 61q-88 -140 -205 -215t-229 -75q-93 0 -159.5 48.5t-97 124.5t-30.5 169zM455 1630q0 76 52.5 136.5t139.5 60.5q70 0 110 -47t40 -113 q0 -74 -51 -130t-142 -56q-71 0 -110 43t-39 106zM922 1630q0 76 52.5 136.5t139.5 60.5q70 0 110 -47t40 -113q0 -74 -51 -130t-142 -56q-71 0 -110 43t-39 106z" />
<glyph unicode="&#xdd;" horiz-adv-x="1042" d="M92 1247q70 67 118 94t105 27q52 0 85 -19.5t55 -76.5q86 -227 163 -475q74 115 166 311t101 268q135 0 203.5 -30.5t68.5 -98.5q0 -103 -452 -669l-21 -170q-2 -20 -7.5 -65t-9 -71.5t-6 -64.5t-2.5 -70q0 -63 9 -121q-68 -22 -187 -22q-85 0 -121 31t-36 96 q0 11 6 56.5t22.5 164.5t32.5 236q-79 249 -157 431t-136 238zM551 1581q0 35 34.5 67.5t90.5 61.5t117 59t126 74t105 94q35 -23 59.5 -66t24.5 -81q0 -31 -16 -60.5t-43 -46.5q-51 -31 -228.5 -105.5t-216.5 -111.5q-27 25 -40 58t-13 57z" />
<glyph unicode="&#xde;" horiz-adv-x="1097" d="M94 121q0 13 10.5 85.5t37 267.5t55.5 421q39 327 45 457q63 12 164 12q167 0 167 -109q0 -6 -14 -88q84 -1 155.5 -11.5t140 -37.5t116.5 -68.5t77 -108.5t29 -153q0 -128 -38.5 -234t-101 -171.5t-137.5 -101t-153 -35.5q-57 0 -113.5 21t-91.5 61q-12 -95 -12 -191 q0 -69 8 -121q-68 -22 -186 -22q-85 0 -121.5 31t-36.5 96zM465 494q70 -41 119 -41q81 0 129.5 87.5t48.5 225.5q0 111 -39 154t-111 43q-16 0 -86 -9q-10 -58 -20 -151z" />
<glyph unicode="&#xdf;" horiz-adv-x="1173" d="M-59 -150q60 41 112 280.5t113 821.5q10 88 50.5 161t98.5 121t130 81.5t143.5 48t140.5 14.5q161 0 241.5 -62.5t80.5 -158.5q0 -59 -19.5 -109t-48.5 -81.5t-63.5 -62t-63.5 -52.5t-48.5 -51t-19.5 -60t23 -63t58 -59.5t75 -63.5t75 -73t58 -89.5t23 -111.5 q0 -126 -116.5 -213.5t-285.5 -87.5q-109 0 -189.5 52t-80.5 132q0 112 158 127q3 -55 36 -85t76 -30q44 0 74.5 36t30.5 87q0 37 -22.5 70t-56 57t-73 53t-73 56t-56 67t-22.5 86q0 45 24 85t58.5 71t68.5 64t58 80t24 104q0 42 -23 67t-67 25q-60 0 -114 -47t-64 -142 q-97 -888 -139 -1065q-22 -93 -78 -142.5t-125 -49.5q-113 0 -182 112z" />
<glyph unicode="&#xe0;" horiz-adv-x="1112" d="M72 344q0 93 22 184.5t67 174.5t108.5 146.5t154 101.5t194.5 38q210 0 408 -135q-29 -139 -44.5 -216.5t-31.5 -192t-16 -191.5t65 -119q-53 -155 -204 -155q-85 0 -121.5 45.5t-36.5 136.5q0 33 2 51q-57 -113 -139 -173t-170 -60q-114 0 -186 93.5t-72 270.5z M332 1391q0 95 119 155q30 -52 90.5 -106.5t112.5 -91t92 -80.5t40 -82q0 -37 -15.5 -60.5t-55.5 -54.5q-52 45 -128 94t-127.5 79t-89.5 69t-38 78zM395 401q0 -103 23 -171t65 -68q39 0 88.5 62.5t81.5 162.5l52 346q-62 74 -125 74q-45 0 -81.5 -37t-58.5 -97 t-33.5 -130.5t-11.5 -141.5z" />
<glyph unicode="&#xe1;" horiz-adv-x="1118" d="M72 344q0 93 22 184.5t67 174.5t108.5 146.5t154 101.5t194.5 38q210 0 408 -135q-29 -139 -44.5 -216.5t-31.5 -192t-16 -191.5t65 -119q-53 -155 -204 -155q-85 0 -121.5 45.5t-36.5 136.5q0 33 2 51q-57 -113 -139 -173t-170 -60q-114 0 -186 93.5t-72 270.5zM395 401 q0 -103 23 -171t65 -68q39 0 88.5 62.5t81.5 162.5l52 346q-62 74 -125 74q-45 0 -81.5 -37t-58.5 -97t-33.5 -130.5t-11.5 -141.5zM475 1186q0 35 34.5 67.5t90.5 61.5t117 59t126 74t105 94q35 -23 59.5 -66t24.5 -81q0 -31 -16 -60.5t-43 -46.5q-51 -31 -228.5 -105.5 t-216.5 -111.5q-27 25 -40 58t-13 57z" />
<glyph unicode="&#xe2;" horiz-adv-x="1112" d="M72 344q0 93 22 184.5t67 174.5t108.5 146.5t154 101.5t194.5 38q210 0 408 -135q-29 -139 -44.5 -216.5t-31.5 -192t-16 -191.5t65 -119q-53 -155 -204 -155q-85 0 -121.5 45.5t-36.5 136.5q0 33 2 51q-57 -113 -139 -173t-170 -60q-114 0 -186 93.5t-72 270.5z M319 1157q81 83 187.5 169.5t200.5 146.5q58 -38 98.5 -68t85.5 -69.5t68.5 -78t23.5 -73.5q0 -33 -38.5 -70t-96.5 -51q-38 57 -81.5 102.5t-68.5 62.5l-24 17q-211 -166 -258 -166q-34 0 -53 15.5t-44 62.5zM395 401q0 -103 23 -171t65 -68q39 0 88.5 62.5t81.5 162.5 l52 346q-62 74 -125 74q-45 0 -81.5 -37t-58.5 -97t-33.5 -130.5t-11.5 -141.5z" />
<glyph unicode="&#xe3;" horiz-adv-x="1116" d="M72 344q0 93 22 184.5t67 174.5t108.5 146.5t154 101.5t194.5 38q210 0 408 -135q-29 -139 -44.5 -216.5t-31.5 -192t-16 -191.5t65 -119q-53 -155 -204 -155q-85 0 -121.5 45.5t-36.5 136.5q0 33 2 51q-57 -113 -139 -173t-170 -60q-114 0 -186 93.5t-72 270.5z M315 1171q0 55 46 106.5t109.5 81.5t119.5 30q46 0 124.5 -44.5t112.5 -44.5q26 0 55.5 18t84.5 64q23 -4 43 -23t20 -48q0 -56 -44.5 -107.5t-108 -80.5t-121.5 -29q-46 0 -124.5 44t-111.5 44q-27 0 -54.5 -17t-86.5 -65q-64 27 -64 71zM395 401q0 -103 23 -171t65 -68 q39 0 88.5 62.5t81.5 162.5l52 346q-62 74 -125 74q-45 0 -81.5 -37t-58.5 -97t-33.5 -130.5t-11.5 -141.5z" />
<glyph unicode="&#xe4;" horiz-adv-x="1163" d="M72 344q0 93 22 184.5t67 174.5t108.5 146.5t154 101.5t194.5 38q210 0 408 -135q-29 -139 -44.5 -216.5t-31.5 -192t-16 -191.5t65 -119q-53 -155 -204 -155q-85 0 -121.5 45.5t-36.5 136.5q0 33 2 51q-57 -113 -139 -173t-170 -60q-114 0 -186 93.5t-72 270.5z M268 1235q0 76 53 136.5t140 60.5q70 0 109.5 -47t39.5 -113q0 -74 -50.5 -130.5t-141.5 -56.5q-71 0 -110.5 43.5t-39.5 106.5zM395 401q0 -103 23 -171t65 -68q39 0 88.5 62.5t81.5 162.5l52 346q-62 74 -125 74q-45 0 -81.5 -37t-58.5 -97t-33.5 -130.5t-11.5 -141.5z M735 1235q0 76 53 136.5t140 60.5q70 0 109.5 -47t39.5 -113q0 -74 -50.5 -130.5t-141.5 -56.5q-71 0 -110.5 43.5t-39.5 106.5z" />
<glyph unicode="&#xe5;" horiz-adv-x="1112" d="M72 344q0 93 22 184.5t67 174.5t108.5 146.5t154 101.5t194.5 38q210 0 408 -135q-29 -139 -44.5 -216.5t-31.5 -192t-16 -191.5t65 -119q-53 -155 -204 -155q-85 0 -121.5 45.5t-36.5 136.5q0 33 2 51q-57 -113 -139 -173t-170 -60q-114 0 -186 93.5t-72 270.5zM395 401 q0 -103 23 -171t65 -68q39 0 88.5 62.5t81.5 162.5l52 346q-62 74 -125 74q-45 0 -81.5 -37t-58.5 -97t-33.5 -130.5t-11.5 -141.5zM469 1305q0 110 72 194t186 84q89 0 140 -53t51 -144q0 -118 -68.5 -199t-185.5 -81q-89 0 -142 54t-53 145zM588 1329q0 -54 23.5 -87.5 t66.5 -33.5q56 0 89.5 46t33.5 106q0 55 -23 88t-65 33q-56 0 -90.5 -46.5t-34.5 -105.5z" />
<glyph unicode="&#xe6;" horiz-adv-x="1542" d="M72 344q0 93 22 184.5t67 174.5t108.5 146.5t154 101.5t194.5 38q159 0 293 -96q143 96 299 96q122 0 206.5 -67.5t84.5 -188.5q0 -186 -130.5 -290.5t-328.5 -104.5q-25 0 -61 4q6 -91 52.5 -134.5t119.5 -43.5q53 0 98.5 21t85.5 83q48 -23 77.5 -55.5t29.5 -67.5 q0 -71 -101.5 -118t-238.5 -47q-94 0 -175.5 23t-151.5 80.5t-99 143.5q-40 -71 -87.5 -122t-94 -77t-86.5 -37t-80 -11q-114 0 -186 93.5t-72 270.5zM395 401q0 -103 23 -171t65 -68q39 0 88.5 62.5t81.5 162.5l4 12q8 185 99 330q-96 80 -166 80q-63 0 -108 -57.5 t-66 -148t-21 -202.5zM981 508q25 1 41.5 3t46 13.5t47.5 31t32.5 59t14.5 94.5q0 43 -15.5 71.5t-43.5 28.5q-46 0 -81.5 -84.5t-41.5 -216.5z" />
<glyph unicode="&#xe7;" horiz-adv-x="935" d="M51 377q0 120 34.5 222.5t91.5 173.5t132 121.5t155 74.5t161 24q42 0 89 -10t93.5 -30t77 -58t30.5 -86q0 -62 -59.5 -110.5t-150.5 -55.5q-7 81 -44.5 119.5t-78.5 38.5q-93 0 -151 -112t-58 -265q0 -130 46.5 -195t117.5 -65q43 0 90 36t78 93q66 -24 95 -54t29 -79 q0 -74 -79.5 -125.5t-229.5 -54.5q-10 -23 -10 -46q0 -19 22.5 -38.5t49 -35.5t49 -50t22.5 -78q0 -72 -55.5 -130.5t-132 -88t-150.5 -29.5q-64 0 -94.5 23.5t-30.5 60.5q0 50 62 119q24 -27 65 -27q33 0 52.5 22t19.5 54q0 31 -36 72t-36 69q0 47 37 119q-141 32 -222 127 t-81 254z" />
<glyph unicode="&#xe8;" horiz-adv-x="956" d="M51 336q0 98 26.5 194t78 179t121 147t163 100.5t197.5 36.5q117 0 197.5 -65t80.5 -180q0 -122 -65.5 -211t-172.5 -132t-241 -43q-16 0 -61 5q0 -108 44.5 -155.5t117.5 -47.5q107 0 182 110q46 -23 77 -57.5t31 -69.5q0 -72 -105.5 -119.5t-242.5 -47.5 q-65 0 -124.5 11.5t-115.5 38.5t-97 67t-66 101.5t-25 137.5zM238 1391q0 96 118 155q30 -52 90.5 -106.5t112.5 -91t92.5 -80.5t40.5 -82q0 -37 -15.5 -60.5t-55.5 -54.5q-52 45 -128 94t-127.5 79t-89.5 69t-38 78zM383 498q10 -2 31 -2q82 0 129 68t47 159q0 36 -20.5 61 t-47.5 25q-48 0 -88.5 -84.5t-50.5 -226.5z" />
<glyph unicode="&#xe9;" horiz-adv-x="978" d="M51 336q0 98 26.5 194t78 179t121 147t163 100.5t197.5 36.5q117 0 197.5 -65t80.5 -180q0 -122 -65.5 -211t-172.5 -132t-241 -43q-16 0 -61 5q0 -108 44.5 -155.5t117.5 -47.5q107 0 182 110q46 -23 77 -57.5t31 -69.5q0 -72 -105.5 -119.5t-242.5 -47.5 q-65 0 -124.5 11.5t-115.5 38.5t-97 67t-66 101.5t-25 137.5zM381 1186q0 35 34.5 67.5t90.5 61.5t117 59t126 74t105 94q35 -23 59.5 -66t24.5 -81q0 -31 -16 -60.5t-43 -46.5q-51 -31 -228.5 -105.5t-216.5 -111.5q-27 25 -40 58t-13 57zM383 498q10 -2 31 -2q82 0 129 68 t47 159q0 36 -20.5 61t-47.5 25q-48 0 -88.5 -84.5t-50.5 -226.5z" />
<glyph unicode="&#xea;" horiz-adv-x="956" d="M51 336q0 98 26.5 194t78 179t121 147t163 100.5t197.5 36.5q117 0 197.5 -65t80.5 -180q0 -122 -65.5 -211t-172.5 -132t-241 -43q-16 0 -61 5q0 -108 44.5 -155.5t117.5 -47.5q107 0 182 110q46 -23 77 -57.5t31 -69.5q0 -72 -105.5 -119.5t-242.5 -47.5 q-65 0 -124.5 11.5t-115.5 38.5t-97 67t-66 101.5t-25 137.5zM225 1157q82 83 187.5 169.5t199.5 146.5q45 -30 78 -53.5t73.5 -56t65.5 -60t42.5 -59.5t17.5 -60q0 -33 -38.5 -70t-96.5 -51q-38 57 -81.5 102.5t-68.5 62.5l-24 17q-211 -166 -258 -166q-34 0 -53 15.5 t-44 62.5zM383 498q10 -2 31 -2q82 0 129 68t47 159q0 36 -20.5 61t-47.5 25q-48 0 -88.5 -84.5t-50.5 -226.5z" />
<glyph unicode="&#xeb;" horiz-adv-x="1024" d="M51 336q0 98 26.5 194t78 179t121 147t163 100.5t197.5 36.5q117 0 197.5 -65t80.5 -180q0 -122 -65.5 -211t-172.5 -132t-241 -43q-16 0 -61 5q0 -108 44.5 -155.5t117.5 -47.5q107 0 182 110q46 -23 77 -57.5t31 -69.5q0 -72 -105.5 -119.5t-242.5 -47.5 q-65 0 -124.5 11.5t-115.5 38.5t-97 67t-66 101.5t-25 137.5zM174 1235q0 76 53 136.5t140 60.5q70 0 109.5 -47t39.5 -113q0 -74 -50.5 -130.5t-141.5 -56.5q-71 0 -110.5 43.5t-39.5 106.5zM383 498q10 -2 31 -2q82 0 129 68t47 159q0 36 -20.5 61t-47.5 25 q-48 0 -88.5 -84.5t-50.5 -226.5zM641 1235q0 76 53 136.5t140 60.5q70 0 109.5 -47t39.5 -113q0 -74 -50.5 -130.5t-141.5 -56.5q-71 0 -110.5 43.5t-39.5 106.5z" />
<glyph unicode="&#xec;" horiz-adv-x="579" d="M53 1391q0 95 119 155q30 -52 90.5 -106.5t112.5 -91t92.5 -80.5t40.5 -82q0 -37 -16 -60.5t-56 -54.5q-52 45 -128 94t-127.5 79t-89.5 69t-38 78zM78 166q0 96 46 302.5t46 258.5q0 37 -16 64.5t-48 31.5q11 72 73 121t151 49q155 0 155 -184q0 -81 -45 -290.5 t-45 -258.5q0 -80 66 -123q-28 -79 -84.5 -118t-124.5 -39q-77 0 -125.5 42.5t-48.5 143.5z" />
<glyph unicode="&#xed;" horiz-adv-x="579" d="M78 166q0 96 46 302.5t46 258.5q0 37 -16 64.5t-48 31.5q11 72 73 121t151 49q155 0 155 -184q0 -81 -45 -290.5t-45 -258.5q0 -80 66 -123q-28 -79 -84.5 -118t-124.5 -39q-77 0 -125.5 42.5t-48.5 143.5zM94 1186q0 35 34.5 67.5t90.5 61.5t117 59t126 74t105 94 q35 -23 59.5 -66t24.5 -81q0 -31 -16 -60.5t-43 -46.5q-51 -31 -228.5 -105.5t-216.5 -111.5q-27 25 -40 58t-13 57z" />
<glyph unicode="&#xee;" horiz-adv-x="579" d="M-31 1157q82 83 187.5 169.5t199.5 146.5q45 -30 78 -53.5t73.5 -56t65.5 -60t42.5 -59.5t17.5 -60q0 -33 -38.5 -70t-96.5 -51q-38 57 -81.5 102.5t-68.5 62.5l-24 17q-211 -166 -258 -166q-34 0 -53 15.5t-44 62.5zM78 166q0 96 46 302.5t46 258.5q0 37 -16 64.5 t-48 31.5q11 72 73 121t151 49q155 0 155 -184q0 -81 -45 -290.5t-45 -258.5q0 -80 66 -123q-28 -79 -84.5 -118t-124.5 -39q-77 0 -125.5 42.5t-48.5 143.5z" />
<glyph unicode="&#xef;" horiz-adv-x="579" d="M-70 1235q0 76 53 136.5t140 60.5q70 0 109.5 -47t39.5 -113q0 -74 -50.5 -130.5t-141.5 -56.5q-71 0 -110.5 43.5t-39.5 106.5zM78 166q0 96 46 302.5t46 258.5q0 37 -16 64.5t-48 31.5q11 72 73 121t151 49q155 0 155 -184q0 -81 -45 -290.5t-45 -258.5q0 -80 66 -123 q-28 -79 -84.5 -118t-124.5 -39q-77 0 -125.5 42.5t-48.5 143.5zM397 1235q0 76 53 136.5t140 60.5q70 0 109.5 -47t39.5 -113q0 -74 -50.5 -130.5t-141.5 -56.5q-71 0 -110.5 43.5t-39.5 106.5z" />
<glyph unicode="&#xf0;" horiz-adv-x="1157" d="M66 385q0 94 33.5 197t92 193t151 149t198.5 59q64 0 109.5 -12.5t80.5 -52.5q-39 147 -102 227l-19 -12q-11 -9 -155 -113q-62 49 -62 94t56 84q18 12 65 41q-96 51 -244 51q-2 14 -2 37q0 56 30.5 79.5t96.5 23.5q157 0 293 -76q78 54 193 147q21 -17 37 -45t16 -55 q0 -42 -51 -78q-11 -8 -37.5 -27.5t-42.5 -29.5q106 -101 164.5 -253t58.5 -325q0 -97 -19.5 -194t-62.5 -190.5t-106 -164.5t-157.5 -115t-207.5 -44q-188 0 -297.5 108.5t-109.5 296.5zM354 416q0 -107 37 -173.5t107 -66.5q62 0 108 37.5t69 98t33.5 120.5t10.5 121 q0 112 -36 178t-105 66q-50 0 -90 -26t-64.5 -66t-40.5 -92.5t-22.5 -101t-6.5 -95.5z" />
<glyph unicode="&#xf1;" horiz-adv-x="1112" d="M86 111q0 11 41 277t41 331q0 89 -64 104q11 78 71.5 124t135.5 46q174 0 174 -170q0 -5 -1 -15.5t-1 -16.5q61 95 148.5 146.5t167.5 51.5q109 0 168 -66t59 -173q0 -36 -42 -240.5t-42 -251.5q0 -81 70 -123q-25 -74 -84.5 -114.5t-128.5 -40.5q-73 0 -124.5 45.5 t-51.5 126.5q0 66 38.5 263.5t38.5 272.5q0 115 -67 115q-50 0 -110.5 -86t-86.5 -199q-28 -242 -28 -371q0 -46 8 -116q-81 -35 -172 -35q-69 0 -113.5 27t-44.5 88zM301 1171q0 55 45.5 106.5t109 81.5t119.5 30q46 0 125 -44.5t113 -44.5q26 0 54.5 17.5t84.5 64.5 q23 -4 43.5 -23t20.5 -48q0 -56 -45 -107.5t-108.5 -80.5t-121.5 -29q-46 0 -124 44t-111 44q-27 0 -54.5 -17t-86.5 -65q-64 27 -64 71z" />
<glyph unicode="&#xf2;" horiz-adv-x="1058" d="M51 391q0 165 69 302t195.5 217.5t284.5 80.5q191 0 299.5 -105.5t108.5 -289.5q0 -165 -72 -306t-200.5 -225.5t-284.5 -84.5q-185 0 -292.5 113t-107.5 298zM311 1391q0 95 119 155q30 -52 90.5 -106.5t112.5 -91t92.5 -80.5t40.5 -82q0 -37 -16 -60.5t-56 -54.5 q-52 45 -128 94t-127.5 79t-89.5 69t-38 78zM383 422q0 -112 33 -185t92 -73q48 0 86.5 56.5t58 142.5t19.5 180q0 116 -32 190t-93 74q-48 0 -86.5 -57.5t-58 -144.5t-19.5 -183z" />
<glyph unicode="&#xf3;" horiz-adv-x="1062" d="M51 391q0 165 69 302t195.5 217.5t284.5 80.5q191 0 299.5 -105.5t108.5 -289.5q0 -165 -72 -306t-200.5 -225.5t-284.5 -84.5q-185 0 -292.5 113t-107.5 298zM383 422q0 -112 33 -185t92 -73q48 0 86.5 56.5t58 142.5t19.5 180q0 116 -32 190t-93 74q-48 0 -86.5 -57.5 t-58 -144.5t-19.5 -183zM455 1186q0 35 34.5 67.5t90.5 61.5t117 59t126 74t105 94q35 -23 59.5 -66t24.5 -81q0 -31 -16.5 -60.5t-43.5 -46.5q-51 -31 -228 -105.5t-216 -111.5q-27 25 -40 58t-13 57z" />
<glyph unicode="&#xf4;" horiz-adv-x="1058" d="M51 391q0 165 69 302t195.5 217.5t284.5 80.5q191 0 299.5 -105.5t108.5 -289.5q0 -165 -72 -306t-200.5 -225.5t-284.5 -84.5q-185 0 -292.5 113t-107.5 298zM299 1157q82 83 187.5 169.5t199.5 146.5q45 -30 78 -53.5t73.5 -56t65.5 -60t42.5 -59.5t17.5 -60 q0 -33 -39 -70t-97 -51q-38 57 -81.5 102.5t-67.5 62.5l-25 17q-211 -166 -258 -166q-34 0 -52.5 15.5t-43.5 62.5zM383 422q0 -112 33 -185t92 -73q48 0 86.5 56.5t58 142.5t19.5 180q0 116 -32 190t-93 74q-48 0 -86.5 -57.5t-58 -144.5t-19.5 -183z" />
<glyph unicode="&#xf5;" horiz-adv-x="1060" d="M51 391q0 165 69 302t195.5 217.5t284.5 80.5q191 0 299.5 -105.5t108.5 -289.5q0 -165 -72 -306t-200.5 -225.5t-284.5 -84.5q-185 0 -292.5 113t-107.5 298zM295 1171q0 55 45.5 106.5t109 81.5t119.5 30q46 0 125 -44.5t113 -44.5q26 0 54.5 17.5t84.5 64.5 q23 -4 43.5 -23t20.5 -48q0 -56 -45 -107.5t-108.5 -80.5t-121.5 -29q-46 0 -124 44t-111 44q-27 0 -55.5 -17.5t-86.5 -64.5q-63 26 -63 71zM383 422q0 -112 33 -185t92 -73q48 0 86.5 56.5t58 142.5t19.5 180q0 116 -32 190t-93 74q-48 0 -86.5 -57.5t-58 -144.5 t-19.5 -183z" />
<glyph unicode="&#xf6;" horiz-adv-x="1107" d="M51 391q0 165 69 302t195.5 217.5t284.5 80.5q191 0 299.5 -105.5t108.5 -289.5q0 -165 -72 -306t-200.5 -225.5t-284.5 -84.5q-185 0 -292.5 113t-107.5 298zM248 1235q0 76 52.5 136.5t139.5 60.5q70 0 110 -47t40 -113q0 -74 -51 -130.5t-142 -56.5q-71 0 -110 43.5 t-39 106.5zM383 422q0 -112 33 -185t92 -73q48 0 86.5 56.5t58 142.5t19.5 180q0 116 -32 190t-93 74q-48 0 -86.5 -57.5t-58 -144.5t-19.5 -183zM715 1235q0 76 52.5 136.5t139.5 60.5q70 0 110 -47t40 -113q0 -74 -51 -130.5t-142 -56.5q-71 0 -110 43.5t-39 106.5z" />
<glyph unicode="&#xf7;" d="M127 496q0 47 25.5 84.5t78.5 37.5q8 0 138.5 -10t224.5 -10q295 0 436 20q12 -25 12 -86q0 -52 -29 -87t-75 -35q-36 0 -167 11t-193 11q-232 0 -443 -22q-8 43 -8 86zM422 147q0 66 45 112t108 46q62 0 106 -46t44 -112q0 -70 -43.5 -114.5t-106.5 -44.5q-65 0 -109 44 t-44 115zM422 895q0 66 45 112t108 46q62 0 106 -46t44 -112q0 -71 -43.5 -115.5t-106.5 -44.5q-64 0 -108.5 44.5t-44.5 115.5z" />
<glyph unicode="&#xf8;" horiz-adv-x="1058" d="M51 391q0 165 69 302t195.5 217.5t284.5 80.5q84 0 164 -26q40 65 102 176q48 -2 81.5 -24.5t33.5 -59.5q0 -24 -25 -66l-65 -98q117 -111 117 -297q0 -165 -72 -306t-200.5 -225.5t-284.5 -84.5q-79 0 -140 20l-100 -176q-49 2 -82 25t-33 59q0 26 25 65l61 97 q-131 112 -131 321zM383 377l246 377q-32 53 -82 53q-48 0 -86.5 -57.5t-58 -144.5t-19.5 -183v-45zM438 199q27 -35 70 -35q48 0 86.5 56.5t58 142.5t19.5 180v14z" />
<glyph unicode="&#xf9;" horiz-adv-x="1122" d="M96 215q0 44 41 239.5t41 262.5q0 27 -3 44t-17.5 35.5t-42.5 26.5q11 80 72.5 125t134.5 45q178 0 178 -188q0 -72 -40.5 -255.5t-41.5 -270.5q0 -113 65 -113q47 0 104.5 81.5t84.5 196.5q54 319 65 506q85 29 144 29q159 0 159 -148q0 -44 -44 -292t-44 -285 q0 -79 66 -119q-18 -61 -69 -108t-132 -47q-93 0 -127.5 47.5t-34.5 132.5q0 35 2 53q-52 -96 -141.5 -164.5t-191.5 -68.5q-109 0 -168.5 65t-59.5 170zM350 1391q0 95 119 155q30 -52 90.5 -106.5t112.5 -91t92.5 -80.5t40.5 -82q0 -37 -16 -60.5t-56 -54.5 q-52 45 -128 94t-127.5 79t-89.5 69t-38 78z" />
<glyph unicode="&#xfa;" horiz-adv-x="1132" d="M96 215q0 44 41 239.5t41 262.5q0 27 -3 44t-17.5 35.5t-42.5 26.5q11 80 72.5 125t134.5 45q178 0 178 -188q0 -72 -40.5 -255.5t-41.5 -270.5q0 -113 65 -113q47 0 104.5 81.5t84.5 196.5q54 319 65 506q85 29 144 29q159 0 159 -148q0 -44 -44 -292t-44 -285 q0 -79 66 -119q-18 -61 -69 -108t-132 -47q-93 0 -127.5 47.5t-34.5 132.5q0 35 2 53q-52 -96 -141.5 -164.5t-191.5 -68.5q-109 0 -168.5 65t-59.5 170zM494 1186q0 35 34.5 67.5t90.5 61.5t117 59t126 74t105 94q35 -23 59.5 -66t24.5 -81q0 -31 -16.5 -60.5t-43.5 -46.5 q-51 -31 -228 -105.5t-216 -111.5q-27 25 -40 58t-13 57z" />
<glyph unicode="&#xfb;" horiz-adv-x="1122" d="M96 215q0 44 41 239.5t41 262.5q0 27 -3 44t-17.5 35.5t-42.5 26.5q11 80 72.5 125t134.5 45q178 0 178 -188q0 -72 -40.5 -255.5t-41.5 -270.5q0 -113 65 -113q47 0 104.5 81.5t84.5 196.5q54 319 65 506q85 29 144 29q159 0 159 -148q0 -44 -44 -292t-44 -285 q0 -79 66 -119q-18 -61 -69 -108t-132 -47q-93 0 -127.5 47.5t-34.5 132.5q0 35 2 53q-52 -96 -141.5 -164.5t-191.5 -68.5q-109 0 -168.5 65t-59.5 170zM338 1157q82 83 187.5 169.5t199.5 146.5q58 -38 98.5 -68t85.5 -69.5t68.5 -78t23.5 -73.5q0 -33 -38.5 -70 t-96.5 -51q-38 57 -81.5 102.5t-68.5 62.5l-24 17q-211 -166 -258 -166q-34 0 -52.5 15.5t-43.5 62.5z" />
<glyph unicode="&#xfc;" horiz-adv-x="1177" d="M96 215q0 44 41 239.5t41 262.5q0 27 -3 44t-17.5 35.5t-42.5 26.5q11 80 72.5 125t134.5 45q178 0 178 -188q0 -72 -40.5 -255.5t-41.5 -270.5q0 -113 65 -113q47 0 104.5 81.5t84.5 196.5q54 319 65 506q85 29 144 29q159 0 159 -148q0 -44 -44 -292t-44 -285 q0 -79 66 -119q-18 -61 -69 -108t-132 -47q-93 0 -127.5 47.5t-34.5 132.5q0 35 2 53q-52 -96 -141.5 -164.5t-191.5 -68.5q-109 0 -168.5 65t-59.5 170zM287 1235q0 76 52.5 136.5t139.5 60.5q70 0 110 -47t40 -113q0 -74 -51 -130.5t-142 -56.5q-71 0 -110 43.5t-39 106.5 zM754 1235q0 76 52.5 136.5t139.5 60.5q70 0 110 -47t40 -113q0 -74 -51 -130.5t-142 -56.5q-71 0 -110 43.5t-39 106.5z" />
<glyph unicode="&#xfd;" horiz-adv-x="993" d="M-369 -319q0 84 144 159q13 -53 68 -90t114 -37q190 0 360 293q-2 44 -30 161.5t-69.5 253.5t-100 259t-111.5 164q47 66 110.5 105.5t121.5 39.5q59 0 105.5 -44t68.5 -132q57 -229 98 -584q129 333 141 570q0 80 -30 141q71 51 165 51q177 0 177 -162 q0 -149 -110 -394.5t-243 -442.5q-46 -69 -77 -112.5t-75 -97.5t-81 -87t-87.5 -68.5t-102 -54.5t-117 -31t-140.5 -12q-135 0 -217 43.5t-82 108.5zM346 1186q0 35 34.5 67.5t90.5 61.5t117 59t126 74t105 94q35 -23 59.5 -66t24.5 -81q0 -31 -16 -60.5t-43 -46.5 q-51 -31 -228.5 -105.5t-216.5 -111.5q-27 25 -40 58t-13 57z" />
<glyph unicode="&#xfe;" horiz-adv-x="1095" d="M27 -319q0 97 116.5 793t116.5 779q0 37 -15.5 65t-47.5 32q11 72 72.5 121t150.5 49q155 0 155 -185q0 -96 -67 -512q55 81 125 124.5t143 43.5q118 0 193 -90t75 -278q0 -140 -38.5 -262.5t-101 -204.5t-142 -129t-160.5 -47q-121 0 -217 92q-41 -226 -41 -303 q0 -86 66 -129q-58 -158 -217 -158q-89 0 -127.5 56.5t-38.5 142.5zM408 225q57 -63 127 -63q75 0 130.5 111t55.5 302q0 104 -28 168t-75 64q-33 0 -74.5 -56t-72.5 -149z" />
<glyph unicode="&#xff;" horiz-adv-x="993" d="M-369 -319q0 84 144 159q13 -53 68 -90t114 -37q190 0 360 293q-2 44 -30 161.5t-69.5 253.5t-100 259t-111.5 164q47 66 110.5 105.5t121.5 39.5q59 0 105.5 -44t68.5 -132q57 -229 98 -584q129 333 141 570q0 80 -30 141q71 51 165 51q177 0 177 -162 q0 -149 -110 -394.5t-243 -442.5q-46 -69 -77 -112.5t-75 -97.5t-81 -87t-87.5 -68.5t-102 -54.5t-117 -31t-140.5 -12q-135 0 -217 43.5t-82 108.5zM119 1235q0 76 52.5 136.5t139.5 60.5q70 0 110 -47t40 -113q0 -74 -51 -130.5t-142 -56.5q-71 0 -110 43.5t-39 106.5z M586 1235q0 76 52.5 136.5t139.5 60.5q70 0 110 -47t40 -113q0 -74 -51 -130.5t-142 -56.5q-71 0 -110 43.5t-39 106.5z" />
<glyph unicode="&#x152;" horiz-adv-x="1849" d="M90 539q0 175 52 329t144.5 267.5t228 179t294.5 65.5q120 0 221 -49q242 31 481 31q314 0 353 -39q16 -16 16 -57q0 -36 -12 -83t-27 -77q-94 43 -325 43q-66 0 -168 -6q-4 -76 -37 -312q264 0 338 9q4 -40 4 -72q0 -134 -90 -143q-49 -4 -283 -4q-41 -330 -41 -414 q58 -4 131 -4q109 0 223 13.5t148 31.5q16 -78 16 -115q0 -98 -72 -118.5t-323 -20.5q-313 0 -379 4q-36 1 -53.5 14.5t-32.5 42.5q-76 -40 -140.5 -57.5t-140.5 -17.5q-247 0 -386.5 150.5t-139.5 408.5zM434 604q0 -85 13 -157.5t40.5 -132.5t75 -94t111.5 -34 q151 0 241 109q5 37 44.5 324t54.5 428q-108 124 -260 124q-95 0 -169 -78.5t-112.5 -207t-38.5 -281.5z" />
<glyph unicode="&#x153;" horiz-adv-x="1564" d="M51 391q0 165 69 302t195.5 217.5t284.5 80.5q190 0 305 -137q75 64 161.5 99.5t166.5 35.5q122 0 206.5 -67.5t84.5 -188.5q0 -186 -130.5 -290.5t-328.5 -104.5q-25 0 -61 4q6 -91 52.5 -134.5t119.5 -43.5q53 0 98.5 21t85.5 83q48 -23 77 -55.5t29 -67.5 q0 -71 -101.5 -118t-238.5 -47q-96 0 -185.5 35.5t-154.5 103.5q-153 -139 -335 -139q-185 0 -292.5 113t-107.5 298zM383 422q0 -112 33 -185t92 -73q48 0 86.5 56.5t58 142.5t19.5 180q0 116 -32 190t-93 74q-48 0 -86.5 -57.5t-58 -144.5t-19.5 -183zM1004 508 q25 1 41.5 3t46 13.5t47.5 31t32.5 59t14.5 94.5q0 43 -16 71.5t-44 28.5q-46 0 -81 -84.5t-41 -216.5z" />
<glyph unicode="&#x178;" horiz-adv-x="1042" d="M92 1247q70 67 118 94t105 27q52 0 85 -19.5t55 -76.5q86 -227 163 -475q74 115 166 311t101 268q135 0 203.5 -30.5t68.5 -98.5q0 -103 -452 -669l-21 -170q-2 -20 -7.5 -65t-9 -71.5t-6 -64.5t-2.5 -70q0 -63 9 -121q-68 -22 -187 -22q-85 0 -121 31t-36 96 q0 11 6 56.5t22.5 164.5t32.5 236q-79 249 -157 431t-136 238zM344 1630q0 76 53 136.5t140 60.5q70 0 109.5 -47t39.5 -113q0 -74 -50.5 -130t-141.5 -56q-71 0 -110.5 43.5t-39.5 105.5zM811 1630q0 76 53 136.5t140 60.5q70 0 109.5 -47t39.5 -113q0 -74 -50.5 -130 t-141.5 -56q-71 0 -110.5 43.5t-39.5 105.5z" />
<glyph unicode="&#x2c6;" horiz-adv-x="831" d="M236 1157q82 83 187.5 169.5t199.5 146.5q58 -38 98.5 -68t85.5 -69.5t68.5 -78t23.5 -73.5q0 -33 -38.5 -70t-96.5 -51q-38 57 -81.5 102.5t-68.5 62.5l-24 17q-211 -166 -258 -166q-34 0 -52.5 15.5t-43.5 62.5z" />
<glyph unicode="&#x2dc;" horiz-adv-x="811" d="M266 1171q0 55 46 106.5t109.5 81.5t119.5 30q46 0 124.5 -44.5t112.5 -44.5q26 0 55.5 18t84.5 64q23 -4 43 -23t20 -48q0 -56 -44.5 -107.5t-108 -80.5t-121.5 -29q-46 0 -124.5 44t-111.5 44q-27 0 -54.5 -17t-86.5 -65q-64 27 -64 71z" />
<glyph unicode="&#x2000;" horiz-adv-x="989" />
<glyph unicode="&#x2001;" horiz-adv-x="1978" />
<glyph unicode="&#x2002;" horiz-adv-x="989" />
<glyph unicode="&#x2003;" horiz-adv-x="1978" />
<glyph unicode="&#x2004;" horiz-adv-x="659" />
<glyph unicode="&#x2005;" horiz-adv-x="494" />
<glyph unicode="&#x2006;" horiz-adv-x="329" />
<glyph unicode="&#x2007;" horiz-adv-x="329" />
<glyph unicode="&#x2008;" horiz-adv-x="247" />
<glyph unicode="&#x2009;" horiz-adv-x="395" />
<glyph unicode="&#x200a;" horiz-adv-x="109" />
<glyph unicode="&#x2010;" horiz-adv-x="563" d="M51 453q0 88 40 142t130 54q12 0 66.5 -6t87.5 -6h14q83 0 156 31q8 -41 8 -72q0 -84 -43 -132t-125 -48q-19 0 -74 7t-88 7q-73 0 -168 -33q-4 36 -4 56z" />
<glyph unicode="&#x2011;" horiz-adv-x="563" d="M51 453q0 88 40 142t130 54q12 0 66.5 -6t87.5 -6h14q83 0 156 31q8 -41 8 -72q0 -84 -43 -132t-125 -48q-19 0 -74 7t-88 7q-73 0 -168 -33q-4 36 -4 56z" />
<glyph unicode="&#x2012;" horiz-adv-x="563" d="M51 453q0 88 40 142t130 54q12 0 66.5 -6t87.5 -6h14q83 0 156 31q8 -41 8 -72q0 -84 -43 -132t-125 -48q-19 0 -74 7t-88 7q-73 0 -168 -33q-4 36 -4 56z" />
<glyph unicode="&#x2013;" d="M61 459q0 88 40 142t126 54q26 0 139.5 -6t182.5 -6h229q173 0 318 31q8 -41 8 -72q0 -80 -44 -130t-124 -50q-42 0 -154 7t-174 7h-202q-155 0 -343 -33q-2 23 -2 56z" />
<glyph unicode="&#x2014;" horiz-adv-x="1710" d="M61 457q0 198 168 198q26 0 136.5 -6t179.5 -6h778q171 0 319 31q7 -40 7 -68q0 -80 -41.5 -132t-126.5 -52q-42 0 -153.5 7t-172.5 7h-749q-152 0 -343 -33q-2 18 -2 54z" />
<glyph unicode="&#x2018;" horiz-adv-x="534" d="M147 1090q0 95 46 192t133.5 165.5t191.5 68.5q62 0 62 -62q0 -24 -13 -61h-8q-52 0 -99.5 -45.5t-47.5 -104.5q0 -73 73 -86q11 -32 11 -63q0 -77 -56 -134t-141 -57q-76 0 -114 52t-38 135z" />
<glyph unicode="&#x2019;" horiz-adv-x="538" d="M129 977q0 25 10 55h8q56 0 102 49t46 103q0 67 -74 84q-12 30 -12 63q0 76 57 133.5t142 57.5q75 0 113 -51t38 -132q0 -92 -44.5 -190.5t-127 -169t-176.5 -70.5q-82 0 -82 68z" />
<glyph unicode="&#x201a;" horiz-adv-x="550" d="M0 -266q0 25 10 55h8q56 0 102 49t46 103q0 67 -74 84q-12 30 -12 63q0 76 57 133.5t142 57.5q75 0 113 -51t38 -132q0 -92 -44.5 -190.5t-127 -169t-176.5 -70.5q-82 0 -82 68z" />
<glyph unicode="&#x201c;" horiz-adv-x="1038" d="M147 1090q0 95 46 192t133.5 165.5t191.5 68.5q62 0 62 -62q0 -24 -13 -61h-8q-52 0 -99.5 -45.5t-47.5 -104.5q0 -73 73 -86q11 -32 11 -63q0 -77 -56 -134t-141 -57q-76 0 -114 52t-38 135zM651 1090q0 95 46 192t133.5 165.5t191.5 68.5q61 0 61 -62q0 -26 -12 -61h-8 q-52 0 -100 -45.5t-48 -104.5q0 -73 74 -86q10 -29 10 -63q0 -77 -55.5 -134t-140.5 -57q-76 0 -114 52t-38 135z" />
<glyph unicode="&#x201d;" horiz-adv-x="1017" d="M129 977q0 25 10 55h8q56 0 102 49t46 103q0 67 -74 84q-12 30 -12 63q0 76 57 133.5t142 57.5q75 0 113 -51t38 -132q0 -92 -44.5 -190.5t-127 -169t-176.5 -70.5q-82 0 -82 68zM608 977q0 25 10 55h9q56 0 101.5 49t45.5 103q0 67 -74 84q-12 30 -12 63q0 76 57 133.5 t142 57.5q75 0 113 -51t38 -132q0 -92 -44.5 -190.5t-127 -169t-176.5 -70.5q-82 0 -82 68z" />
<glyph unicode="&#x201e;" horiz-adv-x="1030" d="M0 -266q0 25 10 55h8q56 0 102 49t46 103q0 67 -74 84q-12 30 -12 63q0 76 57 133.5t142 57.5q75 0 113 -51t38 -132q0 -92 -44.5 -190.5t-127 -169t-176.5 -70.5q-82 0 -82 68zM479 -266q0 25 10 55h9q56 0 101.5 49t45.5 103q0 67 -74 84q-12 30 -12 63q0 76 57 133.5 t142 57.5q75 0 113 -51t38 -132q0 -92 -44.5 -190.5t-127 -169t-176.5 -70.5q-82 0 -82 68z" />
<glyph unicode="&#x2022;" horiz-adv-x="749" d="M74 500q0 90 44 178t127 147.5t181 59.5q111 0 184.5 -81.5t73.5 -205.5q0 -90 -42.5 -177t-124 -145.5t-179.5 -58.5q-114 0 -189 78.5t-75 204.5z" />
<glyph unicode="&#x2026;" horiz-adv-x="1638" d="M33 145q0 85 58 151t155 66q79 0 122.5 -51.5t43.5 -124.5q0 -82 -56 -144t-157 -62q-80 0 -123 48t-43 117zM608 145q0 85 58 151t155 66q79 0 122.5 -51.5t43.5 -124.5q0 -82 -56 -144t-157 -62q-80 0 -123 48t-43 117zM1184 145q0 85 58 151t155 66q79 0 122.5 -51.5 t43.5 -124.5q0 -82 -56 -144t-157 -62q-80 0 -123 48t-43 117z" />
<glyph unicode="&#x202f;" horiz-adv-x="395" />
<glyph unicode="&#x2039;" horiz-adv-x="671" d="M111 481q86 107 204.5 235.5t204.5 196.5q70 -36 95.5 -61.5t25.5 -50.5q0 -57 -229 -320q50 -76 98.5 -177t48.5 -136q0 -63 -151 -119q-67 67 -152.5 195.5t-144.5 236.5z" />
<glyph unicode="&#x203a;" horiz-adv-x="675" d="M31 156q0 65 233 325q-43 63 -96 164.5t-53 140.5q0 29 31 57.5t122 69.5q115 -115 297 -432q-89 -109 -208 -237t-205 -195q-121 50 -121 107z" />
<glyph unicode="&#x205f;" horiz-adv-x="494" />
<glyph unicode="&#x20ac;" d="M49 514q0 44 22 71t62 27h66q0 39 12 113q-58 -3 -129 -14q-2 12 -2 30q0 44 22 71.5t62 27.5h76q35 110 98 205t151.5 170.5t208.5 119t258 43.5q54 0 100 -6.5t87.5 -20.5t65.5 -40t24 -62q0 -39 -30.5 -78t-78.5 -63q-74 74 -209 74q-115 0 -209.5 -98t-148.5 -244h51 q273 0 445 16l2 -25q0 -104 -84 -104h-445q-12 -78 -12 -115h64q261 0 444 17l2 -25q0 -104 -84 -104h-420q8 -73 30 -130t50 -92t63 -57.5t67 -31.5t65 -9q63 0 120 20.5t95 53.5q65 -49 65 -131q0 -141 -311 -141q-83 0 -155.5 14t-144.5 50.5t-125 93.5t-89.5 149 t-46.5 211q-59 -3 -152 -17q-2 12 -2 31z" />
<glyph unicode="&#x2122;" horiz-adv-x="1957" d="M156 1239q0 41 19.5 68.5t60.5 27.5h303q206 0 272 6q16 -26 16 -65q0 -42 -18.5 -71t-56.5 -29h-150v-347q0 -135 27 -213q-64 -20 -125 -20q-123 0 -123 100v480q-137 0 -211 -9q-14 35 -14 72zM928 1331q61 12 133 12q50 0 90 -20.5t59 -54.5q53 -104 88.5 -200 t79.5 -239q74 251 168 441q18 34 67.5 53.5t104.5 19.5q82 0 131 -16q-18 -79 -18 -197v-307q0 -50 0.5 -72t6 -62.5t17.5 -80.5q-54 -14 -106 -14q-59 0 -99 19.5t-40 62.5q0 38 1 127t1 186q-56 -155 -115 -385q-57 -10 -113 -10q-114 0 -129 49q-19 57 -43.5 136.5 t-42.5 135t-34 91.5v-183q0 -50 0.5 -72t6 -62.5t17.5 -80.5q-44 -14 -96 -14q-51 0 -85 19t-34 63q0 15 0.5 65t1 152.5t0.5 245.5q0 99 -18 192z" />
<glyph unicode="&#xe000;" horiz-adv-x="1003" d="M0 0v1004h1004v-1004h-1004z" />
<glyph unicode="&#xfb01;" horiz-adv-x="1234" d="M0 -111q138 43 195 885q-97 -4 -150 -10q-6 30 -6 63q0 63 29 104.5t92 41.5h59q10 108 55.5 196t111.5 145t149 96.5t165 56t164 16.5q168 0 250 -45t82 -123q0 -48 -22 -82t-62.5 -51.5t-84 -25t-99.5 -9.5q-18 67 -57.5 95t-102.5 28q-43 0 -84.5 -17.5t-78 -52 t-61 -93.5t-28.5 -134q334 0 420 4q43 16 90 16q156 0 156 -184q0 -81 -34 -290.5t-34 -258.5q0 -80 66 -123q-28 -79 -84.5 -118t-124.5 -39q-77 0 -125.5 42.5t-48.5 143.5q0 96 34.5 302.5t34.5 258.5q0 32 -12 59q-114 -4 -356 -4q-35 -363 -64 -602q-23 -184 -45 -258 q-53 -172 -185 -190q-16 -2 -34 -2q-59 0 -105 39.5t-65 119.5z" />
<glyph unicode="&#xfb02;" horiz-adv-x="1310" d="M0 -111q138 43 195 885q-97 -4 -150 -10q-6 30 -6 63q0 63 29 104.5t92 41.5h59q9 100 43.5 182t86 138t119 95t142 56.5t154.5 17.5q94 0 186 -24q65 82 185 82q155 0 155 -185q0 -81 -75.5 -553.5t-75.5 -521.5q0 -81 65 -123q-23 -63 -72.5 -110t-127.5 -47 q-57 0 -95.5 16t-56.5 45.5t-24.5 58.5t-6.5 66q0 90 70 510t80 516q-133 82 -234 82q-188 0 -221 -301q141 0 268 10q9 -45 9 -70q0 -122 -99 -127q-94 -4 -196 -4q-35 -363 -64 -602q-23 -184 -45 -258q-53 -172 -185 -190q-16 -2 -34 -2q-59 0 -105 39.5t-65 119.5z" />
<glyph unicode="&#xfb03;" horiz-adv-x="1988" d="M0 -111q138 43 195 885q-100 -4 -152 -10q-6 30 -6 63q0 63 29 104.5t92 41.5h61q6 80 24 150.5t53 133.5t84.5 108t120.5 71t158 26q113 0 180.5 -54t67.5 -124q0 -49 -40.5 -87.5t-118.5 -51.5q-14 63 -45.5 91t-65.5 28q-38 0 -65.5 -46.5t-40.5 -109t-17 -135.5h459 q13 108 59.5 196t112 145t147.5 96t163.5 56t162.5 17q168 0 250 -45t82 -123q0 -48 -22 -82t-62.5 -51.5t-84.5 -25t-100 -9.5q-18 68 -57 95.5t-102 27.5q-43 0 -84.5 -17.5t-78 -52t-61 -93.5t-28.5 -134q334 0 420 4q43 16 90 16q155 0 155 -184q0 -81 -33.5 -290.5 t-33.5 -258.5q0 -81 65 -123q-28 -79 -84.5 -118t-124.5 -39q-77 0 -125.5 42.5t-48.5 143.5q0 96 35 302.5t35 258.5q0 32 -12 59q-114 -4 -357 -4q-38 -400 -63 -602q-23 -184 -45 -258q-53 -172 -185 -190q-16 -2 -34 -2q-59 0 -105 39.5t-65 119.5q26 8 49.5 44.5 t40.5 88.5t32.5 128t25.5 148t19.5 165t15 163t11.5 156h-450q-35 -363 -64 -602q-23 -184 -45 -258q-53 -172 -185 -190q-16 -2 -34 -2q-59 0 -105 39.5t-65 119.5z" />
<glyph unicode="&#xfb04;" horiz-adv-x="2050" d="M0 -111q138 43 195 885q-100 -4 -152 -10q-6 30 -6 63q0 63 29 104.5t92 41.5h65q6 81 23.5 151t52.5 133t83.5 108t119 71t157.5 26q113 0 180.5 -54t67.5 -124q0 -49 -40.5 -87.5t-118.5 -51.5q-14 63 -45.5 91t-65.5 28q-38 0 -65.5 -46.5t-40.5 -109t-17 -135.5h459 q9 100 43.5 182t86 138t119 95t142 56.5t154.5 17.5q94 0 186 -24q65 82 184 82q156 0 156 -185q0 -81 -76 -553.5t-76 -521.5q0 -80 66 -123q-23 -63 -73 -110t-128 -47q-46 0 -80 11.5t-53 29t-30.5 43.5t-15 49.5t-3.5 52.5q0 88 69.5 506t79.5 520q-132 82 -231 82 q-191 0 -223 -301q141 0 268 10q8 -40 8 -70q0 -122 -98 -127q-94 -4 -197 -4q-38 -400 -63 -602q-23 -184 -45 -258q-53 -172 -185 -190q-16 -2 -34 -2q-59 0 -105 39.5t-65 119.5q26 8 49.5 44.5t40.5 88.5t32.5 128t25.5 148t19.5 165t15 163t11.5 156h-450 q-35 -363 -64 -602q-23 -184 -45 -258q-53 -172 -185 -190q-16 -2 -34 -2q-59 0 -105 39.5t-65 119.5z" />
</font>
</defs>
</svg>
