<?xml version="1.0" standalone="no"?>
<!DOCTYPE svg PUBLIC "-//W3C//DTD SVG 1.1//EN" "http://www.w3.org/Graphics/SVG/1.1/DTD/svg11.dtd" >
<svg xmlns="http://www.w3.org/2000/svg">
<metadata></metadata>
<defs>
<font id="overlockregular" horiz-adv-x="1095" >
<font-face units-per-em="2048" ascent="1638" descent="-410" />
<missing-glyph horiz-adv-x="471" />
<glyph horiz-adv-x="2048" />
<glyph horiz-adv-x="2048" />
<glyph unicode="&#xd;" horiz-adv-x="2048" />
<glyph unicode=" "  horiz-adv-x="471" />
<glyph unicode="&#x09;" horiz-adv-x="471" />
<glyph unicode="&#xa0;" horiz-adv-x="471" />
<glyph unicode="!" horiz-adv-x="636" d="M205 109q0 55 37 93t88 38t87 -38t36 -93q0 -56 -35.5 -92.5t-87.5 -36.5t-88.5 36.5t-36.5 92.5zM207 1389q72 14 106 14q97 0 97 -100q0 -57 -18.5 -230t-18.5 -321v-90q0 -164 33 -254q-44 -21 -76 -21q-81 0 -84 98q-1 27 -1.5 233t-8.5 395.5t-29 275.5z" />
<glyph unicode="&#x22;" horiz-adv-x="706" d="M102 1430q0 37 28.5 58t68.5 21q36 0 61 -22.5t25 -71.5q0 -80 -39 -342q-7 -49 -24 -68.5t-48 -19.5q-25 0 -49 8q6 37 6 82q0 124 -14.5 229.5t-14.5 125.5zM442 1430q0 37 28.5 58t68.5 21q36 0 61 -22.5t25 -71.5q0 -80 -39 -342q-7 -49 -24 -68.5t-48 -19.5 q-25 0 -49 8q6 37 6 82q0 124 -14.5 229.5t-14.5 125.5z" />
<glyph unicode="#" d="M29 479q0 82 129 82q107 0 170 -2l30 238q-170 -7 -274 -37q-6 20 -6 67q0 82 129 82l166 -2q3 33 12.5 108t16 137t8.5 97q29 6 55 6q63 0 63 -65q0 -7 -51 -285h234q2 24 18.5 160t18.5 184q29 6 55 6q63 0 63 -65q0 -10 -49 -281q212 8 279 13q-1 -27 -2 -41.5 t-6.5 -36.5t-15.5 -33t-29 -20t-46 -9q-10 0 -40 2t-77 4.5t-85 4.5q-23 -138 -35 -234q187 7 287 14q-1 -27 -2 -41.5t-6.5 -35.5t-15.5 -32t-29 -19.5t-46 -8.5q-11 0 -41 1.5t-78.5 4t-85.5 4.5q-20 -177 -20 -229q0 -43 8 -117q-29 -16 -65 -16q-62 0 -62 68 q0 25 43 299q-53 2 -174 2h-65q-23 -211 -23 -236q0 -43 8 -117q-29 -16 -65 -16q-62 0 -62 68q0 25 43 299q-170 -7 -274 -37q-6 20 -6 65zM422 557q191 0 244 2q11 73 30 238q-53 2 -174 2h-63q-28 -166 -37 -242z" />
<glyph unicode="$" d="M125 168q0 21 6.5 37t22.5 29.5t28.5 21t38.5 20.5q31 -66 104.5 -112t159.5 -60v512q-42 13 -71.5 23.5t-67 28.5t-63.5 37.5t-53 49t-43 64.5t-26.5 83.5t-10.5 105.5q0 153 92.5 245t240.5 113q-4 95 -8 141q21 6 35 6q55 0 55 -55v-84q81 0 158 -19.5t132.5 -63.5 t55.5 -103q0 -78 -108 -98q-29 61 -94.5 103.5t-143.5 53.5v-487q213 -59 295 -145.5t82 -223.5q0 -171 -101 -285.5t-274 -123.5q4 -93 8 -138l-30 -4q-60 0 -60 56v84q-144 5 -252 59.5t-108 128.5zM297 1022q0 -92 48.5 -144.5t139.5 -89.5v461q-83 -10 -135.5 -66.5 t-52.5 -160.5zM565 100q101 7 165.5 70t64.5 186q0 54 -17 94t-52 67t-71 43.5t-90 33.5v-494z" />
<glyph unicode="%" horiz-adv-x="1540" d="M102 1022q0 157 79 248.5t214 91.5q134 0 212.5 -91.5t78.5 -248.5q0 -155 -79 -247.5t-212 -92.5q-135 0 -214 92t-79 248zM233 1047q0 -103 42 -183t118 -80q71 0 114.5 63.5t43.5 160.5q0 62 -16.5 118.5t-53.5 96t-86 39.5q-70 0 -116 -62t-46 -153zM293 2 q0 25 16 49l606 957q174 278 246 409q35 -2 63.5 -20.5t28.5 -44.5q0 -22 -14 -43l-606 -959q-153 -244 -246 -409q-89 17 -94 61zM854 319q0 157 79 248.5t214 91.5q134 0 212.5 -91.5t78.5 -248.5q0 -155 -79 -247t-212 -92q-135 0 -214 92t-79 247zM985 344 q0 -103 42 -182.5t118 -79.5q71 0 114.5 63t43.5 160q0 62 -16.5 118.5t-53.5 96t-86 39.5q-70 0 -116 -62t-46 -153z" />
<glyph unicode="&#x26;" horiz-adv-x="1261" d="M102 350q0 81 32.5 151t77.5 115t112 93q-45 67 -91 157q-55 110 -55 195q0 145 99 231t253 86q140 0 219.5 -76.5t79.5 -183.5q0 -48 -14 -93.5t-32.5 -80t-52.5 -71.5t-57.5 -58.5t-65 -50.5t-57.5 -39t-52 -31q173 -254 368 -420q37 79 37 177q0 94 -18 135 q46 24 73 24q89 0 89 -121q0 -166 -80 -290q127 -84 229 -84q4 -20 4 -41q0 -40 -24 -67t-76 -27q-103 0 -238 104q-137 -104 -319 -104q-114 0 -212.5 40t-163.5 126t-65 204zM256 375q0 -129 86 -205t223 -76q120 0 209 66q-211 201 -387 452q-131 -109 -131 -237z M319 1079q0 -91 121 -295q47 31 76 51.5t65 52.5t56.5 60.5t34.5 67.5t14 82q0 71 -43 122.5t-131 51.5q-193 0 -193 -193z" />
<glyph unicode="'" horiz-adv-x="489" d="M123 1430q0 37 28 58t68 21q36 0 61 -22.5t25 -71.5q0 -80 -39 -342q-7 -49 -24 -68.5t-47 -19.5q-26 0 -50 8q7 44 7 82q0 124 -14.5 229.5t-14.5 125.5z" />
<glyph unicode="(" horiz-adv-x="702" d="M184 545q0 137 27.5 282.5t70 261.5t91.5 210t95.5 146t78.5 52q34 0 67 -47q-128 -143 -205 -398t-77 -507q0 -276 80 -524.5t202 -389.5q-33 -47 -67 -47q-31 0 -77 50t-95 143.5t-92 209.5t-71 265t-28 293z" />
<glyph unicode=")" horiz-adv-x="655" d="M41 -369q122 141 202.5 389.5t80.5 524.5q0 252 -77.5 507t-205.5 398q33 47 68 47q32 0 78 -52t95 -146t91.5 -210t70 -261t27.5 -283q0 -144 -27.5 -293t-70.5 -265t-92.5 -209.5t-95 -143.5t-76.5 -50q-35 0 -68 47z" />
<glyph unicode="*" horiz-adv-x="831" d="M72 1233q7 46 32.5 84.5t63.5 38.5q14 0 35 -10t40 -22.5t56 -37t63 -41.5q-4 54 -30 266q37 11 65 11q41 0 69 -19.5t28 -60.5q0 -14 -27 -203q27 16 58.5 38t52.5 37.5t55 41t47 35.5q59 -51 59 -111q0 -18 -9 -32.5t-22 -25t-39 -22.5t-47 -20t-59.5 -22t-64.5 -25 q57 -60 213 -195q-19 -34 -50 -59t-63 -25q-16 0 -33 12.5t-35.5 37.5t-34.5 50t-40 64.5t-43 66.5q-27 -37 -54.5 -82.5t-57.5 -98t-44 -75.5q-39 13 -70.5 43t-31.5 64q0 25 29.5 59t105.5 107q25 24 39 37q-55 25 -256 94z" />
<glyph unicode="+" d="M100 504q0 33 18 59.5t56 26.5q15 0 122 -6.5t193 -8.5q0 53 -4 195t-12 209q18 6 62 6q36 0 61 -20.5t25 -53.5q0 -34 -7.5 -160.5t-7.5 -177.5q46 0 180.5 4.5t202.5 12.5q6 -18 6 -62q0 -36 -20 -61t-53 -25q-34 0 -150.5 7.5t-167.5 7.5q0 -212 17 -404 q-31 -6 -62 -6q-34 0 -60 19t-26 55q0 17 6 133t8 205q-185 -3 -381 -17q-6 31 -6 62z" />
<glyph unicode="," horiz-adv-x="464" d="M55 -231q0 16 2 24h11q65 0 108 49.5t43 112.5q0 44 -25 77.5t-75 43.5q-21 34 -21 67q0 43 35 73t84 30q53 0 91 -47.5t38 -145.5q0 -83 -31 -162.5t-86.5 -131.5t-119.5 -52q-54 0 -54 62z" />
<glyph unicode="-" horiz-adv-x="471" d="M51 522q0 32 18 56t56 24q3 0 63 -4t107 -4q97 0 160 14q6 -18 6 -61q0 -36 -20.5 -58t-53.5 -22q-13 0 -64.5 5t-93.5 5q-97 0 -172 -16q-6 31 -6 61z" />
<glyph unicode="." horiz-adv-x="473" d="M102 109q0 55 37 93t88 38t87 -38t36 -93q0 -56 -35.5 -92.5t-87.5 -36.5t-88.5 36.5t-36.5 92.5z" />
<glyph unicode="/" horiz-adv-x="528" d="M86 -193q0 14 193 1231q44 287 61 475l43 7q74 0 74 -56q0 -14 -48.5 -322t-96.5 -610l-48 -301q-44 -287 -61 -475q-27 -6 -49 -6q-68 0 -68 57z" />
<glyph unicode="0" d="M61 678q0 322 131.5 511t354.5 189t355 -189t132 -511q0 -318 -132 -508t-355 -190q-222 0 -354 190t-132 508zM215 741q0 -117 21 -228.5t60 -205t104 -150.5t145 -57q99 0 175.5 73t116.5 196t40 274q0 109 -21 215t-60 196.5t-104 146.5t-145 56q-95 0 -171.5 -69.5 t-118.5 -187t-42 -259.5z" />
<glyph unicode="1" d="M238 1257q0 78 79 89q219 32 261 32q33 0 58.5 -18.5t25.5 -59.5q0 -16 -4 -118.5t-8.5 -255t-4.5 -289.5v-127q0 -267 14 -399q142 0 213 8q9 -27 9 -45q0 -33 -19 -55.5t-61 -22.5q-14 0 -126 2t-202 2q-156 0 -219 -2q-10 30 -10 49q0 70 118 70h140q0 39 2 245t2 363 q0 288 -6 516q-210 -21 -256 -29q-6 24 -6 45z" />
<glyph unicode="2" d="M84 96q0 19 2 27q111 103 177.5 165.5t143.5 137t119 119.5t88.5 99t69 90t42.5 78t27 78t7 75q0 133 -74 211.5t-180 78.5q-85 0 -170.5 -48.5t-140.5 -125.5q-37 4 -57.5 22.5t-20.5 45.5q0 50 58 103.5t153.5 89.5t193.5 36q75 0 143.5 -23.5t124.5 -68.5t89.5 -118 t33.5 -164q0 -72 -14.5 -134.5t-51 -129t-83 -127t-128 -141t-167 -156t-217.5 -187.5q70 -4 180 -4q217 0 317.5 10t200.5 47q29 -53 29 -88q0 -52 -51 -69q-77 -29 -332 -29q-297 0 -418 4q-16 0 -30 3.5t-29.5 12.5t-25 29.5t-9.5 50.5z" />
<glyph unicode="3" d="M133 106q0 32 20.5 51.5t55.5 24.5q35 -42 91 -62t151 -20q77 0 139 24.5t100 65.5t58 90t20 101q0 118 -98 202.5t-273 84.5q-24 0 -35 1.5t-23.5 8t-17 21t-4.5 40.5q0 17 2 29q105 0 185.5 23.5t127 63.5t70 87t23.5 98q0 88 -59 152.5t-154 64.5q-77 0 -148.5 -40.5 t-115.5 -118.5q-40 0 -64 20t-24 47q0 45 49 94t135.5 84t181.5 35q85 0 154.5 -26.5t113 -71t66.5 -100.5t23 -117q0 -96 -53.5 -180.5t-163.5 -137.5q149 -66 204.5 -151.5t55.5 -204.5q0 -79 -31.5 -151.5t-90.5 -130.5t-153 -92.5t-209 -34.5q-153 0 -231 38.5t-78 87.5 z" />
<glyph unicode="4" d="M90 524q0 30 4 58q88 152 290.5 421.5t293.5 350.5q30 24 108 24q24 0 60 -4q0 -6 -5 -90t-9.5 -230.5t-4.5 -305.5v-183q149 11 201 35q16 -36 16 -80q0 -61 -40 -74q-47 -15 -175 -18q0 -107 1.5 -162t10.5 -132t27 -138q-37 -16 -84 -16q-59 0 -79.5 26.5t-20.5 89.5 q0 84 4 330q-434 0 -551 14q-47 6 -47 84zM236 559q108 -6 219 -6q122 0 233 6q0 278 6 627q-86 -93 -216.5 -272.5t-241.5 -354.5z" />
<glyph unicode="5" d="M125 106q0 32 20.5 51.5t55.5 24.5q35 -42 90.5 -62t150.5 -20q77 0 139.5 29t101 76t59 104.5t20.5 118.5q0 137 -98.5 235.5t-268.5 98.5q-88 0 -170 -10q-20 20 -20 96q0 49 26 512q59 -4 406 -4q146 0 227 16q8 -13 14.5 -35t6.5 -34q0 -48 -39.5 -69.5t-118.5 -21.5 q-141 0 -381 13l-29 -359q83 13 146 13q224 0 340.5 -116t116.5 -304q0 -99 -32.5 -185.5t-92.5 -152t-153.5 -103.5t-207.5 -38q-153 0 -231 38.5t-78 87.5z" />
<glyph unicode="6" d="M121 563q0 121 27 238.5t82 221.5t131.5 183.5t183 125.5t229.5 46q48 0 66 -18.5t18 -52.5q0 -24 -8 -60q-58 8 -82 8q-91 0 -168.5 -31.5t-133 -86t-96.5 -128.5t-64 -157.5t-30 -175.5q145 125 320 125q76 0 145 -26.5t121.5 -74.5t83.5 -120.5t31 -159.5 q0 -110 -49 -209t-149.5 -165t-231.5 -66q-81 0 -147 22.5t-112 64t-79 95.5t-52 121t-27.5 135.5t-8.5 144.5zM274 561q1 -77 8.5 -138.5t27 -124t50 -104t82.5 -68t121 -26.5q81 0 141 42t87.5 106.5t27.5 140.5q0 134 -74.5 214.5t-189.5 80.5q-147 0 -281 -123z" />
<glyph unicode="7" d="M109 1303q0 29 20 69q101 -16 229 -16q517 0 621 4q16 -33 16 -76q0 -40 -12 -78q-34 -107 -209 -447.5t-338 -637.5q-41 -75 -73 -108t-66 -33q-61 0 -131 79q175 182 382.5 554.5t293.5 609.5q-344 -11 -578 -11q-155 0 -155 91z" />
<glyph unicode="8" d="M102 348q0 81 22 145t64.5 110.5t90.5 78.5t114 61q-81 44 -129.5 86.5t-78 107t-29.5 150.5t53 153.5t139.5 102.5t188.5 35q158 0 270.5 -81t112.5 -210q0 -220 -248 -325q73 -35 125 -70.5t94 -84.5t63 -113.5t21 -145.5q0 -71 -27 -135.5t-79 -117t-137.5 -84 t-192.5 -31.5t-192.5 31.5t-138 84t-79.5 117t-27 135.5zM256 356q0 -103 77 -179.5t204 -76.5q128 0 204 76.5t76 179.5q0 63 -21 113t-66 89.5t-95.5 68.5t-128.5 63q-125 -56 -187.5 -133t-62.5 -201zM305 1094q0 -94 66.5 -159.5t197.5 -119.5q105 45 153 112.5 t48 166.5q0 72 -68.5 117.5t-164.5 45.5t-164 -45.5t-68 -117.5z" />
<glyph unicode="9" d="M90 940q0 110 49 209t149.5 165t231.5 66q81 0 147 -22.5t112 -64t79 -95.5t52 -121t27.5 -135.5t8.5 -144.5q0 -121 -27 -238.5t-82 -221.5t-131.5 -183.5t-183 -125.5t-229.5 -46q-48 0 -66 18.5t-18 52.5q0 24 8 60q65 -9 82 -9q91 0 168.5 31.5t133 86t96.5 129 t64 158t30 175.5q-145 -125 -320 -125q-76 0 -145 26.5t-121.5 74.5t-83.5 120.5t-31 159.5zM248 971q0 -134 74.5 -214.5t189.5 -80.5q147 0 281 123q-1 77 -8.5 138.5t-27 124t-50 104t-82.5 68t-121 26.5q-81 0 -141 -42t-87.5 -106.5t-27.5 -140.5z" />
<glyph unicode=":" horiz-adv-x="473" d="M102 109q0 55 37 93t88 38t87 -38t36 -93q0 -56 -35.5 -92.5t-87.5 -36.5t-88.5 36.5t-36.5 92.5zM102 848q0 55 37 93t88 38t87 -38t36 -93q0 -56 -35.5 -92.5t-87.5 -36.5t-88.5 36.5t-36.5 92.5z" />
<glyph unicode=";" horiz-adv-x="503" d="M55 -231q0 16 2 24h11q65 0 108 49.5t43 112.5q0 44 -25 77.5t-75 43.5q-21 34 -21 67q0 43 35 73t84 30q53 0 91 -47.5t38 -145.5q0 -83 -31 -162.5t-86.5 -131.5t-119.5 -52q-54 0 -54 62zM96 848q0 55 37 93t88 38t87 -38t36 -93q0 -56 -35.5 -92.5t-87.5 -36.5 t-88.5 36.5t-36.5 92.5z" />
<glyph unicode="&#x3c;" d="M217 514l449 430q26 23 51 23q30 0 58.5 -21.5t41.5 -48.5q-35 -32 -143.5 -125t-201.5 -172.5t-99 -85.5q75 -75 444 -408q-15 -30 -43 -49.5t-57 -19.5t-51 22z" />
<glyph unicode="=" d="M141 299q0 33 18 59.5t56 26.5q7 0 129.5 -7t212.5 -7q267 0 391 14q6 -18 6 -61q0 -36 -20 -61t-53 -25t-147 8t-173 8q-234 0 -414 -16q-6 31 -6 61zM141 709q0 33 18 59.5t56 26.5q7 0 129.5 -7.5t212.5 -7.5q259 0 391 15q6 -18 6 -62q0 -36 -20 -61t-53 -25 t-147 8.5t-173 8.5q-223 0 -414 -17q-6 31 -6 62z" />
<glyph unicode="&#x3e;" d="M246 106q369 333 444 408q-6 6 -99 85.5t-201.5 172.5t-143.5 125q13 27 41.5 48.5t58.5 21.5q25 0 51 -23l449 -430l-449 -455q-22 -22 -51 -22t-57 19.5t-43 49.5z" />
<glyph unicode="?" horiz-adv-x="782" d="M82 1223q0 81 90 129.5t215 48.5q138 0 231 -55q123 -72 123 -218q0 -68 -17.5 -125.5t-45 -97.5t-61 -76t-67.5 -67.5t-61.5 -63.5t-45 -73t-17.5 -88q0 -59 23 -129q-47 -21 -78 -21q-50 0 -72.5 39.5t-22.5 99.5q0 70 32.5 134t78.5 114.5t92 101.5t78.5 117.5 t32.5 139.5q0 85 -72 129q-44 24 -102 24q-80 0 -151 -42t-89 -111q-94 14 -94 90zM248 109q0 55 37 93t88 38t87 -38t36 -93q0 -56 -35.5 -92.5t-87.5 -36.5t-88.5 36.5t-36.5 92.5z" />
<glyph unicode="@" horiz-adv-x="1763" d="M182 369q0 119 35.5 238t106 227t167.5 191.5t230 133t283 49.5q263 0 419 -146t156 -372q0 -112 -39.5 -217t-100 -176t-133 -113.5t-137.5 -42.5q-61 0 -106.5 39.5t-65.5 118.5q-105 -188 -254 -188q-100 0 -163.5 74.5t-63.5 215.5q0 136 49 252t135.5 185t190.5 69 q181 0 309 -94q-28 -112 -52 -252.5t-24 -208.5q0 -112 80 -112q36 0 76 26t75 73.5t58 125.5t23 170q0 218 -113.5 338.5t-349.5 120.5q-116 0 -221 -42.5t-182 -115t-134 -165t-85.5 -194.5t-28.5 -202q0 -97 28 -180.5t84 -150t148.5 -104.5t212.5 -38q112 0 205 45 t126 119q88 -35 88 -99q0 -52 -57.5 -96t-152.5 -69t-203 -25q-155 0 -276.5 48.5t-194.5 131.5t-110.5 187.5t-37.5 224.5zM659 444q0 -91 31 -149.5t86 -58.5q53 0 110 47t99 135q8 54 21.5 166.5t17.5 144.5q-69 57 -143 57q-97 0 -159.5 -94t-62.5 -248z" />
<glyph unicode="A" horiz-adv-x="1128" d="M10 39q1 25 88 229.5t212 521.5t196 562q41 6 86 6q51 0 71 -17.5t44 -91.5q126 -409 229 -676q61 -159 84.5 -219t67.5 -165t77 -169q-58 -40 -98 -40q-19 0 -32.5 2.5t-30 15.5t-25.5 37q-29 75 -141 393q-230 -4 -275 -4q-54 0 -258 4q-10 -25 -35.5 -88.5 t-39.5 -99.5t-34 -90t-35.5 -101t-27.5 -92q-68 13 -95.5 32t-27.5 50zM356 549q160 -4 250 -4q128 0 189 4q-77 202 -211 616q-15 -39 -93 -257t-135 -359z" />
<glyph unicode="B" horiz-adv-x="1120" d="M141 109q33 239 33 684q0 373 -27 561q145 24 326 24q83 0 154 -10t137 -35.5t112.5 -65t74.5 -101t28 -140.5q0 -206 -178 -285q115 -48 171 -132t56 -218q0 -98 -35.5 -177.5t-96 -129.5t-138 -77t-164.5 -27q-297 0 -453 129zM299 178q39 -30 114 -52t144 -22 q132 0 222.5 74.5t90.5 204.5q0 73 -28.5 130.5t-77.5 93t-111 53.5t-133 18q-133 0 -194 -10q0 -152 -27 -490zM319 1245q9 -193 9 -461q66 -4 112 -4q381 0 381 234q0 239 -362 239q-50 0 -140 -8z" />
<glyph unicode="C" horiz-adv-x="1232" d="M100 680q0 327 174 512.5t471 185.5q159 0 268 -64.5t109 -158.5q0 -42 -32 -68t-84 -34q-39 99 -123 149.5t-178 50.5q-127 0 -227 -70t-155 -191.5t-55 -270.5q0 -126 30.5 -236.5t87.5 -196t147 -135t202 -49.5q99 0 184 43t134 127q90 -36 90 -100q0 -73 -117 -133.5 t-289 -60.5q-191 0 -336 88t-223 246.5t-78 365.5z" />
<glyph unicode="D" horiz-adv-x="1300" d="M135 109q29 185 33 688q0 358 -27 557q36 7 137.5 15.5t180.5 8.5q126 0 231.5 -20.5t202 -71t163 -128t105.5 -199t39 -277.5q0 -118 -25 -222.5t-76.5 -192.5t-125.5 -152t-177.5 -99.5t-226.5 -35.5q-278 0 -434 129zM293 178q112 -74 272 -74q104 0 186 33.5t133 87 t84.5 126t46.5 144t13 146.5q0 306 -151 459t-433 153q-45 0 -131 -8q9 -159 9 -334q0 -457 -29 -733z" />
<glyph unicode="E" horiz-adv-x="995" d="M135 1346q219 18 447 18q294 0 331 -31q19 -16 19 -53q0 -46 -17 -90q-117 43 -380 43q-109 0 -226 -6q8 -91 8 -434h162q172 0 246 8q8 -16 8 -53q0 -47 -21.5 -63.5t-68.5 -18.5q-53 -2 -145 -2h-181q0 -270 2.5 -371.5t12.5 -165.5q90 -4 145 -4q344 0 441 47 q16 -41 16 -90q0 -37 -19 -53q-37 -31 -331 -31q-262 0 -324 4q-59 3 -79.5 28.5t-20.5 88.5q0 34 2 152t2 190v409q0 288 -29 478z" />
<glyph unicode="F" horiz-adv-x="931" d="M135 1346q219 18 447 18q294 0 331 -31q19 -16 19 -53q0 -46 -17 -90q-117 43 -380 43q-109 0 -226 -6q8 -90 8 -244v-211h162q170 0 246 8q8 -16 8 -53q0 -21 -2.5 -35t-13.5 -24t-20.5 -14.5t-36.5 -7t-46.5 -3t-64.5 -0.5h-232v-227q0 -89 1.5 -139.5t10.5 -128.5 t27 -138q-37 -16 -96 -16t-79.5 27t-20.5 90q0 34 2 162t2 200v395q0 288 -29 478z" />
<glyph unicode="G" horiz-adv-x="1259" d="M100 680q0 327 174 512.5t471 185.5q159 0 268 -64.5t109 -158.5q0 -42 -32 -68t-84 -34q-39 99 -123 149.5t-178 50.5q-127 0 -227 -70t-155 -191.5t-55 -270.5q0 -170 51.5 -307.5t159 -223.5t254.5 -86q162 0 264 99q-3 255 -14 413q41 7 74 7q100 0 100 -78l-7 -131 q-7 -131 -7 -240q0 -73 -117 -133.5t-289 -60.5q-191 0 -336 88t-223 246.5t-78 365.5z" />
<glyph unicode="H" horiz-adv-x="1284" d="M135 1358q35 6 84 6q100 0 100 -78q0 -11 -4 -83t-8 -184t-4 -218q98 -4 332 -4q223 0 321 4v104q-3 294 -14 453q35 6 84 6q100 0 100 -78q0 -11 -4 -82.5t-8 -177t-4 -199.5v-411q0 -89 1.5 -139.5t10.5 -128.5t27 -138q-37 -16 -96 -16t-80 27t-21 90q0 34 2 162 t2 200v207q-104 -4 -321 -4q-234 0 -332 4v-264q0 -89 1.5 -139.5t10.5 -128.5t27 -138q-37 -16 -96 -16t-80 27t-21 90q0 34 2.5 162t2.5 200v410q0 275 -15 475z" />
<glyph unicode="I" horiz-adv-x="452" d="M135 1358q35 6 84 6q100 0 100 -78q0 -11 -4 -82.5t-8 -177t-4 -199.5v-411q0 -89 1.5 -139.5t10.5 -128.5t27 -138q-37 -16 -96 -16t-80 27t-21 90q0 34 2.5 162t2.5 200v410q0 275 -15 475z" />
<glyph unicode="J" horiz-adv-x="454" d="M-78 -127q42 9 74.5 20t56.5 28t40.5 33t27.5 44.5t17.5 51t9.5 65t3.5 74.5t0.5 90q0 43 -1 269t-1 335q0 275 -15 475q35 6 84 6q100 0 100 -78q0 -11 -4 -76t-8 -162t-4 -186v-635q0 -94 -17 -171.5t-45.5 -126.5t-61 -85t-67.5 -54t-61 -26t-45 -8q-77 0 -84 117z " />
<glyph unicode="K" horiz-adv-x="1054" d="M135 1358q41 6 70 6q55 0 84.5 -16t29.5 -62q0 -10 -4 -88.5t-8 -198.5t-4 -233q106 85 212 182.5t209 216.5t128 195q52 -9 79 -30.5t27 -47.5q0 -60 -142.5 -210.5t-336.5 -313.5q86 -144 193.5 -306t181.5 -253q25 -31 38.5 -44.5t42 -27.5t64.5 -14q25 0 48 6 q8 -28 8 -51q0 -42 -35 -65t-86 -23q-89 0 -184 104q-46 49 -106.5 131.5t-98.5 139.5t-108.5 166.5t-84.5 131.5q-37 -30 -49 -37v-200q0 -89 1.5 -139.5t10.5 -128.5t27 -138q-32 -16 -98 -16q-57 0 -78 27.5t-21 89.5q0 34 2.5 162t2.5 200v410q0 275 -15 475z" />
<glyph unicode="L" horiz-adv-x="878" d="M135 1358q35 6 84 6q100 0 100 -78q0 -11 -4 -82.5t-8 -177t-4 -199.5v-184q0 -275 2 -363.5t12 -152.5q86 -4 136 -4q321 0 411 47q15 -46 15 -90q0 -37 -19 -53q-35 -31 -313 -31q-245 0 -307 4q-55 3 -75 29t-20 88q0 34 2.5 152t2.5 190v424q0 275 -15 475z" />
<glyph unicode="M" horiz-adv-x="1632" d="M135 1350q66 16 119 16q86 0 145 -98q61 -106 117.5 -230t114.5 -286t91.5 -263.5t96.5 -300.5q65 255 172 550.5t240 529.5q30 53 63.5 75.5t85.5 22.5q16 0 56 -4.5t59 -11.5q-17 -58 -26 -140.5t-10 -142.5t-1 -174v-477q0 -89 2 -139.5t10.5 -128.5t26.5 -138 q-37 -16 -96 -16t-80 27t-21 90q0 15 1 143.5t2.5 367t1.5 521.5q-187 -379 -412 -1139q-24 -8 -55 -8q-81 0 -103 53q-51 111 -120 308t-147.5 407t-160.5 375v-723q0 -89 1.5 -139.5t10.5 -128.5t27 -138q-37 -16 -76 -16q-59 0 -79.5 27t-20.5 90q0 34 2 162t2 200v516 q0 232 -39 361z" />
<glyph unicode="N" horiz-adv-x="1288" d="M135 1350q40 16 96 16q40 0 63.5 -14t51.5 -45q103 -116 295 -435.5t352 -627.5q-5 73 -8 232.5t-3 283.5l-1 123q0 289 -14 475q35 6 63 6q100 0 100 -78q0 -11 -4 -82.5t-8 -177t-4 -199.5v-350q0 -289 14 -475q-33 -8 -67 -8q-71 0 -107 55q-84 131 -291.5 496 t-353.5 585q-2 -78 -2 -714q0 -89 1.5 -139.5t10.5 -128.5t27 -138q-37 -16 -76 -16q-59 0 -79.5 27t-20.5 90q0 34 2 162t2 200v410q0 116 -1.5 177.5t-10.5 146.5t-27 143z" />
<glyph unicode="O" horiz-adv-x="1458" d="M100 678q0 322 169.5 511t457.5 189q289 0 460 -189t171 -511q0 -318 -171.5 -508t-459.5 -190q-287 0 -457 190t-170 508zM268 741q0 -95 15 -183.5t50 -172t86.5 -145.5t130 -99t175.5 -37q220 0 340.5 149t120.5 388q0 90 -15 175t-50 165t-86.5 140t-130 96 t-175.5 36q-212 0 -336.5 -144t-124.5 -368z" />
<glyph unicode="P" horiz-adv-x="1032" d="M135 1354q151 24 305 24q90 0 165.5 -12t148.5 -42.5t123.5 -79.5t81 -127.5t30.5 -180.5q0 -110 -37.5 -196.5t-99.5 -137.5t-136.5 -77.5t-154.5 -26.5q-146 0 -246 65v-147q0 -89 1.5 -139.5t10.5 -128.5t27 -138q-37 -16 -96 -16t-79.5 27t-20.5 90q0 34 2 162t2 200 v410q0 275 -27 471zM307 1245q8 -118 8 -418v-153q88 -51 205 -51q139 0 218 81t79 218q0 97 -23 162.5t-71.5 102t-112 51.5t-155.5 15q-54 0 -148 -8z" />
<glyph unicode="Q" horiz-adv-x="1458" d="M100 678q0 322 169.5 511t457.5 189q289 0 460 -189t171 -511q0 -299 -152.5 -485.5t-412.5 -208.5q24 -90 86.5 -135.5t146.5 -45.5q81 0 124.5 16.5t100.5 61.5q21 -12 40.5 -42.5t19.5 -51.5q0 -50 -83.5 -79.5t-187.5 -29.5q-150 0 -248.5 82t-125.5 222 q-261 20 -413.5 207.5t-152.5 488.5zM268 741q0 -95 15 -183.5t50 -172t86.5 -145.5t130 -99t175.5 -37q220 0 340.5 149t120.5 388q0 90 -15 175t-50 165t-86.5 140t-130 96t-175.5 36q-212 0 -336.5 -144t-124.5 -368z" />
<glyph unicode="R" horiz-adv-x="1085" d="M135 1354q151 24 305 24q87 0 161 -10t147.5 -38t125 -72t83.5 -117.5t32 -169.5q0 -168 -92 -271.5t-244 -132.5q6 -13 25.5 -55t30.5 -64.5t30.5 -62.5t33.5 -66t32 -56.5t34 -53t31 -37.5q54 -59 131 -59q26 0 56 6q18 -38 18 -62q0 -41 -44.5 -59t-108.5 -18 q-31 0 -62 12t-61 38.5t-55.5 53.5t-54 71.5t-49 78t-47.5 88t-42 85.5t-40.5 86t-35.5 76q-32 4 -44.5 14.5t-12.5 30.5q0 18 10 56q64 -11 96 -11q136 0 214.5 81t78.5 221q0 164 -85.5 228t-264.5 64q-66 0 -160 -8q8 -118 8 -418v-411q0 -89 1.5 -139.5t10.5 -128.5 t27 -138q-37 -16 -96 -16t-79.5 27t-20.5 90q0 34 2 162t2 200v410q0 275 -27 471z" />
<glyph unicode="S" horiz-adv-x="1060" d="M92 172q0 27 17.5 49t34 31.5t53.5 28.5q39 -75 140.5 -123.5t205.5 -48.5q115 0 196.5 62t81.5 179q0 56 -24 98.5t-65 68.5t-93.5 46t-111 37t-117 35.5t-111 47t-93.5 67t-65 99.5t-24 140q0 189 124 289t316 100q88 0 172 -19t146.5 -62.5t62.5 -102.5 q0 -82 -117 -102q-35 68 -124.5 111.5t-186.5 43.5q-104 0 -175 -57t-71 -168q0 -58 24 -100.5t65 -68t94 -45t111 -35.5t116.5 -34.5t111.5 -46.5t94 -66.5t65 -101t24 -143.5q0 -86 -27.5 -155.5t-73 -114.5t-107.5 -75t-127.5 -43t-137.5 -13q-103 0 -195.5 25 t-150.5 69.5t-58 97.5z" />
<glyph unicode="T" horiz-adv-x="952" d="M0 1280q0 40 22 55t68 17q51 2 219 2h242q323 0 395 6q6 -18 6 -53q0 -40 -22 -55t-68 -17q-63 -2 -293 -2q-14 -294 -14 -406v-411q0 -89 1.5 -139.5t10.5 -128.5t27 -138q-37 -16 -96 -16t-80 27t-21 90q0 34 2 162t2 200v410q0 191 -6 350q-291 0 -389 -8q-6 18 -6 55 z" />
<glyph unicode="U" horiz-adv-x="1318" d="M147 1348q40 16 93 16q59 0 86.5 -23t27.5 -81q0 -88 -15 -388t-15 -466q0 -74 24.5 -132.5t64.5 -93t87.5 -52t97.5 -17.5q100 0 211 49t180 114q0 15 0.5 71t1 192.5t0.5 345.5q0 289 -14 475q35 6 84 6q100 0 100 -78q0 -5 -4 -76t-8 -223.5t-4 -353.5 q0 -318 5.5 -425t33.5 -198q-37 -16 -97 -16q-57 0 -78.5 26t-21.5 95v22q-83 -69 -197.5 -113t-209.5 -44q-72 0 -130 10.5t-113 39t-92 73.5t-59 119t-22 171q0 120 9 327t9 306q0 196 -35 322z" />
<glyph unicode="V" horiz-adv-x="1142" d="M-41 1288q87 76 147 76q63 0 101 -88q81 -181 188 -517t170 -585q76 84 167.5 278.5t157.5 424.5t66 387q0 73 -8 102q58 12 86 12q48 0 68 -22.5t20 -77.5q0 -225 -143 -603t-293 -569q-52 -67 -86 -89.5t-82 -22.5q-21 0 -67 4q-41 209 -127.5 481t-189 504.5 t-175.5 304.5z" />
<glyph unicode="W" horiz-adv-x="1929" d="M-41 1288q36 33 78 54.5t72 21.5q58 0 96 -88q75 -177 170 -507t157 -595q70 84 153 278t143.5 423.5t60.5 386.5q0 73 -8 104q58 12 86 12q44 0 66 -19t22 -69q0 -52 -11 -116q133 -212 320 -1000q70 84 153.5 278t144 423.5t60.5 386.5q0 73 -8 104q58 12 86 12 q44 0 66 -19t22 -69q0 -238 -134.5 -614t-278.5 -570q-51 -67 -83 -89.5t-77 -22.5q-26 0 -66 4q-35 191 -105.5 439.5t-150.5 463.5q-65 -228 -162 -450t-190 -345q-51 -67 -83 -89.5t-77 -22.5q-23 0 -63 4q-60 326 -208.5 753t-250.5 537z" />
<glyph unicode="X" horiz-adv-x="1179" d="M51 88q0 35 37 100.5t82.5 127t121 150t114.5 131.5t100 110q-133 214 -252.5 371t-192.5 204q78 96 152 96q26 0 49 -20.5t55 -65.5q138 -197 297 -463q114 138 205 299.5t103 247.5q29 -6 49.5 -12.5t45 -19t37.5 -33.5t13 -49q0 -56 -119.5 -225.5t-259.5 -327.5 q140 -239 269 -415.5t210 -225.5q-78 -88 -141 -88q-50 0 -106 79q-123 165 -340 525q-116 -113 -237 -301t-150 -303q-142 27 -142 108z" />
<glyph unicode="Y" horiz-adv-x="1026" d="M-20 1268q6 7 26 30t26.5 29.5t21 19t27.5 16t28 3.5q51 0 98 -70q121 -178 328 -557q98 129 209.5 345.5t115.5 291.5q31 -2 51.5 -5t48 -12t42 -28t14.5 -47q0 -52 -156 -290t-272 -378v-174q0 -165 8 -260.5t31 -171.5q-37 -16 -97 -16q-59 0 -79.5 27t-20.5 90 q2 188 4 364v127q-132 249 -253 430.5t-201 235.5z" />
<glyph unicode="Z" d="M53 115q0 66 51 129l773 985q-96 12 -250 12q-289 0 -512 -55q-21 53 -21 86q0 57 60 74q85 20 260 20q380 0 608 -39q33 -38 33 -82q0 -50 -35 -94l-827 -1034q74 -8 165 -8q399 0 648 65q20 -53 20 -86q0 -25 -10 -41.5t-32.5 -26t-44.5 -13t-60 -7.5 q-123 -12 -320 -12q-285 0 -469 24q-37 49 -37 103z" />
<glyph unicode="[" horiz-adv-x="778" d="M307 -389v1864h381q8 -16 8 -48q0 -41 -22 -56t-68 -15q-88 0 -164 4v-1634q78 4 164 4q50 0 70 -17.5t20 -54.5q0 -26 -8 -47h-381z" />
<glyph unicode="\" horiz-adv-x="528" d="M72 1464q0 56 73 56q25 -1 43 -7q16 -172 62 -475q192 -1211 192 -1231q0 -57 -67 -57q-22 0 -49 6q-16 172 -62 475q-192 1202 -192 1233z" />
<glyph unicode="]" horiz-adv-x="716" d="M61 -342q0 37 20 54.5t71 17.5q85 0 163 -4v1634q-76 -4 -163 -4q-46 0 -68.5 15.5t-22.5 55.5q0 27 9 48h381v-1864h-381q-9 24 -9 47z" />
<glyph unicode="^" horiz-adv-x="962" d="M51 887q48 80 193.5 243t236.5 252q91 -89 236.5 -252t193.5 -243q-33 -33 -53 -33q-13 0 -35 13t-52.5 39t-58 51.5t-65.5 64t-61.5 62.5t-58.5 61t-44 47q-64 -68 -127.5 -132.5t-144 -135t-105.5 -70.5q-22 0 -55 33z" />
<glyph unicode="_" d="M0 -250q0 33 18 59.5t56 26.5q7 0 129.5 -7t212.5 -7h291q262 0 383 14q6 -18 6 -61q0 -36 -20.5 -61t-53.5 -25q-32 0 -142 8t-167 8h-293q-234 0 -414 -16q-6 31 -6 61z" />
<glyph unicode="`" horiz-adv-x="411" d="M-102 1343q0 54 71 95q60 -67 125.5 -122t104 -79.5t63.5 -50.5t25 -51q0 -31 -33 -60q-58 44 -157 98.5t-149 92t-50 77.5z" />
<glyph unicode="a" horiz-adv-x="950" d="M92 268q0 55 14.5 96t43 66.5t57.5 39.5t69 26q150 42 390 55q0 88 -7.5 140.5t-31.5 93t-68.5 57t-118.5 16.5q-58 0 -119.5 -37t-91.5 -106q-94 18 -94 82q0 79 98.5 127.5t229.5 48.5q177 0 258.5 -73t81.5 -261q0 -17 -2 -121t-2 -156q0 -236 39 -352 q-32 -16 -80 -16q-44 0 -62.5 21.5t-25.5 68.5q-60 -50 -129.5 -77t-132.5 -27q-316 0 -316 288zM236 268q0 -91 53 -135.5t135 -44.5q63 0 127.5 25.5t107.5 66.5q-2 29 -2 96q0 70 7 170q-223 -25 -299 -48q-120 -37 -128 -116q-1 -7 -1 -14z" />
<glyph unicode="b" horiz-adv-x="1040" d="M123 1516q24 6 74 6q92 0 92 -78q0 -26 -2 -270t-2 -310q149 109 317 109q159 0 259 -115.5t100 -345.5q0 -107 -26.5 -201.5t-78.5 -169t-136 -118t-190 -43.5q-226 0 -389 139q15 132 15 440q0 178 -10.5 528t-22.5 429zM283 201q120 -107 266 -107q70 0 123.5 35 t84 93.5t45.5 126.5t15 143q0 185 -73.5 275.5t-184.5 90.5q-69 0 -142 -29t-130 -79q0 -25 1 -132t1 -172q0 -162 -6 -245z" />
<glyph unicode="c" horiz-adv-x="915" d="M92 465q0 104 27.5 190.5t72.5 144t104.5 97.5t121.5 58t125 18q64 0 128.5 -18t114.5 -61t50 -101q0 -36 -27 -59t-72 -29q-20 73 -87 113t-140 40q-115 0 -193.5 -101t-78.5 -265q0 -205 83 -301.5t214 -96.5q62 0 125 27t90 80q81 -32 81 -82q0 -46 -49 -79 t-115 -46.5t-139 -13.5q-70 0 -132.5 17t-118.5 55t-97 93.5t-64.5 137.5t-23.5 182z" />
<glyph unicode="d" horiz-adv-x="1056" d="M92 475q0 223 126 360.5t304 137.5q122 0 238 -70q4 132 4 213q0 252 -16 400q33 6 73 6q92 0 92 -78q0 -73 -9 -452.5t-9 -534.5q0 -344 39 -447q-32 -16 -78 -16q-87 0 -90 102q-122 -116 -268 -116q-165 0 -285.5 140t-120.5 355zM236 504q0 -182 85.5 -299 t208.5 -117q122 0 230 117q-4 528 -4 592q-109 61 -211 61q-144 0 -226.5 -97.5t-82.5 -256.5z" />
<glyph unicode="e" horiz-adv-x="962" d="M92 471q0 125 40 223.5t106 158t145.5 90t165.5 30.5q143 0 232 -81.5t89 -189.5q0 -44 -9 -80.5t-23.5 -64t-41.5 -49t-55.5 -37t-72 -26t-85 -16.5t-101 -9.5t-112.5 -4.5t-128 -1q16 -147 89 -233.5t201 -86.5q64 0 125.5 26t92.5 81q81 -31 81 -86q0 -42 -47 -73.5 t-114.5 -46.5t-139.5 -15q-92 0 -169.5 28.5t-138.5 86t-95.5 153.5t-34.5 223zM240 516q63 0 105.5 1t98.5 5t92.5 11t76.5 20.5t63 32.5t38 47.5t15 64.5q0 65 -54 113.5t-134 48.5q-56 0 -107 -18.5t-94.5 -57.5t-70.5 -108t-29 -160z" />
<glyph unicode="f" horiz-adv-x="620" d="M10 883q0 35 20 48t56 17q46 4 90 4q0 95 7 165t28 139t57 112t97.5 69.5t146.5 26.5q74 0 127 -23t53 -59q0 -39 -41 -96q-31 28 -80 46t-98 18q-40 0 -68.5 -13t-46.5 -36.5t-28.5 -62.5t-14.5 -83t-4 -106v-97q189 0 279 9q8 -16 8 -48q0 -40 -21.5 -54.5t-68.5 -16.5 q-66 -2 -197 -2v-426q0 -273 39 -404q-37 -16 -78 -16q-57 0 -78.5 24.5t-21.5 81.5q0 25 2 280t2 458q-58 0 -160 -11q-6 21 -6 56z" />
<glyph unicode="g" horiz-adv-x="1060" d="M72 -274q0 118 135 225q-30 23 -46 44t-16 50q0 34 39 99.5t103 136.5q-94 42 -145.5 125.5t-51.5 199.5q0 156 110.5 261.5t278.5 105.5q152 0 256 -80q87 115 185 115q40 0 70 -18.5t30 -53.5q0 -29 -16 -72q-16 4 -52 4q-77 0 -151 -41q67 -92 67 -221 q0 -167 -114 -265.5t-275 -98.5q-59 0 -112 12q-31 -37 -54.5 -84.5t-23.5 -71.5q0 -51 135 -51h235q61 0 111.5 -10t96 -33t71 -68t25.5 -108q0 -102 -71 -182t-185.5 -121t-249.5 -41q-191 0 -288 70t-97 172zM215 -268q0 -133 248 -133q181 0 274.5 57.5t93.5 142.5 q0 65 -39 90t-120 25h-211q-117 0 -170 10q-76 -115 -76 -192zM233 625q0 -116 64.5 -192.5t179.5 -76.5q134 0 191 57t57 175q0 115 -66.5 192.5t-181.5 77.5q-132 0 -188 -61t-56 -172z" />
<glyph unicode="h" horiz-adv-x="1034" d="M123 74q0 16 5 179t10 394.5t5 413.5q0 327 -16 455q33 6 74 6q92 0 92 -78q0 -71 -14 -598q147 127 329 127q277 0 277 -320q0 -5 -4 -133t-4 -201q0 -192 34 -309q-40 -16 -80 -16q-54 0 -77 23.5t-23 80.5q0 74 6 292.5t6 258.5q0 92 -55 150.5t-127 58.5 q-61 0 -145 -38t-137 -97q-9 -326 -9 -383q0 -162 15 -338q-33 -6 -70 -6q-92 0 -92 78z" />
<glyph unicode="i" horiz-adv-x="436" d="M109 1178q0 45 32.5 76.5t75.5 31.5q42 0 72 -31.5t30 -76.5q0 -48 -32 -79.5t-74 -31.5q-44 0 -74 31t-30 80zM135 952q33 6 70 6q96 0 96 -77q0 -11 -4 -83.5t-8 -179.5t-4 -202q0 -89 1.5 -139.5t10.5 -128.5t27 -138q-37 -16 -78 -16q-59 0 -80 27t-21 90 q0 34 2.5 162t2.5 200q0 280 -15 479z" />
<glyph unicode="j" horiz-adv-x="460" d="M-276 -410q0 45 53 84q83 -86 211 -86q82 0 132 60t50 190q0 12 -1.5 109t-3 244.5t-1.5 281.5q0 293 -14 479q33 6 69 6q96 0 96 -77q0 -7 -4 -70t-8 -177t-4 -245q0 -62 4 -240t4 -296q0 -181 -90 -276t-258 -95q-95 0 -165 31t-70 77zM127 1178q0 45 32.5 76.5 t76.5 31.5q42 0 72 -31.5t30 -76.5q0 -48 -32.5 -79.5t-74.5 -31.5q-44 0 -74 31t-30 80z" />
<glyph unicode="k" horiz-adv-x="976" d="M123 1516q33 6 72 6q94 0 94 -78q0 -9 -3.5 -94.5t-7 -228t-4.5 -285.5q73 68 156.5 102.5t157.5 34.5q132 0 202 -73t70 -179q0 -125 -77.5 -216.5t-213.5 -105.5q4 -7 18 -30.5t19 -32t18 -29.5t20 -31.5t18.5 -28t20.5 -28.5t19.5 -24t20.5 -23q35 -36 62.5 -51 t64.5 -15q31 0 53 9q19 -38 19 -60q0 -25 -24 -43.5t-51 -25t-50 -6.5q-46 0 -79.5 17.5t-68.5 55.5q-32 34 -67.5 84.5t-54 80.5t-60.5 102t-51 86q-27 3 -40.5 12.5t-13.5 30.5t11 49q69 -15 104 -15q113 0 174.5 62.5t61.5 144.5q0 70 -42.5 119t-117.5 49 q-68 0 -146 -42t-133 -105v-297q0 -273 39 -404q-37 -16 -77 -16q-57 0 -79 24.5t-22 81.5q0 44 2 261t2 325v238q0 485 -16 592z" />
<glyph unicode="l" horiz-adv-x="436" d="M123 1516q33 6 72 6q94 0 94 -78q0 -8 -3.5 -110t-7.5 -268.5t-4 -332.5v-319q0 -273 39 -404q-37 -16 -77 -16q-57 0 -79 24.5t-22 81.5q0 44 2 261t2 325v238q0 485 -16 592z" />
<glyph unicode="m" horiz-adv-x="1583" d="M123 942q41 16 74 16q94 0 94 -102q64 51 151.5 84t169.5 33q168 0 228 -133q56 56 154.5 94.5t187.5 38.5q111 0 180.5 -68.5t69.5 -220.5q0 -5 -3.5 -148.5t-3.5 -216.5q0 -188 35 -309q-40 -16 -80 -16q-54 0 -77 23.5t-23 80.5q0 74 6 282.5t6 248.5q0 117 -47.5 173 t-126.5 56q-120 0 -254 -108q4 -278 4 -410q0 -186 13 -338q-33 -6 -70 -6q-92 0 -92 78q0 9 2.5 83.5t5 203t2.5 268.5q0 124 -51 176.5t-129 52.5q-54 0 -123.5 -32t-128.5 -81q4 -278 4 -405q0 -198 12 -338q-33 -6 -69 -6q-92 0 -92 78q0 7 5 150t5 284q0 337 -39 434z " />
<glyph unicode="n" horiz-adv-x="1062" d="M123 942q41 16 74 16q94 0 94 -102q61 48 157.5 82.5t188.5 34.5q57 0 104.5 -15t86.5 -47.5t61 -90t22 -136.5q0 -5 -3 -148.5t-3 -216.5q0 -188 35 -309q-40 -16 -80 -16q-54 0 -77 23.5t-23 80.5q0 74 6 282.5t6 248.5q0 115 -56 172t-145 57q-66 0 -138.5 -30 t-135.5 -83q4 -278 4 -405q0 -198 12 -338q-33 -6 -69 -6q-92 0 -92 78q0 7 5 150t5 284q0 337 -39 434z" />
<glyph unicode="o" horiz-adv-x="1075" d="M92 475q0 226 123 362t322 136q200 0 323 -136t123 -362t-122.5 -360.5t-323.5 -134.5q-200 0 -322.5 134.5t-122.5 360.5zM236 504q0 -176 80 -293t221 -117q144 0 223.5 96.5t79.5 255.5q0 176 -81.5 294t-221.5 118q-143 0 -222 -96.5t-79 -257.5z" />
<glyph unicode="p" horiz-adv-x="1058" d="M123 942q37 16 80 16q36 0 62 -22.5t26 -79.5q155 117 323 117q73 0 135 -25.5t111.5 -77t78 -139t28.5 -201.5q0 -109 -27.5 -206.5t-80.5 -175t-139 -123t-194 -45.5q-50 0 -113.5 18t-115.5 51q0 -8 0.5 -107.5t2 -132.5t5 -106.5t12 -120.5t21.5 -84q-37 -16 -82 -16 q-59 0 -79.5 27t-20.5 90q0 201 3 498t3 413q0 325 -39 432zM297 745q4 -450 4 -589q43 -29 111.5 -45.5t134.5 -16.5q71 0 125.5 35.5t86 95.5t47 129.5t15.5 145.5q0 183 -70.5 270.5t-181.5 87.5q-139 0 -272 -113z" />
<glyph unicode="q" horiz-adv-x="1060" d="M92 473q0 230 127.5 365t317.5 135q103 0 209.5 -35.5t189.5 -103.5q-11 -120 -22 -372.5t-11 -477.5q0 -385 35 -486q-40 -16 -80 -16q-60 0 -80 27.5t-20 76.5q0 102 4 272t4 222q-111 -100 -260 -100q-169 0 -291.5 141t-122.5 352zM236 514q0 -191 84.5 -305.5 t209.5 -114.5q133 0 238 113q3 221 20 553q-106 98 -264 98q-121 0 -204.5 -97t-83.5 -247z" />
<glyph unicode="r" horiz-adv-x="645" d="M123 952q33 6 70 6q88 0 88 -77q0 -3 -1 -27.5t-1 -44.5q41 63 109 113.5t136 50.5q48 0 74.5 -22t26.5 -58q0 -39 -41 -92q-45 39 -99 39q-58 0 -115 -45t-96 -119q-2 -70 -2 -260q0 -89 1.5 -139.5t10.5 -128.5t27 -138q-37 -16 -78 -16q-59 0 -79.5 27t-20.5 90 q0 34 2 162t2 200q0 293 -14 479z" />
<glyph unicode="s" horiz-adv-x="837" d="M82 143q0 36 24 54.5t68 31.5q22 -65 97.5 -100t162.5 -35q89 0 143 39t54 121q0 40 -22.5 68t-60 42t-85 27.5t-97 24t-97 32.5t-85 51t-60 81t-22.5 122q0 79 52 142.5t129.5 96t162.5 32.5q59 0 120.5 -16t111 -54.5t49.5 -91.5q0 -64 -92 -86q-22 60 -92 96.5 t-146 36.5q-70 0 -121 -38t-51 -107q0 -46 29 -76.5t76 -47t103.5 -30.5t112.5 -32.5t103 -46.5t76 -79.5t29 -124.5q0 -75 -31 -134t-82.5 -93t-112.5 -51.5t-127 -17.5q-125 0 -222 47t-97 116z" />
<glyph unicode="t" horiz-adv-x="720" d="M0 879q0 47 30 60t105 13h58q-4 118 -13 230q30 6 68 6q98 0 98 -78q0 -28 -8 -160q250 0 344 11q8 -16 8 -48q0 -40 -21.5 -54.5t-68.5 -16.5q-70 -2 -266 -2q-4 -221 -4 -465q0 -92 10.5 -150t34 -87.5t52.5 -39.5t75 -10q39 0 79 17t68 45q37 -40 37 -74 q0 -43 -53.5 -69.5t-128.5 -26.5q-170 0 -240.5 98t-70.5 293q4 371 4 471q-43 -1 -117 -8l-74 -7q-6 18 -6 52z" />
<glyph unicode="u" horiz-adv-x="1060" d="M123 942q40 16 80 16q54 0 77 -23.5t23 -80.5q0 -74 -6 -282t-6 -248q0 -111 54 -170.5t140 -59.5q69 0 143 30t134 83q-2 88 -2 268q0 285 -15 477q33 6 70 6q92 0 92 -77q0 -7 -4 -165.5t-4 -299.5q0 -162 8 -242.5t31 -163.5q-41 -16 -76 -16q-94 0 -94 102 q-67 -53 -154 -84.5t-172 -31.5q-290 0 -290 288q0 5 3 148.5t3 216.5q0 188 -35 309z" />
<glyph unicode="v" horiz-adv-x="899" d="M-6 907q62 56 112 56q51 0 82 -72q43 -98 127 -338.5t125 -405.5q84 108 169 344t85 408q0 34 -6 64q31 10 66 10q75 0 75 -78q0 -139 -102 -416t-207 -405q-40 -48 -66 -64t-67 -16q-23 0 -53 6q-47 234 -156 533t-184 374z" />
<glyph unicode="w" horiz-adv-x="1419" d="M-6 907q62 56 112 56q51 0 82 -72q38 -93 112 -335t110 -409q76 109 153.5 344t77.5 406q0 36 -6 66q31 10 65 10q76 0 76 -74q0 -90 -2 -104q47 -77 108 -272t101 -376q76 109 153.5 344t77.5 406q0 36 -6 66q31 10 66 10q76 0 76 -80q0 -71 -35.5 -211t-87.5 -274 q-92 -231 -174 -334q-38 -48 -62.5 -64t-62.5 -16q-21 0 -51 6q-56 280 -162 586q-30 -100 -62 -178q-92 -231 -174 -334q-38 -48 -62.5 -64t-62.5 -16q-21 0 -51 6q-44 236 -143 534.5t-166 372.5z" />
<glyph unicode="x" horiz-adv-x="886" d="M51 57q0 25 21 64.5t68 98t74.5 91.5t90.5 102.5t66 73.5q-209 341 -314 408q63 78 117 78q41 0 84 -55q88 -129 205 -320q79 101 139.5 209.5t67.5 165.5q114 -19 114 -78q0 -48 -78.5 -159t-185.5 -232q96 -164 187 -287t149 -158q-60 -79 -115 -79q-40 0 -82 57 q-81 108 -233 360q-84 -97 -165.5 -220.5t-98.5 -196.5q-111 19 -111 77z" />
<glyph unicode="y" horiz-adv-x="903" d="M0 897q38 34 64 50t53 16q48 0 80 -66q47 -97 144 -342.5t144 -407.5q89 190 155.5 409.5t66.5 346.5q0 11 -1 20t-2 20t-2 20q31 10 68 10q72 0 72 -82q0 -96 -73 -326t-173 -444q-182 -387 -340 -582q-40 -53 -80 -53q-58 0 -113 82q63 40 165.5 159t177.5 240 q-41 138 -106.5 317t-152.5 367t-147 246z" />
<glyph unicode="z" horiz-adv-x="929" d="M51 117q0 61 45 106l596 613q-114 12 -221 12q-213 0 -360 -49q-19 47 -19 86q4 49 53 63q52 17 189 17q265 0 440 -41q33 -33 33 -95q0 -59 -35 -94l-604 -629q70 -6 137 -6q216 0 455 62q18 -36 18 -80q0 -29 -17 -46.5t-36.5 -23t-52.5 -10.5q-95 -14 -248 -14 q-207 0 -342 24q-31 45 -31 105z" />
<glyph unicode="{" horiz-adv-x="872" d="M143 535v102q115 0 175.5 55.5t60.5 116.5v428q0 58 13 98t46.5 70.5t94.5 44.5t153 14q47 0 74 -2q8 -16 8 -47q0 -41 -23 -56.5t-75 -15.5q-39 0 -65.5 -2.5t-44 -11t-27.5 -16.5t-14.5 -26t-5.5 -32.5t-1 -42.5v-407q0 -65 -44 -132.5t-95 -86.5q51 -19 96 -86 t45 -131v-408q0 -29 1 -43t5.5 -32.5t14 -26t26.5 -16t43.5 -11t65.5 -2.5q52 0 75 -15.5t23 -56.5q0 -31 -8 -47q-27 -2 -74 -2q-122 0 -191 27.5t-93.5 75t-24.5 125.5v428q0 61 -59.5 115.5t-174.5 54.5z" />
<glyph unicode="|" d="M469 1501q33 6 61 6q95 0 95 -77q0 -8 -3.5 -110t-7.5 -268.5t-4 -332.5v-631q0 -478 17 -592q-33 -6 -62 -6q-94 0 -94 78q0 8 3.5 110t7 268.5t3.5 332.5v630q0 485 -16 592z" />
<glyph unicode="}" horiz-adv-x="827" d="M61 -242q0 41 23.5 56.5t75.5 15.5q29 0 51 1.5t38.5 6t27.5 8.5t18.5 14.5t11.5 17.5t5.5 23t2 27t0.5 33v408q0 64 45.5 131t96.5 86q-51 19 -95.5 87t-44.5 132v407q0 29 -1 43t-5.5 32t-14 26t-27 16.5t-44 11t-65.5 2.5q-52 0 -75.5 15.5t-23.5 56.5q0 29 9 47 q27 2 73 2q92 0 153 -14.5t95 -44.5t47 -70t13 -98v-428q0 -61 60 -116.5t175 -55.5v-102q-115 0 -174 -54.5t-59 -115.5v-428q0 -58 -13.5 -98t-47.5 -70.5t-95.5 -45t-153.5 -14.5q-46 0 -73 2q-9 18 -9 47z" />
<glyph unicode="~" horiz-adv-x="1118" d="M82 547q0 127 201 127q104 0 266.5 -41t238.5 -41q134 0 209 72q39 -54 39 -101q0 -34 -22 -59.5t-59 -39.5t-79 -21t-88 -7q-64 0 -219 41t-239 41q-134 0 -209 -72q-39 54 -39 101z" />
<glyph unicode="&#xa1;" horiz-adv-x="636" d="M184 844q0 56 35.5 92.5t87.5 36.5t88.5 -36.5t36.5 -92.5q0 -55 -37 -93t-88 -38t-87 38t-36 93zM227 -348q0 57 18.5 229t18.5 320v90q0 164 -33 254q42 20 76 20q81 0 84 -98q1 -27 1.5 -233t8.5 -395t29 -273q-77 -15 -106 -15q-97 0 -97 101z" />
<glyph unicode="&#xa2;" d="M123 690q0 112 35 202.5t95 148.5t133 93t157 48q-1 25 -11 188q21 6 35 6q56 0 56 -55v-131h16q43 0 96 -10t105.5 -29t87.5 -52.5t35 -74.5q0 -31 -24 -56t-65 -34q-57 79 -112.5 110t-122.5 31h-16v-776h20q65 0 120.5 31t110.5 110q41 -9 65 -34t24 -56 q0 -41 -35 -74.5t-87.5 -52.5t-105.5 -29t-96 -10h-16q2 -75 10 -172l-31 -4q-59 0 -59 55v130q-85 12 -157 46t-133 92t-95.5 150t-34.5 209zM279 686q0 -156 74 -250.5t190 -124.5v750q-116 -28 -190 -123t-74 -252z" />
<glyph unicode="&#xa3;" d="M143 102q145 88 226.5 213t81.5 232q0 61 -25 141q-128 0 -221 -8q-6 18 -6 33q0 50 63 53q75 6 131 6q-8 18 -30.5 68t-32 74t-19.5 63t-10 72q0 76 37 150.5t111 126.5t167 52q61 0 110.5 -30t49.5 -86q0 -27 -21.5 -51.5t-47.5 -36.5q-21 34 -59 52.5t-79 18.5 q-56 0 -94.5 -34.5t-38.5 -102.5q0 -43 21.5 -94.5t58.5 -121t55 -114.5q167 9 269 23q8 -16 8 -47q0 -46 -26.5 -60t-80.5 -14q-88 0 -139 2q10 -48 10 -88q0 -225 -313 -481q55 -7 178 -7q274 0 451 66q30 -47 30 -82q0 -49 -55 -70q-74 -26 -299 -26q-106 0 -243 6.5 t-199 17.5q-19 27 -19 84z" />
<glyph unicode="&#xa5;" d="M14 1286q51 82 119 82q40 0 90 -74q177 -260 334 -551q97 129 206.5 342.5t113.5 288.5q8 2 30 2q94 0 94 -80q0 -48 -113 -246.5t-224 -342.5q190 0 297 10l4 -31q0 -59 -56 -59h-311v-146h31q203 0 332 11l4 -31q0 -60 -56 -60h-311q0 -155 7.5 -236.5t29.5 -154.5 q-37 -16 -78 -16q-56 0 -78 25t-22 75q2 149 2 307h-19q-214 0 -329 -10q-7 25 -7 35q0 55 56 55h301v146h-21q-202 0 -329 -11q-7 24 -7 35q0 56 56 56h260q-242 463 -406 579z" />
<glyph unicode="&#xa6;" d="M469 393q33 6 61 6q95 0 95 -77q0 -11 -7.5 -147.5t-7.5 -203.5v-82q0 -236 17 -393q-33 -6 -62 -6q-94 0 -94 78q0 11 7 178.5t7 235.5v63q0 241 -16 348zM469 1503q33 6 61 6q95 0 95 -77q0 -11 -7.5 -147.5t-7.5 -203.5v-80q0 -236 17 -393q-33 -6 -62 -6 q-94 0 -94 78q0 11 7 178.5t7 235.5v61q0 241 -16 348z" />
<glyph unicode="&#xa7;" horiz-adv-x="911" d="M92 4q0 36 24 54.5t68 31.5q23 -62 91.5 -97.5t181.5 -35.5q81 0 132.5 38.5t51.5 121.5q0 53 -22.5 94.5t-60 67.5t-85 51.5t-96.5 44.5t-96.5 47.5t-85 60.5t-60 83.5t-22.5 115.5q0 131 96 217q-51 99 -51 191q0 128 94.5 207t247.5 79q58 0 119.5 -16t111 -54.5 t49.5 -91.5q0 -64 -92 -86q-22 60 -91.5 97t-145.5 37q-73 0 -122.5 -36t-49.5 -108q0 -62 29 -108.5t76 -76.5t103.5 -56t113 -54.5t103.5 -63.5t76 -92t29 -132q0 -61 -25.5 -118.5t-68.5 -99.5q53 -86 53 -178q0 -125 -94 -212t-262 -87q-125 0 -222.5 47.5t-97.5 116.5z M236 719q0 -53 28 -92.5t76.5 -68t100 -51.5t113.5 -55t103 -67q29 49 29 113q0 56 -28 96.5t-76.5 67t-100.5 48t-114 53t-103 68.5q-28 -45 -28 -112z" />
<glyph unicode="&#xa8;" horiz-adv-x="526" d="M-27 1178q0 45 32.5 76.5t76.5 31.5q42 0 72 -31.5t30 -76.5q0 -48 -32 -79.5t-74 -31.5q-44 0 -74.5 31t-30.5 80zM338 1178q0 45 32.5 76.5t75.5 31.5q42 0 72.5 -31.5t30.5 -76.5q0 -48 -32.5 -79.5t-74.5 -31.5q-44 0 -74 31t-30 80z" />
<glyph unicode="&#xa9;" horiz-adv-x="1818" d="M266 655q0 154 55.5 289t150 230.5t226 150.5t279.5 55q145 0 275 -55t225 -150t150.5 -230.5t55.5 -289.5q0 -152 -55.5 -287.5t-150.5 -231t-225 -151t-275 -55.5q-147 0 -279 55.5t-226.5 151.5t-150 230.5t-55.5 287.5zM414 655q0 -137 44.5 -252t121 -192.5 t179 -120.5t218.5 -43q113 0 215 43t178 120.5t121 193t45 251.5t-45 251t-121 193t-178 121.5t-215 43.5q-115 0 -218 -43.5t-179.5 -121.5t-121 -193t-44.5 -251zM580 651q0 97 25.5 177t67 133.5t96.5 90.5t112.5 53.5t115.5 16.5q39 0 83.5 -10t87 -29t70.5 -52.5 t28 -74.5q0 -71 -88 -82q-19 64 -75 95.5t-120 31.5q-98 0 -164.5 -89.5t-66.5 -235.5q0 -96 24.5 -167.5t65.5 -110.5t87.5 -57.5t98.5 -18.5q121 0 176 77q60 -33 60 -77q0 -49 -75.5 -85t-178.5 -36q-51 0 -100 10t-98 31t-90.5 57t-73.5 84t-50 117t-18 151z" />
<glyph unicode="&#xaa;" horiz-adv-x="618" d="M61 575q0 27 18 48.5t56 21.5q4 0 74 -7t121 -7q152 0 221 14q6 -21 6 -41q0 -36 -19.5 -58t-54.5 -22q-18 0 -82.5 8.5t-97.5 8.5q-127 0 -235 -17q-7 29 -7 51zM88 932q0 102 105 129q92 25 217 29q0 86 -22.5 117.5t-96.5 31.5q-35 0 -71 -18.5t-52 -55.5 q-28 6 -45 19t-17 30q0 47 61.5 75t139.5 28q106 0 155.5 -40.5t49.5 -143.5q0 -9 -1 -66t-1 -86q0 -134 20 -195q-24 -8 -55 -8q-32 0 -46 12t-17 37q-69 -57 -146 -57q-178 0 -178 162zM201 936q0 -90 90 -90q73 0 110 43v51q0 48 5 84q-37 -4 -56.5 -6.5t-47.5 -7 t-43 -10.5t-30 -14.5t-21.5 -21t-6.5 -28.5z" />
<glyph unicode="&#xab;" horiz-adv-x="970" d="M82 481q206 282 338 391q41 -30 41 -57q0 -30 -73.5 -139t-143.5 -195q70 -86 143.5 -195t73.5 -139q0 -27 -41 -57q-132 109 -338 391zM469 481q206 282 338 391q41 -30 41 -57q0 -30 -73.5 -139t-143.5 -195q70 -86 143.5 -195t73.5 -139q0 -27 -41 -57 q-132 109 -338 391z" />
<glyph unicode="&#xac;" d="M102 588q0 76 86 76h727l5 -455q0 -57 -19 -81t-72 -24q-35 0 -69 17q16 53 24.5 123t9.5 115t1 124v74h-473q-116 0 -205 -31q-15 37 -15 62z" />
<glyph unicode="&#xad;" horiz-adv-x="471" d="M51 522q0 32 18 56t56 24q3 0 63 -4t107 -4q97 0 160 14q6 -18 6 -61q0 -36 -20.5 -58t-53.5 -22q-13 0 -64.5 5t-93.5 5q-97 0 -172 -16q-6 31 -6 61z" />
<glyph unicode="&#xae;" horiz-adv-x="1243" d="M205 901q0 205 135 341t334 136q194 0 330.5 -137t136.5 -340q0 -202 -136.5 -339.5t-330.5 -137.5q-199 0 -334 137t-135 340zM326 901q0 -168 100.5 -271.5t247.5 -103.5q145 0 245.5 104t100.5 271t-100.5 271t-245.5 104q-147 0 -247.5 -103.5t-100.5 -271.5z M487 1143q128 10 166 10q221 0 221 -147q0 -112 -131 -138q41 -71 97 -131q16 -16 45 -16q4 -8 4 -23q0 -20 -11 -28t-38 -8q-55 0 -90 51q-7 10 -48.5 66.5t-56.5 80.5q-25 0 -45 6v-53q0 -90 16 -137q-18 -10 -61 -10q-35 0 -49 11.5t-14 35.5q0 6 2 53.5t2 69.5v141 q0 99 -9 166zM598 1083q2 -20 2 -163q45 -9 55 -9q49 0 83 23t34 72q0 81 -127 81q-15 0 -47 -4z" />
<glyph unicode="&#xaf;" horiz-adv-x="557" d="M0 1184q0 76 61 76q6 0 88.5 -6.5t120.5 -6.5h45q128 0 238 13q4 -27 4 -56q0 -76 -61 -76q-6 0 -42.5 3t-90 6.5t-101.5 3.5h-45q-114 0 -213 -13q-4 20 -4 56z" />
<glyph unicode="&#xb0;" horiz-adv-x="831" d="M98 1120q0 138 89.5 229t230.5 91q132 0 218.5 -89t86.5 -221q0 -140 -88 -230.5t-227 -90.5q-136 0 -223 88.5t-87 222.5zM225 1120q0 -93 48 -153t135 -60q89 0 137.5 63t48.5 158q0 93 -46 153t-132 60q-90 0 -140.5 -63t-50.5 -158z" />
<glyph unicode="&#xb1;" d="M121 74q0 33 18 59.5t56 26.5q7 0 129.5 -7.5t212.5 -7.5q259 0 391 15q6 -18 6 -62q0 -36 -20.5 -61t-53.5 -25t-146.5 8.5t-172.5 8.5q-223 0 -414 -17q-6 31 -6 62zM121 586q0 33 18 59.5t56 26.5q14 0 111 -6.5t183 -8.5q0 181 -16 322q18 6 62 6q36 0 61 -20.5 t25 -53.5q0 -34 -7.5 -119.5t-7.5 -136.5q43 0 169 4.5t194 12.5q6 -18 6 -62q0 -36 -20.5 -61t-53.5 -25q-34 0 -140 7.5t-157 7.5q0 -54 1.5 -99t2.5 -62.5t6.5 -70t6.5 -69.5q-36 -7 -62 -7q-34 0 -60 19t-26 55q0 12 6 77.5t8 158.5q-159 -2 -360 -17q-6 31 -6 62z" />
<glyph unicode="&#xb2;" horiz-adv-x="921" d="M123 537q0 28 2 34q230 134 348.5 278.5t118.5 262.5q0 72 -47 117t-123 45q-53 0 -112.5 -43t-94.5 -107q-31 3 -48 18.5t-17 39.5q0 63 92.5 129.5t206.5 66.5q124 0 200 -69.5t76 -180.5q0 -130 -116.5 -279t-354.5 -286q59 -2 174 -2q223 0 334 49q26 -39 26 -82 q0 -35 -47 -53q-65 -24 -278 -24q-152 0 -254 4q-86 0 -86 82z" />
<glyph unicode="&#xb3;" horiz-adv-x="868" d="M123 553q0 43 57 61q39 -40 95 -62t114 -22q90 0 146.5 46t56.5 129q0 184 -242 184q-25 0 -37 8.5t-12 38.5q0 19 2 29q23 0 37 2q118 10 176.5 47.5t58.5 120.5q0 67 -34 103t-121 36q-59 0 -107 -26.5t-94 -82.5q-65 12 -65 66q0 39 43 72q98 75 231 75 q142 0 211.5 -59.5t69.5 -159.5q0 -164 -177 -221q98 -30 145.5 -93t47.5 -140q0 -52 -21 -100t-62 -89t-110 -65.5t-155 -24.5q-100 0 -177 35t-77 92z" />
<glyph unicode="&#xb4;" horiz-adv-x="411" d="M123 1133q0 27 22.5 51t58.5 46.5t103.5 78.5t134.5 129q72 -41 72 -95q0 -40 -51 -75q-46 -33 -163 -102t-144 -93q-33 29 -33 60z" />
<glyph unicode="&#xb5;" horiz-adv-x="1050" d="M113 942q40 16 80 16q54 0 77 -23.5t23 -80.5q0 -74 -6 -282t-6 -248q0 -111 54 -170.5t140 -59.5q69 0 143 30t134 83q-2 88 -2 268q0 285 -15 477q33 6 70 6q92 0 92 -77q0 -7 -4 -165.5t-4 -299.5q0 -162 8 -242.5t31 -163.5q-41 -16 -76 -16q-94 0 -94 102 q-62 -51 -148 -83.5t-168 -32.5q-113 0 -182 61q-16 -69 -16 -145q0 -187 75 -398q-37 -16 -81 -16q-59 0 -80 27t-21 90q0 281 4 671q0 6 3 148t3 215q0 192 -34 309z" />
<glyph unicode="&#xb6;" horiz-adv-x="989" d="M92 803q0 173 105.5 274t263.5 101q12 0 127.5 -4.5t171.5 -4.5q115 0 178 2q10 -30 10 -49q0 -69 -119 -69h-45q-26 -310 -26 -713q0 -52 4 -222t4 -272q0 -49 -20 -76.5t-80 -27.5q-40 0 -80 16q35 99 35 465q0 543 20 830q-95 0 -113 4q-20 -187 -20 -576 q0 -35 -92 -35q-133 0 -228.5 99.5t-95.5 257.5z" />
<glyph unicode="&#xb7;" horiz-adv-x="411" d="M82 532q0 55 37 93.5t88 38.5t87 -38.5t36 -93.5q0 -56 -35.5 -92.5t-87.5 -36.5t-88.5 36.5t-36.5 92.5z" />
<glyph unicode="&#xb8;" horiz-adv-x="317" d="M61 -424q0 32 27 59q32 -18 64 -18q48 0 75 21t27 61q0 25 -13 46.5t-31 37t-36.5 30.5t-31.5 34.5t-13 41.5q0 9 4.5 31.5t19 64.5t35.5 81l76 -11q-3 -9 -13.5 -35.5t-17 -47.5t-6.5 -33q0 -6 1.5 -11t3 -9t6 -8.5t6.5 -7t8.5 -7t9 -6.5t11 -7t10.5 -6q96 -55 96 -149 q0 -78 -70.5 -140.5t-175.5 -62.5q-36 0 -54 14.5t-18 36.5z" />
<glyph unicode="&#xb9;" horiz-adv-x="784" d="M143 1274q0 25 16.5 46.5t53.5 29.5q134 28 193 28q29 0 51 -16t22 -53q0 -10 -3.5 -74t-7 -159t-3.5 -181v-96q0 -166 12 -250q78 0 156 8q8 -24 8 -41q0 -30 -17 -50t-55 -20q-13 0 -94 2.5t-160 2.5q-102 0 -159 -2q-11 29 -11 43q0 63 109 63h88q0 24 2 159.5 t2 231.5q0 180 -6 318q-134 -22 -184 -39q-13 26 -13 49z" />
<glyph unicode="&#xba;" horiz-adv-x="645" d="M61 1042q0 125 71.5 200t189.5 75q119 0 190.5 -74.5t71.5 -200.5q0 -124 -71.5 -198t-190.5 -74q-118 0 -189.5 74t-71.5 198zM76 575q0 27 18 48.5t56 21.5q4 0 73.5 -7t120.5 -7q152 0 221 14q6 -21 6 -41q0 -36 -19 -58t-54 -22q-18 0 -83 8.5t-98 8.5 q-127 0 -235 -17q-6 25 -6 51zM172 1059q0 -91 40 -150t110 -59q72 0 112.5 48t40.5 128q0 91 -41 151t-112 60t-110.5 -48.5t-39.5 -129.5z" />
<glyph unicode="&#xbb;" horiz-adv-x="970" d="M82 147q0 30 73.5 139t143.5 195q-70 86 -143.5 195t-73.5 139q0 27 41 57q132 -109 338 -391q-206 -282 -338 -391q-41 30 -41 57zM469 147q0 30 73.5 139t143.5 195q-70 86 -143.5 195t-73.5 139q0 27 41 57q132 -109 338 -391q-206 -282 -338 -391q-41 30 -41 57z" />
<glyph unicode="&#xbc;" horiz-adv-x="1871" d="M143 1274q0 25 16.5 46.5t53.5 29.5q134 28 193 28q29 0 51 -16t22 -53q0 -10 -3.5 -74t-7 -159t-3.5 -181v-96q0 -166 12 -250q78 0 156 8q8 -24 8 -41q0 -30 -17 -50t-55 -20q-13 0 -94 2.5t-160 2.5q-102 0 -159 -2q-11 29 -11 43q0 63 109 63h88q0 24 2 159.5 t2 231.5q0 180 -6 318q-134 -22 -184 -39q-13 26 -13 49zM461 -158q0 17 12 41l598 1198q133 265 203 435q37 0 68.5 -17t31.5 -47q0 -13 -43 -100q-35 -72 -110 -221.5t-207 -413t-252 -504.5q-134 -269 -201 -432q-41 0 -70.5 16t-29.5 45zM1040 352q0 35 2 47 q71 122 197 275.5t213 228.5q26 23 92 23q13 0 45 -4q0 -5 -4 -75.5t-8 -196.5t-4 -265q95 5 139 25q17 -34 17 -66q0 -52 -37 -63q-37 -13 -119 -15q0 -167 33 -270q-32 -16 -64 -16q-53 0 -71.5 24.5t-18.5 81.5q0 33 1.5 79.5t2.5 98.5q-268 0 -377 15q-39 3 -39 73z M1151 379q68 -4 305 -4q0 161 4 387q-21 -23 -71.5 -76.5t-76 -83t-71 -90t-90.5 -133.5z" />
<glyph unicode="&#xbd;" horiz-adv-x="1976" d="M143 1274q0 25 16.5 46.5t53.5 29.5q134 28 193 28q29 0 51 -16t22 -53q0 -10 -3.5 -74t-7 -159t-3.5 -181v-96q0 -166 12 -250q78 0 156 8q8 -24 8 -41q0 -30 -17 -50t-55 -20q-13 0 -94 2.5t-160 2.5q-102 0 -159 -2q-11 29 -11 43q0 63 109 63h88q0 24 2 159.5 t2 231.5q0 180 -6 318q-134 -22 -184 -39q-13 26 -13 49zM463 -158q0 17 12 41l598 1198q133 265 203 435q37 0 68.5 -17t31.5 -47q0 -13 -43 -100q-35 -72 -110 -221.5t-207 -413t-252 -504.5q-134 -269 -201 -432q-41 0 -70.5 16t-29.5 45zM1178 84q0 29 2 35 q230 134 348.5 278.5t118.5 261.5q0 72 -47 117t-123 45q-53 0 -112.5 -42.5t-94.5 -106.5q-32 3 -49 18t-17 39q0 63 92.5 130t206.5 67q124 0 200.5 -69.5t76.5 -180.5q0 -130 -116.5 -279t-354.5 -286q59 -2 174 -2q223 0 334 49q26 -39 26 -82q0 -35 -47 -53 q-68 -25 -278 -25q-152 0 -254 4q-86 0 -86 82z" />
<glyph unicode="&#xbe;" horiz-adv-x="1921" d="M123 553q0 43 57 61q39 -40 95 -62t114 -22q90 0 146.5 46t56.5 129q0 184 -242 184q-25 0 -37 8.5t-12 38.5q0 19 2 29q23 0 37 2q118 10 176.5 47.5t58.5 120.5q0 67 -34 103t-121 36q-59 0 -107 -26.5t-94 -82.5q-65 12 -65 66q0 39 43 72q98 75 231 75 q142 0 211.5 -59.5t69.5 -159.5q0 -164 -177 -221q98 -30 145.5 -93t47.5 -140q0 -52 -21 -100t-62 -89t-110 -65.5t-155 -24.5q-100 0 -177 35t-77 92zM510 -158q0 17 12 41l598 1198q133 265 203 435q37 0 68.5 -17t31.5 -47q0 -13 -43 -100q-35 -72 -110 -221.5 t-207 -413t-252 -504.5q-134 -269 -201 -432q-41 0 -70.5 16t-29.5 45zM1090 352q0 35 2 47q71 122 197 275.5t212 228.5q26 23 92 23q13 0 45 -4q0 -5 -4 -75.5t-8 -196.5t-4 -265q95 5 139 25q17 -34 17 -66q0 -52 -37 -63q-37 -13 -119 -15q0 -167 33 -270 q-32 -16 -64 -16q-53 0 -71.5 24.5t-18.5 81.5q0 33 1.5 79.5t2.5 98.5q-268 0 -377 15q-38 3 -38 73zM1200 379q68 -4 305 -4q0 161 4 387q-21 -23 -71.5 -76.5t-76 -83t-71 -90t-90.5 -133.5z" />
<glyph unicode="&#xbf;" horiz-adv-x="731" d="M41 -176q0 68 17.5 125.5t45 98t61 76t67.5 67.5t61.5 64t45 73t17.5 88q0 62 -22 129q44 20 78 20q50 0 72 -39.5t22 -99.5q0 -59 -23 -114.5t-58 -96.5t-75.5 -87.5t-75.5 -88.5t-58 -99.5t-23 -119.5q0 -86 71 -129q45 -25 103 -25q79 0 150 42.5t89 111.5 q94 -14 94 -90q0 -81 -90 -130t-215 -49q-136 0 -231 56q-123 72 -123 217zM287 844q0 56 35.5 92.5t87.5 36.5t88.5 -36.5t36.5 -92.5q0 -55 -37 -93t-88 -38t-87 38t-36 93z" />
<glyph unicode="&#xc0;" horiz-adv-x="1128" d="M10 39q1 25 88 229.5t212 521.5t196 562q41 6 86 6q51 0 71 -17.5t44 -91.5q126 -409 229 -676q61 -159 84.5 -219t67.5 -165t77 -169q-58 -40 -98 -40q-19 0 -32.5 2.5t-30 15.5t-25.5 37q-29 75 -141 393q-230 -4 -275 -4q-54 0 -258 4q-10 -25 -35.5 -88.5 t-39.5 -99.5t-34 -90t-35.5 -101t-27.5 -92q-68 13 -95.5 32t-27.5 50zM332 1737q0 53 71 94q60 -67 125.5 -122t104 -79.5t63.5 -50.5t25 -51q0 -31 -33 -60q-50 37 -121.5 79.5t-118 67.5t-81.5 58t-35 64zM356 549q160 -4 250 -4q128 0 189 4q-77 202 -211 616 q-15 -39 -93 -257t-135 -359z" />
<glyph unicode="&#xc1;" horiz-adv-x="1128" d="M10 39q1 25 88 229.5t212 521.5t196 562q41 6 86 6q51 0 71 -17.5t44 -91.5q126 -409 229 -676q61 -159 84.5 -219t67.5 -165t77 -169q-58 -40 -98 -40q-19 0 -32.5 2.5t-30 15.5t-25.5 37q-29 75 -141 393q-230 -4 -275 -4q-54 0 -258 4q-10 -25 -35.5 -88.5 t-39.5 -99.5t-34 -90t-35.5 -101t-27.5 -92q-68 13 -95.5 32t-27.5 50zM356 549q160 -4 250 -4q128 0 189 4q-77 202 -211 616q-15 -39 -93 -257t-135 -359zM481 1526q0 27 23 51t58.5 46.5t103.5 78.5t135 129q71 -41 71 -94q0 -41 -51 -76q-46 -33 -163 -102t-144 -93 q-33 29 -33 60z" />
<glyph unicode="&#xc2;" horiz-adv-x="1128" d="M10 39q1 25 88 229.5t212 521.5t196 562q41 6 86 6q51 0 71 -17.5t44 -91.5q126 -409 229 -676q61 -159 84.5 -219t67.5 -165t77 -169q-58 -40 -98 -40q-19 0 -32.5 2.5t-30 15.5t-25.5 37q-29 75 -141 393q-230 -4 -275 -4q-54 0 -258 4q-10 -25 -35.5 -88.5 t-39.5 -99.5t-34 -90t-35.5 -101t-27.5 -92q-68 13 -95.5 32t-27.5 50zM332 1509q60 72 139 147t150 128q57 -36 112 -78t104.5 -98t49.5 -95q0 -18 -13.5 -33.5t-33.5 -23.5q-38 49 -94 94.5t-93 66.5l-37 21q-11 -9 -38.5 -32t-41 -34t-37 -29.5t-37.5 -28.5t-31 -21 t-28.5 -15.5t-19.5 -4.5q-26 0 -51 36zM356 549q160 -4 250 -4q128 0 189 4q-77 202 -211 616q-15 -39 -93 -257t-135 -359z" />
<glyph unicode="&#xc3;" horiz-adv-x="1128" d="M10 39q1 25 88 229.5t212 521.5t196 562q41 6 86 6q51 0 71 -17.5t44 -91.5q126 -409 229 -676q61 -159 84.5 -219t67.5 -165t77 -169q-58 -40 -98 -40q-19 0 -32.5 2.5t-30 15.5t-25.5 37q-29 75 -141 393q-230 -4 -275 -4q-54 0 -258 4q-10 -25 -35.5 -88.5 t-39.5 -99.5t-34 -90t-35.5 -101t-27.5 -92q-68 13 -95.5 32t-27.5 50zM311 1520q0 55 64.5 109t136.5 54q37 0 116 -46t115 -46q22 0 57 26t64 60q4 -1 9.5 -4t14.5 -14t9 -25q0 -57 -63.5 -110.5t-135.5 -53.5q-43 0 -119.5 46.5t-113.5 46.5q-38 0 -121 -86 q-33 14 -33 43zM356 549q160 -4 250 -4q128 0 189 4q-77 202 -211 616q-15 -39 -93 -257t-135 -359z" />
<glyph unicode="&#xc4;" horiz-adv-x="1128" d="M10 39q1 25 88 229.5t212 521.5t196 562q41 6 86 6q51 0 71 -17.5t44 -91.5q126 -409 229 -676q61 -159 84.5 -219t67.5 -165t77 -169q-58 -40 -98 -40q-19 0 -32.5 2.5t-30 15.5t-25.5 37q-29 75 -141 393q-230 -4 -275 -4q-54 0 -258 4q-10 -25 -35.5 -88.5 t-39.5 -99.5t-34 -90t-35.5 -101t-27.5 -92q-68 13 -95.5 32t-27.5 50zM276 1569q0 45 32.5 76.5t76.5 31.5q42 0 72 -31.5t30 -76.5q0 -48 -32 -79.5t-74 -31.5q-44 0 -74.5 31t-30.5 80zM356 549q160 -4 250 -4q128 0 189 4q-77 202 -211 616q-15 -39 -93 -257t-135 -359z M641 1569q0 45 32.5 76.5t76.5 31.5q42 0 72 -31.5t30 -76.5q0 -48 -32.5 -79.5t-74.5 -31.5q-44 0 -74 31t-30 80z" />
<glyph unicode="&#xc5;" horiz-adv-x="1128" d="M10 39q1 25 88 229.5t212 521.5t196 562q41 6 86 6q51 0 71 -17.5t44 -91.5q126 -409 229 -676q61 -159 84.5 -219t67.5 -165t77 -169q-58 -40 -98 -40q-19 0 -32.5 2.5t-30 15.5t-25.5 37q-29 75 -141 393q-230 -4 -275 -4q-54 0 -258 4q-10 -25 -35.5 -88.5 t-39.5 -99.5t-34 -90t-35.5 -101t-27.5 -92q-68 13 -95.5 32t-27.5 50zM356 549q160 -4 250 -4q128 0 189 4q-77 202 -211 616q-15 -39 -93 -257t-135 -359zM428 1640q0 83 50 133t132 50q80 0 129 -50t49 -133t-49 -132.5t-129 -49.5q-82 0 -132 49.5t-50 132.5zM514 1649 q0 -54 25.5 -88.5t70.5 -34.5q44 0 68 28t24 76q0 55 -25 90t-67 35q-46 0 -71 -28t-25 -78z" />
<glyph unicode="&#xc6;" horiz-adv-x="1564" d="M0 63q0 18 47 106.5t135.5 246.5t132.5 241q208 391 328 682q253 25 508 25q295 0 332 -31q18 -15 18 -53q0 -49 -16 -90q-117 43 -381 43q-108 0 -225 -6q8 -91 8 -434h162q171 0 245 8q9 -18 9 -53q0 -46 -22 -63t-69 -19q-53 -2 -145 -2h-180q0 -280 2 -377t12 -160 q90 -4 146 -4q343 0 440 47q16 -41 16 -90q0 -38 -18 -53q-37 -31 -332 -31q-262 0 -324 4q-59 3 -79.5 28.5t-20.5 88.5q0 69 4 307h-139q-50 0 -254 4q-15 -30 -56.5 -107.5t-62 -118t-50 -104t-50.5 -118.5q-67 10 -94 30t-27 53zM406 549q160 -4 245 -4h82v323 q0 163 -10 316q-32 -60 -138 -280.5t-179 -354.5z" />
<glyph unicode="&#xc7;" horiz-adv-x="1232" d="M100 680q0 327 174 512.5t471 185.5q159 0 268 -64.5t109 -158.5q0 -42 -32 -68t-84 -34q-39 99 -123 149.5t-178 50.5q-127 0 -227 -70t-155 -191.5t-55 -270.5q0 -126 30.5 -236.5t87.5 -196t147 -135t202 -49.5q99 0 184 43t134 127q90 -36 90 -100q0 -71 -111 -130.5 t-278 -63.5q-9 -36 -9 -41q0 -6 1.5 -11t3 -9t6 -8.5t6.5 -7t8.5 -7t9 -6.5t11 -7t10.5 -6q96 -55 96 -149q0 -78 -70.5 -140.5t-175.5 -62.5q-36 0 -53.5 14.5t-17.5 36.5q0 33 26 59q32 -18 64 -18q48 0 75 21t27 61q0 25 -13 46.5t-31 37t-36.5 30.5t-31.5 34.5t-13 41.5 q0 32 23 95q-260 22 -415 212t-155 484z" />
<glyph unicode="&#xc8;" horiz-adv-x="995" d="M135 1346q219 18 447 18q294 0 331 -31q19 -16 19 -53q0 -46 -17 -90q-117 43 -380 43q-109 0 -226 -6q8 -91 8 -434h162q172 0 246 8q8 -16 8 -53q0 -47 -21.5 -63.5t-68.5 -18.5q-53 -2 -145 -2h-181q0 -270 2.5 -371.5t12.5 -165.5q90 -4 145 -4q344 0 441 47 q16 -41 16 -90q0 -37 -19 -53q-37 -31 -331 -31q-262 0 -324 4q-59 3 -79.5 28.5t-20.5 88.5q0 34 2 152t2 190v409q0 288 -29 478zM205 1747q0 53 71 94q60 -67 125.5 -122t104 -79.5t63.5 -50.5t25 -51q0 -30 -33 -59q-58 44 -157 98.5t-149 92t-50 77.5z" />
<glyph unicode="&#xc9;" horiz-adv-x="995" d="M135 1346q219 18 447 18q294 0 331 -31q19 -16 19 -53q0 -46 -17 -90q-117 43 -380 43q-109 0 -226 -6q8 -91 8 -434h162q172 0 246 8q8 -16 8 -53q0 -47 -21.5 -63.5t-68.5 -18.5q-53 -2 -145 -2h-181q0 -270 2.5 -371.5t12.5 -165.5q90 -4 145 -4q344 0 441 47 q16 -41 16 -90q0 -37 -19 -53q-37 -31 -331 -31q-262 0 -324 4q-59 3 -79.5 28.5t-20.5 88.5q0 34 2 152t2 190v409q0 288 -29 478zM430 1536q0 27 23 51t58.5 46.5t103.5 78.5t135 129q71 -41 71 -94q0 -41 -51 -76q-46 -33 -163 -102t-144 -92q-33 29 -33 59z" />
<glyph unicode="&#xca;" horiz-adv-x="995" d="M135 1346q219 18 447 18q294 0 331 -31q19 -16 19 -53q0 -46 -17 -90q-117 43 -380 43q-109 0 -226 -6q8 -91 8 -434h162q172 0 246 8q8 -16 8 -53q0 -47 -21.5 -63.5t-68.5 -18.5q-53 -2 -145 -2h-181q0 -270 2.5 -371.5t12.5 -165.5q90 -4 145 -4q344 0 441 47 q16 -41 16 -90q0 -37 -19 -53q-37 -31 -331 -31q-262 0 -324 4q-59 3 -79.5 28.5t-20.5 88.5q0 34 2 152t2 190v409q0 288 -29 478zM225 1505q60 72 139 147t150 128q57 -36 112 -78t104.5 -98t49.5 -95q0 -18 -13.5 -33.5t-33.5 -23.5q-38 49 -94 94.5t-93 66.5l-36 21 q-11 -9 -38.5 -32t-41.5 -34t-37 -30t-37.5 -28.5t-31 -20.5t-28.5 -16t-20 -5q-25 0 -51 37z" />
<glyph unicode="&#xcb;" horiz-adv-x="995" d="M135 1346q219 18 447 18q294 0 331 -31q19 -16 19 -53q0 -46 -17 -90q-117 43 -380 43q-109 0 -226 -6q8 -91 8 -434h162q172 0 246 8q8 -16 8 -53q0 -47 -21.5 -63.5t-68.5 -18.5q-53 -2 -145 -2h-181q0 -270 2.5 -371.5t12.5 -165.5q90 -4 145 -4q344 0 441 47 q16 -41 16 -90q0 -37 -19 -53q-37 -31 -331 -31q-262 0 -324 4q-59 3 -79.5 28.5t-20.5 88.5q0 34 2 152t2 190v409q0 288 -29 478zM209 1569q0 45 32.5 76.5t75.5 31.5q42 0 72.5 -31.5t30.5 -76.5q0 -48 -32.5 -79.5t-74.5 -31.5q-44 0 -74 31t-30 80zM573 1569 q0 45 32.5 76.5t76.5 31.5q42 0 72 -31.5t30 -76.5q0 -48 -32 -79.5t-74 -31.5q-44 0 -74.5 31t-30.5 80z" />
<glyph unicode="&#xcc;" horiz-adv-x="452" d="M-70 1747q0 53 72 94q60 -67 125.5 -122t103.5 -79.5t63 -50.5t25 -51q0 -31 -32 -59q-58 44 -157 98.5t-149.5 92t-50.5 77.5zM135 1358q35 6 84 6q100 0 100 -78q0 -11 -4 -82.5t-8 -177t-4 -199.5v-411q0 -89 1.5 -139.5t10.5 -128.5t27 -138q-37 -16 -96 -16t-80 27 t-21 90q0 34 2.5 162t2.5 200v410q0 275 -15 475z" />
<glyph unicode="&#xcd;" horiz-adv-x="452" d="M135 1358q35 6 84 6q100 0 100 -78q0 -11 -4 -82.5t-8 -177t-4 -199.5v-411q0 -89 1.5 -139.5t10.5 -128.5t27 -138q-37 -16 -96 -16t-80 27t-21 90q0 34 2.5 162t2.5 200v410q0 275 -15 475zM156 1536q0 27 22.5 51t58.5 46.5t103.5 78.5t134.5 129q72 -41 72 -94 q0 -41 -51 -76q-47 -33 -164 -102t-144 -92q-32 28 -32 59z" />
<glyph unicode="&#xce;" horiz-adv-x="452" d="M-49 1505q60 72 139 147t150 128q57 -36 112 -78t104.5 -98t49.5 -95q0 -18 -13.5 -33.5t-33.5 -23.5q-38 49 -94 94.5t-93 66.5l-36 21q-11 -9 -38.5 -32t-41.5 -34t-37 -30t-37.5 -28.5t-31 -20.5t-28.5 -16t-20 -5q-25 0 -51 37zM135 1358q35 6 84 6q100 0 100 -78 q0 -11 -4 -82.5t-8 -177t-4 -199.5v-411q0 -89 1.5 -139.5t10.5 -128.5t27 -138q-37 -16 -96 -16t-80 27t-21 90q0 34 2.5 162t2.5 200v410q0 275 -15 475z" />
<glyph unicode="&#xcf;" horiz-adv-x="452" d="M-68 1569q0 45 32.5 76.5t76.5 31.5q42 0 72 -31.5t30 -76.5q0 -48 -32 -79.5t-74 -31.5q-44 0 -74.5 31t-30.5 80zM135 1358q35 6 84 6q100 0 100 -78q0 -11 -4 -82.5t-8 -177t-4 -199.5v-411q0 -89 1.5 -139.5t10.5 -128.5t27 -138q-37 -16 -96 -16t-80 27t-21 90 q0 34 2.5 162t2.5 200v410q0 275 -15 475zM297 1569q0 45 32.5 76.5t76.5 31.5q42 0 72 -31.5t30 -76.5q0 -48 -32.5 -79.5t-74.5 -31.5q-44 0 -74 31t-30 80z" />
<glyph unicode="&#xd0;" horiz-adv-x="1300" d="M-33 709q0 40 18 60.5t72 21.5q13 0 50.5 1t60.5 1q0 362 -27 561q36 7 137.5 15.5t180.5 8.5q126 0 231.5 -20.5t202 -71t163 -128t105.5 -199t39 -277.5q0 -118 -25 -222.5t-76.5 -192.5t-125.5 -152t-177.5 -99.5t-226.5 -35.5q-278 0 -434 129q27 180 31 555 q-112 0 -191 -9q-8 24 -8 54zM293 178q112 -74 272 -74q104 0 186 33.5t133 87t84.5 126t46.5 144t13 146.5q0 306 -151 459t-433 153q-45 0 -131 -8q9 -159 9 -334v-118h131q170 0 233 8q8 -24 8 -53q0 -40 -18 -60.5t-72 -21.5q-68 -2 -285 -2q-7 -287 -26 -486z" />
<glyph unicode="&#xd1;" horiz-adv-x="1265" d="M135 1350q40 16 96 16q40 0 63.5 -14t51.5 -45q103 -116 295 -435.5t352 -627.5q-5 73 -8 232.5t-3 283.5l-1 123q0 289 -14 475q35 6 63 6q100 0 100 -78q0 -11 -4 -82.5t-8 -177t-4 -199.5v-350q0 -289 14 -475q-33 -8 -67 -8q-71 0 -107 55q-84 131 -291.5 496 t-353.5 585q-2 -78 -2 -714q0 -89 1.5 -139.5t10.5 -128.5t27 -138q-37 -16 -76 -16q-59 0 -79.5 27t-20.5 90q0 34 2 162t2 200v410q0 116 -1.5 177.5t-10.5 146.5t-27 143zM350 1530q0 55 64.5 109.5t136.5 54.5q37 0 116 -46t115 -46q22 0 57 26t64 60q4 -1 9.5 -4 t14.5 -14t9 -25q0 -57 -63.5 -110.5t-135.5 -53.5q-43 0 -119.5 46t-113.5 46q-38 0 -121 -86q-33 14 -33 43z" />
<glyph unicode="&#xd2;" horiz-adv-x="1458" d="M100 678q0 322 169.5 511t457.5 189q289 0 460 -189t171 -511q0 -318 -171.5 -508t-459.5 -190q-287 0 -457 190t-170 508zM268 741q0 -95 15 -183.5t50 -172t86.5 -145.5t130 -99t175.5 -37q220 0 340.5 149t120.5 388q0 90 -15 175t-50 165t-86.5 140t-130 96 t-175.5 36q-212 0 -336.5 -144t-124.5 -368zM420 1747q0 53 72 94q60 -67 125.5 -122t103.5 -79.5t63 -50.5t25 -51q0 -30 -33 -59q-58 44 -157 98.5t-149 92t-50 77.5z" />
<glyph unicode="&#xd3;" horiz-adv-x="1458" d="M100 678q0 322 169.5 511t457.5 189q289 0 460 -189t171 -511q0 -318 -171.5 -508t-459.5 -190q-287 0 -457 190t-170 508zM268 741q0 -95 15 -183.5t50 -172t86.5 -145.5t130 -99t175.5 -37q220 0 340.5 149t120.5 388q0 90 -15 175t-50 165t-86.5 140t-130 96 t-175.5 36q-212 0 -336.5 -144t-124.5 -368zM645 1536q0 27 23 51t58.5 46.5t103.5 78.5t135 129q71 -41 71 -94q0 -41 -51 -76q-46 -33 -163 -102t-144 -92q-33 29 -33 59z" />
<glyph unicode="&#xd4;" horiz-adv-x="1458" d="M100 678q0 322 169.5 511t457.5 189q289 0 460 -189t171 -511q0 -318 -171.5 -508t-459.5 -190q-287 0 -457 190t-170 508zM268 741q0 -95 15 -183.5t50 -172t86.5 -145.5t130 -99t175.5 -37q220 0 340.5 149t120.5 388q0 90 -15 175t-50 165t-86.5 140t-130 96 t-175.5 36q-212 0 -336.5 -144t-124.5 -368zM440 1503q60 72 139 147t150 128q57 -36 112 -78t104.5 -98t49.5 -95q0 -18 -13.5 -33.5t-33.5 -23.5q-38 49 -94 94.5t-92 66.5l-37 21q-13 -11 -38.5 -32t-40.5 -33.5t-37.5 -30.5t-37.5 -28.5t-31 -21t-28 -15.5t-20 -5 q-26 0 -52 37z" />
<glyph unicode="&#xd5;" horiz-adv-x="1458" d="M100 678q0 322 169.5 511t457.5 189q289 0 460 -189t171 -511q0 -318 -171.5 -508t-459.5 -190q-287 0 -457 190t-170 508zM268 741q0 -95 15 -183.5t50 -172t86.5 -145.5t130 -99t175.5 -37q220 0 340.5 149t120.5 388q0 90 -15 175t-50 165t-86.5 140t-130 96 t-175.5 36q-212 0 -336.5 -144t-124.5 -368zM436 1530q0 55 64.5 109.5t136.5 54.5q37 0 116 -46t115 -46q22 0 57 26t64 60q4 -1 9.5 -4t14.5 -14t9 -25q0 -57 -63.5 -110.5t-135.5 -53.5q-43 0 -119.5 46t-113.5 46q-38 0 -121 -86q-33 14 -33 43z" />
<glyph unicode="&#xd6;" horiz-adv-x="1458" d="M100 678q0 322 169.5 511t457.5 189q289 0 460 -189t171 -511q0 -318 -171.5 -508t-459.5 -190q-287 0 -457 190t-170 508zM268 741q0 -95 15 -183.5t50 -172t86.5 -145.5t130 -99t175.5 -37q220 0 340.5 149t120.5 388q0 90 -15 175t-50 165t-86.5 140t-130 96 t-175.5 36q-212 0 -336.5 -144t-124.5 -368zM440 1569q0 45 32.5 76.5t76.5 31.5q42 0 72 -31.5t30 -76.5q0 -48 -32 -79.5t-74 -31.5q-44 0 -74.5 31t-30.5 80zM805 1569q0 45 32.5 76.5t75.5 31.5q42 0 72.5 -31.5t30.5 -76.5q0 -48 -32.5 -79.5t-74.5 -31.5q-44 0 -74 31 t-30 80z" />
<glyph unicode="&#xd7;" d="M125 836q47 77 102 77q27 0 49 -22q13 -13 56.5 -60t108.5 -117t106 -114q38 38 156 162.5t161 177.5q29 -15 52.5 -44.5t23.5 -59.5q0 -28 -20 -48q-26 -27 -142 -133t-149 -139q38 -38 162.5 -156t177.5 -161q-18 -31 -45.5 -53.5t-59.5 -22.5q-27 0 -47 20 q-27 26 -133 142t-139 149q-195 -190 -318 -340q-25 18 -38.5 29t-26 31.5t-12.5 44.5q0 27 20 47q14 14 59.5 56l117 108t116.5 108q-256 246 -338 318z" />
<glyph unicode="&#xd8;" horiz-adv-x="1458" d="M100 678q0 322 169.5 511t457.5 189q170 0 305 -69q75 143 109 215q35 -2 64.5 -19.5t29.5 -44.5q0 -20 -12 -41l-97 -174q111 -90 171.5 -235.5t60.5 -331.5q0 -318 -171.5 -508t-459.5 -190q-145 0 -266 51q-64 -117 -103 -203q-94 13 -94 66q0 14 12 38l86 156 q-126 89 -194 240.5t-68 349.5zM268 741q0 -154 41.5 -292.5t126.5 -227.5l531 961q-99 71 -238 71q-212 0 -336.5 -144t-124.5 -368zM524 154q86 -50 201 -50q220 0 340.5 149t120.5 388q0 131 -34 253.5t-103 209.5z" />
<glyph unicode="&#xd9;" horiz-adv-x="1318" d="M147 1348q40 16 93 16q59 0 86.5 -23t27.5 -81q0 -88 -15 -388t-15 -466q0 -74 24.5 -132.5t64.5 -93t87.5 -52t97.5 -17.5q100 0 211 49t180 114q0 15 0.5 71t1 192.5t0.5 345.5q0 289 -14 475q35 6 84 6q100 0 100 -78q0 -5 -4 -76t-8 -223.5t-4 -353.5 q0 -318 5.5 -425t33.5 -198q-37 -16 -97 -16q-57 0 -78.5 26t-21.5 95v22q-83 -69 -197.5 -113t-209.5 -44q-72 0 -130 10.5t-113 39t-92 73.5t-59 119t-22 171q0 120 9 327t9 306q0 196 -35 322zM356 1747q0 53 72 94q60 -67 125.5 -122t103.5 -79.5t63 -50.5t25 -51 q0 -31 -32 -59q-58 44 -157 98.5t-149.5 92t-50.5 77.5z" />
<glyph unicode="&#xda;" horiz-adv-x="1318" d="M147 1348q40 16 93 16q59 0 86.5 -23t27.5 -81q0 -88 -15 -388t-15 -466q0 -74 24.5 -132.5t64.5 -93t87.5 -52t97.5 -17.5q100 0 211 49t180 114q0 15 0.5 71t1 192.5t0.5 345.5q0 289 -14 475q35 6 84 6q100 0 100 -78q0 -5 -4 -76t-8 -223.5t-4 -353.5 q0 -318 5.5 -425t33.5 -198q-37 -16 -97 -16q-57 0 -78.5 26t-21.5 95v22q-83 -69 -197.5 -113t-209.5 -44q-72 0 -130 10.5t-113 39t-92 73.5t-59 119t-22 171q0 120 9 327t9 306q0 196 -35 322zM582 1536q0 27 22.5 51t58.5 46.5t103.5 78.5t134.5 129q72 -41 72 -94 q0 -41 -51 -76q-47 -33 -164 -102t-144 -92q-32 28 -32 59z" />
<glyph unicode="&#xdb;" horiz-adv-x="1318" d="M147 1348q40 16 93 16q59 0 86.5 -23t27.5 -81q0 -88 -15 -388t-15 -466q0 -74 24.5 -132.5t64.5 -93t87.5 -52t97.5 -17.5q100 0 211 49t180 114q0 15 0.5 71t1 192.5t0.5 345.5q0 289 -14 475q35 6 84 6q100 0 100 -78q0 -5 -4 -76t-8 -223.5t-4 -353.5 q0 -318 5.5 -425t33.5 -198q-37 -16 -97 -16q-57 0 -78.5 26t-21.5 95v22q-83 -69 -197.5 -113t-209.5 -44q-72 0 -130 10.5t-113 39t-92 73.5t-59 119t-22 171q0 120 9 327t9 306q0 196 -35 322zM377 1505q60 72 139 147t150 128q57 -36 112 -78t104.5 -98t49.5 -95 q0 -18 -13.5 -33.5t-33.5 -23.5q-38 49 -94 94.5t-93 66.5l-36 21q-11 -9 -38.5 -32t-41.5 -34t-37 -30t-37.5 -28.5t-31 -20.5t-28.5 -16t-20 -5q-25 0 -51 37z" />
<glyph unicode="&#xdc;" horiz-adv-x="1318" d="M147 1348q40 16 93 16q59 0 86.5 -23t27.5 -81q0 -88 -15 -388t-15 -466q0 -74 24.5 -132.5t64.5 -93t87.5 -52t97.5 -17.5q100 0 211 49t180 114q0 15 0.5 71t1 192.5t0.5 345.5q0 289 -14 475q35 6 84 6q100 0 100 -78q0 -5 -4 -76t-8 -223.5t-4 -353.5 q0 -318 5.5 -425t33.5 -198q-37 -16 -97 -16q-57 0 -78.5 26t-21.5 95v22q-83 -69 -197.5 -113t-209.5 -44q-72 0 -130 10.5t-113 39t-92 73.5t-59 119t-22 171q0 120 9 327t9 306q0 196 -35 322zM371 1569q0 45 32.5 76.5t75.5 31.5q42 0 72.5 -31.5t30.5 -76.5 q0 -48 -32.5 -79.5t-74.5 -31.5q-44 0 -74 31t-30 80zM735 1569q0 45 32.5 76.5t76.5 31.5q42 0 72 -31.5t30 -76.5q0 -48 -32 -79.5t-74 -31.5q-44 0 -74.5 31t-30.5 80z" />
<glyph unicode="&#xdd;" horiz-adv-x="1026" d="M-20 1268q6 7 26 30t26.5 29.5t21 19t27.5 16t28 3.5q51 0 98 -70q121 -178 328 -557q98 129 209.5 345.5t115.5 291.5q31 -2 51.5 -5t48 -12t42 -28t14.5 -47q0 -52 -156 -290t-272 -378v-174q0 -165 8 -260.5t31 -171.5q-37 -16 -97 -16q-59 0 -79.5 27t-20.5 90 q2 188 4 364v127q-132 249 -253 430.5t-201 235.5zM422 1536q0 27 22.5 51t58.5 46.5t103.5 78.5t134.5 129q72 -41 72 -94q0 -41 -51 -76q-46 -33 -163 -102t-144 -92q-33 29 -33 59z" />
<glyph unicode="&#xde;" horiz-adv-x="1048" d="M135 1358q35 6 84 6q100 0 100 -78q0 -8 -1 -27t-3 -56t-4 -66q65 6 117 6q90 0 166 -12t148.5 -43t123 -79.5t81 -127.5t30.5 -181q0 -110 -37.5 -196.5t-99.5 -137.5t-136.5 -77.5t-154.5 -26.5q-145 0 -246 66q0 -192 39 -318q-37 -16 -96 -16t-80 27t-21 90 q0 34 2.5 162t2.5 200v410q0 275 -15 475zM303 438q88 -51 205 -51q139 0 218 81t79 218q0 97 -23 163t-71.5 102.5t-112.5 51.5t-156 15q-47 0 -137 -8q-2 -57 -2 -318v-254z" />
<glyph unicode="&#xdf;" horiz-adv-x="1064" d="M133 10q41 138 41 404v536q0 109 31 194t83 134.5t113.5 74.5t128.5 25q118 0 200.5 -59t82.5 -166q0 -77 -27 -134t-65 -89t-76 -57.5t-65 -54.5t-27 -64q0 -32 23 -62.5t60 -56.5t82 -53t90 -59.5t82 -68.5t60 -86.5t23 -107.5q0 -110 -84.5 -195t-204.5 -85 q-94 0 -167 47t-73 116q0 36 24.5 54.5t68.5 31.5q13 -65 60 -100t103 -35q51 0 90 42.5t39 99.5q0 47 -22 87.5t-57 70.5t-77.5 59t-85.5 58.5t-78 61.5t-57 76.5t-22 95.5q0 37 18 70t44.5 56t57.5 50t57.5 52t44.5 61t18 78q0 71 -42.5 111.5t-109.5 40.5 q-85 0 -147 -64.5t-62 -193.5v-605q0 -80 1 -181.5t1 -119.5q0 -57 -21.5 -81.5t-78.5 -24.5q-41 0 -78 16z" />
<glyph unicode="&#xe0;" horiz-adv-x="950" d="M92 268q0 55 14.5 96t43 66.5t57.5 39.5t69 26q150 42 390 55q0 88 -7.5 140.5t-31.5 93t-68.5 57t-118.5 16.5q-58 0 -119.5 -37t-91.5 -106q-94 18 -94 82q0 79 98.5 127.5t229.5 48.5q177 0 258.5 -73t81.5 -261q0 -17 -2 -121t-2 -156q0 -236 39 -352 q-32 -16 -80 -16q-44 0 -62.5 21.5t-25.5 68.5q-60 -50 -129.5 -77t-132.5 -27q-316 0 -316 288zM172 1343q0 54 72 95q60 -67 125.5 -122t103.5 -79.5t63 -50.5t25 -51q0 -31 -33 -60q-58 44 -157 98.5t-149 92t-50 77.5zM236 268q0 -91 53 -135.5t135 -44.5 q63 0 127.5 25.5t107.5 66.5q-2 29 -2 96q0 70 7 170q-223 -25 -299 -48q-120 -37 -128 -116q-1 -7 -1 -14z" />
<glyph unicode="&#xe1;" horiz-adv-x="950" d="M92 268q0 55 14.5 96t43 66.5t57.5 39.5t69 26q150 42 390 55q0 88 -7.5 140.5t-31.5 93t-68.5 57t-118.5 16.5q-58 0 -119.5 -37t-91.5 -106q-94 18 -94 82q0 79 98.5 127.5t229.5 48.5q177 0 258.5 -73t81.5 -261q0 -17 -2 -121t-2 -156q0 -236 39 -352 q-32 -16 -80 -16q-44 0 -62.5 21.5t-25.5 68.5q-60 -50 -129.5 -77t-132.5 -27q-316 0 -316 288zM236 268q0 -91 53 -135.5t135 -44.5q63 0 127.5 25.5t107.5 66.5q-2 29 -2 96q0 70 7 170q-223 -25 -299 -48q-120 -37 -128 -116q-1 -7 -1 -14zM397 1133q0 27 23 51 t58.5 46.5t103.5 78.5t135 129q71 -41 71 -95q0 -40 -51 -75q-46 -33 -163 -102t-144 -93q-33 29 -33 60z" />
<glyph unicode="&#xe2;" horiz-adv-x="950" d="M92 268q0 55 14.5 96t43 66.5t57.5 39.5t69 26q150 42 390 55q0 88 -7.5 140.5t-31.5 93t-68.5 57t-118.5 16.5q-58 0 -119.5 -37t-91.5 -106q-94 18 -94 82q0 79 98.5 127.5t229.5 48.5q177 0 258.5 -73t81.5 -261q0 -17 -2 -121t-2 -156q0 -236 39 -352 q-32 -16 -80 -16q-44 0 -62.5 21.5t-25.5 68.5q-60 -50 -129.5 -77t-132.5 -27q-316 0 -316 288zM193 1116q60 72 139 147.5t149 127.5q57 -36 112.5 -78t105 -98t49.5 -95q0 -18 -14 -33.5t-34 -23.5q-38 49 -94 94.5t-92 66.5l-37 21q-13 -11 -38.5 -32t-40.5 -33.5 t-37.5 -30.5t-37.5 -28.5t-31 -21t-28 -15.5t-20 -5q-25 0 -51 37zM236 268q0 -91 53 -135.5t135 -44.5q63 0 127.5 25.5t107.5 66.5q-2 29 -2 96q0 70 7 170q-223 -25 -299 -48q-120 -37 -128 -116q-1 -7 -1 -14z" />
<glyph unicode="&#xe3;" horiz-adv-x="950" d="M92 268q0 55 14.5 96t43 66.5t57.5 39.5t69 26q150 42 390 55q0 88 -7.5 140.5t-31.5 93t-68.5 57t-118.5 16.5q-58 0 -119.5 -37t-91.5 -106q-94 18 -94 82q0 79 98.5 127.5t229.5 48.5q177 0 258.5 -73t81.5 -261q0 -17 -2 -121t-2 -156q0 -236 39 -352 q-32 -16 -80 -16q-44 0 -62.5 21.5t-25.5 68.5q-60 -50 -129.5 -77t-132.5 -27q-316 0 -316 288zM186 1155q0 55 64.5 109.5t136.5 54.5q37 0 116 -46t115 -46q22 0 57 26t64 60q4 -1 9.5 -4t14.5 -14t9 -25q0 -57 -63.5 -110.5t-135.5 -53.5q-43 0 -119.5 46t-113.5 46 q-38 0 -121 -86q-33 14 -33 43zM236 268q0 -91 53 -135.5t135 -44.5q63 0 127.5 25.5t107.5 66.5q-2 29 -2 96q0 70 7 170q-223 -25 -299 -48q-120 -37 -128 -116q-1 -7 -1 -14z" />
<glyph unicode="&#xe4;" horiz-adv-x="950" d="M92 268q0 55 14.5 96t43 66.5t57.5 39.5t69 26q150 42 390 55q0 88 -7.5 140.5t-31.5 93t-68.5 57t-118.5 16.5q-58 0 -119.5 -37t-91.5 -106q-94 18 -94 82q0 79 98.5 127.5t229.5 48.5q177 0 258.5 -73t81.5 -261q0 -17 -2 -121t-2 -156q0 -236 39 -352 q-32 -16 -80 -16q-44 0 -62.5 21.5t-25.5 68.5q-60 -50 -129.5 -77t-132.5 -27q-316 0 -316 288zM186 1178q0 45 32.5 76.5t76.5 31.5q42 0 72 -31.5t30 -76.5q0 -48 -32 -79.5t-74 -31.5q-44 0 -74.5 31t-30.5 80zM236 268q0 -91 53 -135.5t135 -44.5q63 0 127.5 25.5 t107.5 66.5q-2 29 -2 96q0 70 7 170q-223 -25 -299 -48q-120 -37 -128 -116q-1 -7 -1 -14zM551 1178q0 45 32.5 76.5t75.5 31.5q42 0 72.5 -31.5t30.5 -76.5q0 -48 -32.5 -79.5t-74.5 -31.5q-44 0 -74 31t-30 80z" />
<glyph unicode="&#xe5;" horiz-adv-x="950" d="M92 268q0 55 14.5 96t43 66.5t57.5 39.5t69 26q150 42 390 55q0 88 -7.5 140.5t-31.5 93t-68.5 57t-118.5 16.5q-58 0 -119.5 -37t-91.5 -106q-94 18 -94 82q0 79 98.5 127.5t229.5 48.5q177 0 258.5 -73t81.5 -261q0 -17 -2 -121t-2 -156q0 -236 39 -352 q-32 -16 -80 -16q-44 0 -62.5 21.5t-25.5 68.5q-60 -50 -129.5 -77t-132.5 -27q-316 0 -316 288zM236 268q0 -91 53 -135.5t135 -44.5q63 0 127.5 25.5t107.5 66.5q-2 29 -2 96q0 70 7 170q-223 -25 -299 -48q-120 -37 -128 -116q-1 -7 -1 -14zM299 1247q0 83 50 133t132 50 q80 0 129 -50t49 -133t-49 -132.5t-129 -49.5q-82 0 -132 49.5t-50 132.5zM385 1255q0 -54 25.5 -88t70.5 -34q44 0 68 28t24 76q0 55 -25 90t-67 35q-45 0 -70.5 -28.5t-25.5 -78.5z" />
<glyph unicode="&#xe6;" horiz-adv-x="1533" d="M92 268q0 55 14.5 96t43 66.5t57.5 39.5t69 26q150 42 390 55q0 88 -7.5 140.5t-31.5 93t-68.5 57t-118.5 16.5q-58 0 -119.5 -37t-91.5 -106q-94 18 -94 82q0 79 98.5 127.5t229.5 48.5q126 0 201 -38t108 -122q65 79 157 119.5t191 40.5q143 0 232.5 -81.5t89.5 -189.5 q0 -44 -9 -80.5t-24 -64t-41.5 -49t-55 -37t-72.5 -26t-85 -16.5t-101 -9.5t-113 -4.5t-128 -1q15 -142 102.5 -231t219.5 -89q142 0 217 99q63 -36 63 -89q0 -36 -42 -65t-105.5 -44t-134.5 -15q-113 0 -212.5 42.5t-162.5 127.5q-68 -86 -165 -128t-185 -42 q-316 0 -316 288zM236 268q0 -91 53 -135.5t135 -44.5q159 0 289 135q-46 97 -49 223q-62 -6 -101 -11t-89.5 -13t-81 -16t-64 -21.5t-51.5 -29.5t-29.5 -38t-11.5 -49zM813 516q63 0 105 1t98 5t92.5 11t76 20.5t62.5 32.5t38 47.5t15 64.5q0 65 -54 113.5t-134 48.5 q-56 0 -106.5 -18.5t-94 -57.5t-70 -108t-28.5 -160z" />
<glyph unicode="&#xe7;" horiz-adv-x="913" d="M92 465q0 104 27.5 190.5t72.5 144t104.5 97.5t121.5 58t125 18q43 0 91 -10.5t94 -31t76 -56.5t30 -80q0 -76 -95 -90q-23 73 -89.5 113t-139.5 40q-115 0 -193.5 -101t-78.5 -265q0 -105 26.5 -184.5t72.5 -124.5t100.5 -67t117.5 -22q135 0 213 99q63 -36 63 -84 q0 -59 -86 -94t-196 -35h-14q-9 -36 -9 -41q0 -6 1.5 -11t3 -9t6 -8.5t6.5 -7t8.5 -7t9 -6.5t11 -7t10.5 -6q96 -55 96 -149q0 -78 -70.5 -140.5t-175.5 -62.5q-36 0 -54 14.5t-18 36.5q0 32 27 59q32 -18 64 -18q48 0 75 21t27 61q0 25 -13 46.5t-31.5 37t-36.5 30.5 t-31 34.5t-13 41.5q0 30 25 101q-75 14 -138.5 48.5t-114 91t-79.5 142.5t-29 193z" />
<glyph unicode="&#xe8;" horiz-adv-x="962" d="M92 471q0 125 40 223.5t106 158t145.5 90t165.5 30.5q143 0 232 -81.5t89 -189.5q0 -44 -9 -80.5t-23.5 -64t-41.5 -49t-55.5 -37t-72 -26t-85 -16.5t-101 -9.5t-112.5 -4.5t-128 -1q16 -147 89 -233.5t201 -86.5q64 0 125.5 26t92.5 81q81 -31 81 -86q0 -42 -47 -73.5 t-114.5 -46.5t-139.5 -15q-92 0 -169.5 28.5t-138.5 86t-95.5 153.5t-34.5 223zM240 516q63 0 105.5 1t98.5 5t92.5 11t76.5 20.5t63 32.5t38 47.5t15 64.5q0 65 -54 113.5t-134 48.5q-56 0 -107 -18.5t-94.5 -57.5t-70.5 -108t-29 -160zM254 1343q0 54 72 95 q60 -67 125.5 -122t103.5 -79.5t63 -50.5t25 -51q0 -31 -33 -60q-58 44 -157 98.5t-149 92t-50 77.5z" />
<glyph unicode="&#xe9;" horiz-adv-x="962" d="M92 471q0 125 40 223.5t106 158t145.5 90t165.5 30.5q143 0 232 -81.5t89 -189.5q0 -44 -9 -80.5t-23.5 -64t-41.5 -49t-55.5 -37t-72 -26t-85 -16.5t-101 -9.5t-112.5 -4.5t-128 -1q16 -147 89 -233.5t201 -86.5q64 0 125.5 26t92.5 81q81 -31 81 -86q0 -42 -47 -73.5 t-114.5 -46.5t-139.5 -15q-92 0 -169.5 28.5t-138.5 86t-95.5 153.5t-34.5 223zM240 516q63 0 105.5 1t98.5 5t92.5 11t76.5 20.5t63 32.5t38 47.5t15 64.5q0 65 -54 113.5t-134 48.5q-56 0 -107 -18.5t-94.5 -57.5t-70.5 -108t-29 -160zM418 1133q0 27 22.5 51t58.5 46.5 t103.5 78.5t134.5 129q72 -41 72 -95q0 -40 -51 -75q-46 -33 -163 -102t-144 -93q-33 29 -33 60z" />
<glyph unicode="&#xea;" horiz-adv-x="962" d="M92 471q0 125 40 223.5t106 158t145.5 90t165.5 30.5q143 0 232 -81.5t89 -189.5q0 -44 -9 -80.5t-23.5 -64t-41.5 -49t-55.5 -37t-72 -26t-85 -16.5t-101 -9.5t-112.5 -4.5t-128 -1q16 -147 89 -233.5t201 -86.5q64 0 125.5 26t92.5 81q81 -31 81 -86q0 -42 -47 -73.5 t-114.5 -46.5t-139.5 -15q-92 0 -169.5 28.5t-138.5 86t-95.5 153.5t-34.5 223zM240 516q63 0 105.5 1t98.5 5t92.5 11t76.5 20.5t63 32.5t38 47.5t15 64.5q0 65 -54 113.5t-134 48.5q-56 0 -107 -18.5t-94.5 -57.5t-70.5 -108t-29 -160zM254 1116q60 72 139 147t150 128 q57 -36 112 -78t104.5 -98t49.5 -95q0 -18 -13.5 -33.5t-33.5 -23.5q-38 49 -94 94.5t-92 66.5l-37 21q-11 -9 -38.5 -32t-41.5 -34t-37 -30t-37.5 -28.5t-31 -20.5t-28.5 -16t-20 -5q-25 0 -51 37z" />
<glyph unicode="&#xeb;" horiz-adv-x="962" d="M92 471q0 125 40 223.5t106 158t145.5 90t165.5 30.5q143 0 232 -81.5t89 -189.5q0 -44 -9 -80.5t-23.5 -64t-41.5 -49t-55.5 -37t-72 -26t-85 -16.5t-101 -9.5t-112.5 -4.5t-128 -1q16 -147 89 -233.5t201 -86.5q64 0 125.5 26t92.5 81q81 -31 81 -86q0 -42 -47 -73.5 t-114.5 -46.5t-139.5 -15q-92 0 -169.5 28.5t-138.5 86t-95.5 153.5t-34.5 223zM240 516q63 0 105.5 1t98.5 5t92.5 11t76.5 20.5t63 32.5t38 47.5t15 64.5q0 65 -54 113.5t-134 48.5q-56 0 -107 -18.5t-94.5 -57.5t-70.5 -108t-29 -160zM250 1178q0 45 32.5 76.5t75.5 31.5 q42 0 72.5 -31.5t30.5 -76.5q0 -48 -32.5 -79.5t-74.5 -31.5q-44 0 -74 31t-30 80zM614 1178q0 45 32.5 76.5t76.5 31.5q42 0 72 -31.5t30 -76.5q0 -48 -32 -79.5t-74 -31.5q-44 0 -74.5 31t-30.5 80z" />
<glyph unicode="&#xec;" horiz-adv-x="436" d="M-49 1343q0 54 72 95q60 -67 125.5 -122t103.5 -79.5t63 -50.5t25 -51q0 -31 -33 -60q-58 44 -157 98.5t-149 92t-50 77.5zM135 952q33 6 70 6q96 0 96 -77q0 -11 -4 -83.5t-8 -179.5t-4 -202q0 -89 1.5 -139.5t10.5 -128.5t27 -138q-37 -16 -78 -16q-59 0 -80 27t-21 90 q0 34 2.5 162t2.5 200q0 280 -15 479z" />
<glyph unicode="&#xed;" horiz-adv-x="436" d="M74 1133q0 27 22.5 51t58.5 46.5t103.5 78.5t134.5 129q72 -41 72 -95q0 -40 -51 -75q-46 -33 -163.5 -102t-144.5 -93q-32 28 -32 60zM135 952q33 6 70 6q96 0 96 -77q0 -11 -4 -83.5t-8 -179.5t-4 -202q0 -89 1.5 -139.5t10.5 -128.5t27 -138q-37 -16 -78 -16 q-59 0 -80 27t-21 90q0 34 2.5 162t2.5 200q0 280 -15 479z" />
<glyph unicode="&#xee;" horiz-adv-x="436" d="M-63 1116q60 72 139 147.5t149 127.5q57 -36 112.5 -78t105 -98t49.5 -95q0 -18 -14 -33.5t-34 -23.5q-38 49 -94 94.5t-92 66.5l-37 21q-13 -11 -38.5 -32t-40.5 -33.5t-37.5 -30.5t-37.5 -28.5t-31 -21t-28 -15.5t-20 -5q-25 0 -51 37zM135 952q33 6 70 6q96 0 96 -77 q0 -11 -4 -83.5t-8 -179.5t-4 -202q0 -89 1.5 -139.5t10.5 -128.5t27 -138q-37 -16 -78 -16q-59 0 -80 27t-21 90q0 34 2.5 162t2.5 200q0 280 -15 479z" />
<glyph unicode="&#xef;" horiz-adv-x="436" d="M-70 1178q0 45 32.5 76.5t76.5 31.5q42 0 72 -31.5t30 -76.5q0 -48 -32 -79.5t-74 -31.5q-44 0 -74.5 31t-30.5 80zM135 952q33 6 70 6q96 0 96 -77q0 -11 -4 -83.5t-8 -179.5t-4 -202q0 -89 1.5 -139.5t10.5 -128.5t27 -138q-37 -16 -78 -16q-59 0 -80 27t-21 90 q0 34 2.5 162t2.5 200q0 280 -15 479zM295 1178q0 45 32.5 76.5t75.5 31.5q42 0 72.5 -31.5t30.5 -76.5q0 -48 -32.5 -79.5t-74.5 -31.5q-44 0 -74 31t-30 80z" />
<glyph unicode="&#xf0;" horiz-adv-x="1083" d="M92 475q0 226 123 362t322 136q71 0 138.5 -22.5t112.5 -61.5q-73 196 -217 311q-49 -36 -115 -85.5t-98 -72.5q-53 34 -53 76q0 26 33 49q59 40 141 95q-118 66 -274 92q-2 10 -2 30q0 23 10 34.5t39 11.5q48 0 145.5 -29t177.5 -72q147 104 224 168q45 -39 45 -80 q0 -31 -35 -51q-24 -17 -72 -49.5t-69 -48.5q174 -139 244.5 -329t70.5 -464q0 -226 -122.5 -360.5t-323.5 -134.5q-200 0 -322.5 134.5t-122.5 360.5zM236 504q0 -176 80 -293t221 -117q144 0 223.5 96.5t79.5 255.5q0 176 -81.5 294t-221.5 118q-143 0 -222 -96.5 t-79 -257.5z" />
<glyph unicode="&#xf1;" horiz-adv-x="1062" d="M123 942q41 16 74 16q94 0 94 -102q61 48 157.5 82.5t188.5 34.5q57 0 104.5 -15t86.5 -47.5t61 -90t22 -136.5q0 -5 -3 -148.5t-3 -216.5q0 -188 35 -309q-40 -16 -80 -16q-54 0 -77 23.5t-23 80.5q0 74 6 282.5t6 248.5q0 115 -56 172t-145 57q-66 0 -138.5 -30 t-135.5 -83q4 -278 4 -405q0 -198 12 -338q-33 -6 -69 -6q-92 0 -92 78q0 7 5 150t5 284q0 337 -39 434zM244 1135q0 55 64 109t136 54q37 0 116.5 -46t115.5 -46q22 0 57 26t64 60q4 -1 9 -4t14 -14t9 -25q0 -57 -63 -110.5t-135 -53.5q-43 0 -120 46.5t-114 46.5 q-38 0 -121 -86q-32 14 -32 43z" />
<glyph unicode="&#xf2;" horiz-adv-x="1075" d="M92 475q0 226 123 362t322 136q200 0 323 -136t123 -362t-122.5 -360.5t-323.5 -134.5q-200 0 -322.5 134.5t-122.5 360.5zM229 1343q0 54 72 95q60 -67 125.5 -122t103.5 -79.5t63 -50.5t25 -51q0 -32 -32 -60q-58 44 -157 98.5t-149.5 92t-50.5 77.5zM236 504 q0 -176 80 -293t221 -117q144 0 223.5 96.5t79.5 255.5q0 176 -81.5 294t-221.5 118q-143 0 -222 -96.5t-79 -257.5z" />
<glyph unicode="&#xf3;" horiz-adv-x="1075" d="M92 475q0 226 123 362t322 136q200 0 323 -136t123 -362t-122.5 -360.5t-323.5 -134.5q-200 0 -322.5 134.5t-122.5 360.5zM236 504q0 -176 80 -293t221 -117q144 0 223.5 96.5t79.5 255.5q0 176 -81.5 294t-221.5 118q-143 0 -222 -96.5t-79 -257.5zM455 1133 q0 27 22.5 51t58.5 46.5t103.5 78.5t134.5 129q72 -41 72 -95q0 -40 -51 -75q-46 -33 -163.5 -102t-144.5 -93q-32 28 -32 60z" />
<glyph unicode="&#xf4;" horiz-adv-x="1075" d="M92 475q0 226 123 362t322 136q200 0 323 -136t123 -362t-122.5 -360.5t-323.5 -134.5q-200 0 -322.5 134.5t-122.5 360.5zM236 504q0 -176 80 -293t221 -117q144 0 223.5 96.5t79.5 255.5q0 176 -81.5 294t-221.5 118q-143 0 -222 -96.5t-79 -257.5zM250 1116 q60 72 139 147t150 128q57 -36 112 -78t104.5 -98t49.5 -95q0 -18 -13.5 -33.5t-33.5 -23.5q-38 49 -94 94.5t-92 66.5l-37 21q-11 -9 -38.5 -32t-41.5 -34t-37 -30t-37.5 -28.5t-31 -20.5t-28.5 -16t-20 -5q-25 0 -51 37z" />
<glyph unicode="&#xf5;" horiz-adv-x="1075" d="M92 475q0 226 123 362t322 136q200 0 323 -136t123 -362t-122.5 -360.5t-323.5 -134.5q-200 0 -322.5 134.5t-122.5 360.5zM236 504q0 -176 80 -293t221 -117q144 0 223.5 96.5t79.5 255.5q0 176 -81.5 294t-221.5 118q-143 0 -222 -96.5t-79 -257.5zM244 1135 q0 55 64 109t136 54q37 0 116.5 -46t115.5 -46q22 0 57 26t64 60q4 -1 9 -4t14 -14t9 -25q0 -57 -63 -110.5t-135 -53.5q-43 0 -120 46.5t-114 46.5q-38 0 -121 -86q-32 14 -32 43z" />
<glyph unicode="&#xf6;" horiz-adv-x="1075" d="M92 475q0 226 123 362t322 136q200 0 323 -136t123 -362t-122.5 -360.5t-323.5 -134.5q-200 0 -322.5 134.5t-122.5 360.5zM236 504q0 -176 80 -293t221 -117q144 0 223.5 96.5t79.5 255.5q0 176 -81.5 294t-221.5 118q-143 0 -222 -96.5t-79 -257.5zM250 1178 q0 45 32.5 76.5t75.5 31.5q42 0 72.5 -31.5t30.5 -76.5q0 -48 -32.5 -79.5t-74.5 -31.5q-44 0 -74 31t-30 80zM614 1178q0 45 32.5 76.5t76.5 31.5q42 0 72 -31.5t30 -76.5q0 -48 -32 -79.5t-74 -31.5q-44 0 -74.5 31t-30.5 80z" />
<glyph unicode="&#xf7;" d="M141 504q0 33 18 59.5t56 26.5q7 0 129.5 -7.5t212.5 -7.5q259 0 391 15q6 -18 6 -62q0 -36 -20 -61t-53 -25t-147 8.5t-173 8.5q-223 0 -414 -17q-6 31 -6 62zM442 164q0 49 33.5 83t79.5 34t78.5 -34t32.5 -83q0 -52 -32 -84.5t-79 -32.5t-80 33t-33 84zM442 868 q0 49 33.5 83t79.5 34t78.5 -34t32.5 -83q0 -51 -32 -83.5t-79 -32.5t-80 32.5t-33 83.5z" />
<glyph unicode="&#xf8;" horiz-adv-x="1075" d="M92 473q0 228 122.5 364t322.5 136q105 0 192 -41q29 56 105 211q35 -2 64.5 -19t29.5 -45q0 -11 -13 -41l-92 -166q160 -138 160 -397q0 -226 -122.5 -360.5t-323.5 -134.5q-108 0 -187 36q-62 -121 -94 -188q-94 13 -94 66q0 14 12 38l80 144q-77 64 -119.5 166 t-42.5 231zM236 498q0 -189 88 -299l346 622q-64 37 -140 37q-139 0 -216.5 -99t-77.5 -261zM408 127q56 -33 135 -33q140 0 218.5 98t78.5 257q0 177 -88 299z" />
<glyph unicode="&#xf9;" horiz-adv-x="1060" d="M123 942q40 16 80 16q54 0 77 -23.5t23 -80.5q0 -74 -6 -282t-6 -248q0 -111 54 -170.5t140 -59.5q69 0 143 30t134 83q-2 88 -2 268q0 285 -15 477q33 6 70 6q92 0 92 -77q0 -7 -4 -165.5t-4 -299.5q0 -162 8 -242.5t31 -163.5q-41 -16 -76 -16q-94 0 -94 102 q-67 -53 -154 -84.5t-172 -31.5q-290 0 -290 288q0 5 3 148.5t3 216.5q0 188 -35 309zM227 1343q0 54 72 95q60 -67 125.5 -122t103.5 -79.5t63 -50.5t25 -51q0 -32 -32 -60q-58 44 -157 98.5t-149.5 92t-50.5 77.5z" />
<glyph unicode="&#xfa;" horiz-adv-x="1060" d="M123 942q40 16 80 16q54 0 77 -23.5t23 -80.5q0 -74 -6 -282t-6 -248q0 -111 54 -170.5t140 -59.5q69 0 143 30t134 83q-2 88 -2 268q0 285 -15 477q33 6 70 6q92 0 92 -77q0 -7 -4 -165.5t-4 -299.5q0 -162 8 -242.5t31 -163.5q-41 -16 -76 -16q-94 0 -94 102 q-67 -53 -154 -84.5t-172 -31.5q-290 0 -290 288q0 5 3 148.5t3 216.5q0 188 -35 309zM453 1133q0 27 22.5 51t58.5 46.5t103.5 78.5t134.5 129q72 -41 72 -95q0 -40 -51 -75q-46 -33 -163.5 -102t-144.5 -93q-32 28 -32 60z" />
<glyph unicode="&#xfb;" horiz-adv-x="1060" d="M123 942q40 16 80 16q54 0 77 -23.5t23 -80.5q0 -74 -6 -282t-6 -248q0 -111 54 -170.5t140 -59.5q69 0 143 30t134 83q-2 88 -2 268q0 285 -15 477q33 6 70 6q92 0 92 -77q0 -7 -4 -165.5t-4 -299.5q0 -162 8 -242.5t31 -163.5q-41 -16 -76 -16q-94 0 -94 102 q-67 -53 -154 -84.5t-172 -31.5q-290 0 -290 288q0 5 3 148.5t3 216.5q0 188 -35 309zM248 1116q60 72 139 147t150 128q57 -36 112 -78t104.5 -98t49.5 -95q0 -18 -13.5 -33.5t-33.5 -23.5q-38 49 -94 94.5t-93 66.5l-37 21q-13 -11 -38.5 -32t-40.5 -33.5t-37.5 -30.5 t-37.5 -28.5t-31 -21t-28 -15.5t-20 -5q-25 0 -51 37z" />
<glyph unicode="&#xfc;" horiz-adv-x="1060" d="M123 942q40 16 80 16q54 0 77 -23.5t23 -80.5q0 -74 -6 -282t-6 -248q0 -111 54 -170.5t140 -59.5q69 0 143 30t134 83q-2 88 -2 268q0 285 -15 477q33 6 70 6q92 0 92 -77q0 -7 -4 -165.5t-4 -299.5q0 -162 8 -242.5t31 -163.5q-41 -16 -76 -16q-94 0 -94 102 q-67 -53 -154 -84.5t-172 -31.5q-290 0 -290 288q0 5 3 148.5t3 216.5q0 188 -35 309zM242 1178q0 45 32.5 76.5t75.5 31.5q42 0 72.5 -31.5t30.5 -76.5q0 -48 -32.5 -79.5t-74.5 -31.5q-44 0 -74 31t-30 80zM606 1178q0 45 32.5 76.5t76.5 31.5q42 0 72 -31.5t30 -76.5 q0 -48 -32 -79.5t-74 -31.5q-44 0 -74.5 31t-30.5 80z" />
<glyph unicode="&#xfd;" horiz-adv-x="903" d="M0 897q38 34 64 50t53 16q48 0 80 -66q47 -97 144 -342.5t144 -407.5q89 190 155.5 409.5t66.5 346.5q0 11 -1 20t-2 20t-2 20q31 10 68 10q72 0 72 -82q0 -96 -73 -326t-173 -444q-182 -387 -340 -582q-40 -53 -80 -53q-58 0 -113 82q63 40 165.5 159t177.5 240 q-41 138 -106.5 317t-152.5 367t-147 246zM369 1133q0 27 22.5 51t58.5 46.5t103.5 78.5t134.5 129q72 -41 72 -95q0 -40 -51 -75q-46 -33 -163.5 -102t-144.5 -93q-32 28 -32 60z" />
<glyph unicode="&#xfe;" horiz-adv-x="1034" d="M123 1516q33 6 72 6q94 0 94 -78q0 -9 -3.5 -90.5t-7 -218t-4.5 -273.5q152 111 316 111q73 0 135 -25.5t111.5 -77t77.5 -139t28 -201.5q0 -109 -27.5 -206.5t-80 -175t-138.5 -123t-194 -45.5q-50 0 -114 18t-116 51q0 -8 0.5 -107.5t2 -132.5t5 -106.5t12 -120.5 t21.5 -84q-37 -16 -82 -16q-59 0 -79.5 27t-20.5 90q0 189 3 474t3 396v500q0 363 -14 547zM274 748q0 -176 1 -354t1 -238q43 -29 111.5 -45.5t134.5 -16.5q71 0 125.5 36t86 95.5t47.5 129t16 145.5q0 183 -70.5 270.5t-181.5 87.5q-138 0 -271 -110z" />
<glyph unicode="&#xff;" horiz-adv-x="903" d="M0 897q38 34 64 50t53 16q48 0 80 -66q47 -97 144 -342.5t144 -407.5q89 190 155.5 409.5t66.5 346.5q0 11 -1 20t-2 20t-2 20q31 10 68 10q72 0 72 -82q0 -96 -73 -326t-173 -444q-182 -387 -340 -582q-40 -53 -80 -53q-58 0 -113 82q63 40 165.5 159t177.5 240 q-41 138 -106.5 317t-152.5 367t-147 246zM137 1178q0 45 32.5 76.5t76.5 31.5q42 0 72 -31.5t30 -76.5q0 -48 -32 -79.5t-74 -31.5q-44 0 -74.5 31t-30.5 80zM502 1178q0 45 32.5 76.5t75.5 31.5q42 0 72.5 -31.5t30.5 -76.5q0 -48 -32.5 -79.5t-74.5 -31.5q-44 0 -74 31 t-30 80z" />
<glyph unicode="&#x152;" horiz-adv-x="1802" d="M100 678q0 322 169.5 511t457.5 189q109 0 215 -32q219 18 447 18q294 0 331 -31q19 -16 19 -53q0 -46 -17 -90q-117 43 -381 43q-108 0 -225 -6q8 -91 8 -434h162q172 0 246 8q8 -16 8 -53q0 -47 -21.5 -63.5t-68.5 -18.5q-53 -2 -145 -2h-181q0 -270 2.5 -371.5 t12.5 -165.5q90 -4 145 -4q343 0 440 47q17 -44 17 -90q0 -37 -19 -53q-37 -31 -331 -31h-86q-250 0 -340 22q-109 -38 -238 -38q-287 0 -457 190t-170 508zM268 741q0 -95 15 -183.5t50 -172t86.5 -145.5t130 -99t175.5 -37q139 0 242 62q0 37 2 137t2 156v409 q0 155 -10 318q-98 67 -232 67q-212 0 -336.5 -144t-124.5 -368z" />
<glyph unicode="&#x153;" horiz-adv-x="1703" d="M92 475q0 226 123 362t322 136q123 0 218.5 -53.5t153.5 -151.5q64 100 166.5 152.5t214.5 52.5q143 0 232.5 -81.5t89.5 -189.5q0 -44 -9 -80.5t-24 -64t-41.5 -49t-55 -37t-72.5 -26t-85 -16.5t-101 -9.5t-113 -4.5t-128 -1q15 -142 102.5 -231t219.5 -89q142 0 217 99 q63 -36 63 -89q0 -36 -42 -65t-105.5 -44t-134.5 -15q-123 0 -227.5 50t-166.5 150q-59 -96 -154.5 -148t-217.5 -52q-200 0 -322.5 134.5t-122.5 360.5zM236 504q0 -176 80 -293t221 -117q144 0 223.5 96.5t79.5 255.5q0 176 -81.5 294t-221.5 118q-143 0 -222 -96.5 t-79 -257.5zM983 516q63 0 105 1t98 5t92.5 11t76 20.5t62.5 32.5t38 47.5t15 64.5q0 65 -54 113.5t-134 48.5q-56 0 -106.5 -18.5t-94 -57.5t-70 -108t-28.5 -160z" />
<glyph unicode="&#x178;" horiz-adv-x="1026" d="M-20 1268q6 7 26 30t26.5 29.5t21 19t27.5 16t28 3.5q51 0 98 -70q121 -178 328 -557q98 129 209.5 345.5t115.5 291.5q31 -2 51.5 -5t48 -12t42 -28t14.5 -47q0 -52 -156 -290t-272 -378v-174q0 -165 8 -260.5t31 -171.5q-37 -16 -97 -16q-59 0 -79.5 27t-20.5 90 q2 188 4 364v127q-132 249 -253 430.5t-201 235.5zM223 1569q0 45 32.5 76.5t76.5 31.5q42 0 72 -31.5t30 -76.5q0 -48 -32 -79.5t-74 -31.5q-44 0 -74.5 31t-30.5 80zM588 1569q0 45 32.5 76.5t75.5 31.5q42 0 72.5 -31.5t30.5 -76.5q0 -48 -32.5 -79.5t-74.5 -31.5 q-44 0 -74 31t-30 80z" />
<glyph unicode="&#x2c6;" horiz-adv-x="567" d="M-4 1116q60 72 139 147t150 128q57 -36 112 -78t104.5 -98t49.5 -95q0 -18 -13.5 -33.5t-33.5 -23.5q-38 49 -94 94.5t-92 66.5l-37 21q-11 -9 -38.5 -32t-41.5 -34t-37 -30t-37.5 -28.5t-31 -20.5t-28.5 -16t-20 -5q-25 0 -51 37z" />
<glyph unicode="&#x2dc;" horiz-adv-x="585" d="M0 1135q0 55 64.5 109t136.5 54q37 0 116 -46t115 -46q22 0 57 26t64 60q4 -1 9.5 -4t14.5 -14t9 -25q0 -57 -63.5 -110.5t-135.5 -53.5q-43 0 -119.5 46.5t-113.5 46.5q-38 0 -121 -86q-33 14 -33 43z" />
<glyph unicode="&#x2000;" horiz-adv-x="920" />
<glyph unicode="&#x2001;" horiz-adv-x="1841" />
<glyph unicode="&#x2002;" horiz-adv-x="920" />
<glyph unicode="&#x2003;" horiz-adv-x="1841" />
<glyph unicode="&#x2004;" horiz-adv-x="613" />
<glyph unicode="&#x2005;" horiz-adv-x="460" />
<glyph unicode="&#x2006;" horiz-adv-x="306" />
<glyph unicode="&#x2007;" horiz-adv-x="306" />
<glyph unicode="&#x2008;" horiz-adv-x="230" />
<glyph unicode="&#x2009;" horiz-adv-x="368" />
<glyph unicode="&#x200a;" horiz-adv-x="102" />
<glyph unicode="&#x2010;" horiz-adv-x="471" d="M51 522q0 32 18 56t56 24q3 0 63 -4t107 -4q97 0 160 14q6 -18 6 -61q0 -36 -20.5 -58t-53.5 -22q-13 0 -64.5 5t-93.5 5q-97 0 -172 -16q-6 31 -6 61z" />
<glyph unicode="&#x2011;" horiz-adv-x="471" d="M51 522q0 32 18 56t56 24q3 0 63 -4t107 -4q97 0 160 14q6 -18 6 -61q0 -36 -20.5 -58t-53.5 -22q-13 0 -64.5 5t-93.5 5q-97 0 -172 -16q-6 31 -6 61z" />
<glyph unicode="&#x2012;" horiz-adv-x="471" d="M51 522q0 32 18 56t56 24q3 0 63 -4t107 -4q97 0 160 14q6 -18 6 -61q0 -36 -20.5 -58t-53.5 -22q-13 0 -64.5 5t-93.5 5q-97 0 -172 -16q-6 31 -6 61z" />
<glyph unicode="&#x2013;" horiz-adv-x="1218" d="M61 522q0 33 18 59.5t56 26.5q7 0 129.5 -7t212.5 -7h291q262 0 383 14q6 -18 6 -61q0 -36 -20.5 -61t-53.5 -25q-32 0 -142 8t-167 8h-293q-233 0 -413 -16q-7 36 -7 61z" />
<glyph unicode="&#x2014;" horiz-adv-x="1546" d="M61 522q0 32 18 56t56 24q4 0 80.5 -4t138.5 -4h912q130 0 213 14q6 -18 6 -61q0 -36 -20.5 -58t-53.5 -22q-17 0 -83.5 5t-121.5 5h-911q-126 0 -227 -16q-7 36 -7 61z" />
<glyph unicode="&#x2018;" horiz-adv-x="362" d="M35 1169q0 83 31 163t86.5 132t119.5 52q54 0 54 -62q0 -16 -2 -24h-11q-65 0 -108 -49.5t-43 -112.5q0 -44 25 -77.5t75 -43.5q21 -35 21 -68q0 -43 -34.5 -72.5t-84.5 -29.5q-54 0 -91.5 47t-37.5 145z" />
<glyph unicode="&#x2019;" horiz-adv-x="499" d="M86 1038q0 17 2 25h10q65 0 108.5 49.5t43.5 112.5q0 44 -25 77.5t-75 43.5q-21 34 -21 67q0 43 35 73t84 30q53 0 91 -47.5t38 -145.5q0 -83 -31 -162.5t-87 -131.5t-120 -52q-53 0 -53 61z" />
<glyph unicode="&#x201a;" horiz-adv-x="446" d="M53 -231q0 16 2 24h11q65 0 108 49.5t43 112.5q0 44 -25 77.5t-75 43.5q-21 34 -21 67q0 43 35 73t84 30q53 0 91 -47.5t38 -145.5q0 -83 -31 -162.5t-87 -131.5t-120 -52q-53 0 -53 62z" />
<glyph unicode="&#x201c;" horiz-adv-x="837" d="M61 1165q0 83 31 162.5t87 131.5t120 52q53 0 53 -61q0 -17 -2 -25h-10q-65 0 -108.5 -49t-43.5 -112q0 -44 25.5 -77.5t75.5 -43.5q20 -33 20 -68q0 -43 -34.5 -72.5t-84.5 -29.5q-54 0 -91.5 47t-37.5 145zM465 1165q0 83 31 162.5t86.5 131.5t119.5 52q54 0 54 -61 q0 -17 -2 -25h-11q-65 0 -108 -49t-43 -112q0 -44 25 -77.5t75 -43.5q21 -35 21 -68q0 -43 -34.5 -72.5t-84.5 -29.5q-54 0 -91.5 47t-37.5 145z" />
<glyph unicode="&#x201d;" horiz-adv-x="931" d="M102 1038q0 17 2 25h11q65 0 108 49.5t43 112.5q0 44 -25 77.5t-75 43.5q-21 34 -21 67q0 43 35 73t84 30q53 0 91 -47.5t38 -145.5q0 -83 -31 -162.5t-86.5 -131.5t-119.5 -52q-54 0 -54 61zM498 1038q0 17 2 25h10q65 0 108.5 49.5t43.5 112.5q0 44 -25.5 77.5 t-75.5 43.5q-20 33 -20 67q0 43 34.5 73t83.5 30q53 0 91 -47.5t38 -145.5q0 -83 -31 -162.5t-86.5 -131.5t-119.5 -52q-53 0 -53 61z" />
<glyph unicode="&#x201e;" horiz-adv-x="841" d="M53 -231q0 16 2 24h11q65 0 108 49.5t43 112.5q0 44 -25 77.5t-75 43.5q-21 34 -21 67q0 43 35 73t84 30q53 0 91 -47.5t38 -145.5q0 -83 -31 -162.5t-87 -131.5t-120 -52q-53 0 -53 62zM449 -231q0 16 2 24h10q65 0 108 49.5t43 112.5q0 44 -25 77.5t-75 43.5 q-20 33 -20 67q0 43 34.5 73t83.5 30q53 0 91 -47.5t38 -145.5q0 -83 -31 -162.5t-86.5 -131.5t-119.5 -52q-53 0 -53 62z" />
<glyph unicode="&#x2022;" horiz-adv-x="548" d="M51 549q0 99 66 167t159 68q92 0 157 -68t65 -167q0 -101 -64.5 -166.5t-157.5 -65.5q-94 0 -159.5 65.5t-65.5 166.5z" />
<glyph unicode="&#x2026;" horiz-adv-x="1566" d="M86 109q0 55 37 93t88 38t87 -38t36 -93q0 -56 -35.5 -92.5t-87.5 -36.5t-88.5 36.5t-36.5 92.5zM662 109q0 55 36.5 93t87.5 38t87 -38t36 -93q0 -56 -35.5 -92.5t-87.5 -36.5t-88 36.5t-36 92.5zM1237 109q0 55 37 93t88 38t87 -38t36 -93q0 -56 -35.5 -92.5 t-87.5 -36.5t-88.5 36.5t-36.5 92.5z" />
<glyph unicode="&#x202f;" horiz-adv-x="368" />
<glyph unicode="&#x2039;" horiz-adv-x="583" d="M82 481q206 282 338 391q41 -30 41 -57q0 -30 -73.5 -139t-143.5 -195q70 -86 143.5 -195t73.5 -139q0 -27 -41 -57q-132 109 -338 391z" />
<glyph unicode="&#x203a;" horiz-adv-x="583" d="M82 147q0 30 73.5 139t143.5 195q-70 86 -143.5 195t-73.5 139q0 27 41 57q132 -109 338 -391q-206 -282 -338 -391q-41 30 -41 57z" />
<glyph unicode="&#x205f;" horiz-adv-x="460" />
<glyph unicode="&#x20ac;" d="M33 543q0 55 55 55h96q-2 27 -2 86q0 39 2 59q-41 -1 -145 -10q-6 21 -6 35q0 55 55 55h102q15 117 57 211.5t100 157.5t131 105.5t149.5 61.5t156.5 19q71 0 128 -7.5t100 -30t43 -58.5q0 -66 -45 -92q-51 37 -103.5 55.5t-134.5 18.5q-65 0 -132 -26.5t-128.5 -78 t-108.5 -139t-65 -197.5h260q203 0 332 11l4 -31q0 -60 -55 -60h-549q-2 -20 -2 -63q0 -28 4 -82h266q214 0 332 10l4 -30q0 -60 -55 -60h-537q20 -106 67.5 -189.5t108 -132t125.5 -73.5t129 -25q82 0 134.5 18.5t103.5 55.5q45 -26 45 -92q0 -53 -78.5 -75.5t-192.5 -22.5 q-79 0 -153.5 17.5t-146.5 58.5t-129.5 101.5t-100 152.5t-59.5 206q-46 -1 -156 -10q-6 21 -6 35z" />
<glyph unicode="&#x2122;" horiz-adv-x="1763" d="M205 1278q0 33 15 44t48 13h256q173 0 230 6q8 -32 8 -45q0 -59 -60 -59h-159v-393q0 -155 26 -236q-46 -12 -73 -12q-42 0 -57 19t-15 61v561q-138 0 -211 -6q-8 24 -8 47zM846 1331q49 12 80 12q57 0 94 -63q107 -189 213 -492q83 254 215 492q35 63 96 63q37 0 78 -16 q-18 -79 -18 -197v-307q0 -50 0.5 -72t6 -62.5t17.5 -80.5q-36 -12 -72 -12q-42 0 -56.5 18.5t-14.5 61.5q0 57 1 189.5t1 275.5q-98 -219 -197 -537q-15 -6 -45 -6q-54 0 -69 39q-29 70 -72 182t-75 190.5t-58 127.5v-314q0 -50 0.5 -72t6 -62.5t17.5 -80.5 q-36 -12 -61 -12q-42 0 -57 19t-15 61q0 15 0.5 65t1 152.5t0.5 245.5q0 99 -18 192z" />
<glyph unicode="&#xe000;" horiz-adv-x="972" d="M0 0v973h973v-973h-973z" />
<glyph unicode="&#xfb01;" horiz-adv-x="1017" d="M10 883q0 35 20 48t56 17q46 4 90 4v37q0 108 21 192.5t55 137t81.5 86.5t97 47.5t104.5 13.5q47 0 96 -7.5t99 -24t82 -48.5t32 -75q0 -35 -29.5 -58.5t-81.5 -23.5q-40 67 -86 98t-125 31q-49 0 -84.5 -13t-65 -45t-44.5 -95t-15 -156v-97h404q34 6 69 6q97 0 97 -77 q0 -11 -4.5 -83.5t-8.5 -179.5t-4 -202q0 -89 1.5 -139.5t10.5 -128.5t27 -138q-37 -16 -78 -16q-59 0 -79.5 27t-20.5 90q0 34 2 162t2 200q0 222 -8 367h-410v-426q0 -273 39 -404q-37 -16 -78 -16q-58 0 -80 24.5t-22 81.5q0 25 2 280t2 458q-58 0 -160 -11q-6 21 -6 56z " />
<glyph unicode="&#xfb02;" horiz-adv-x="1087" d="M10 883q0 35 20 48t56 17q46 4 90 4q0 95 7 165t28 139t57 112t97.5 69.5t146.5 26.5q74 0 127 -23t53 -59q0 -39 -41 -96q-31 28 -80 46t-98 18q-40 0 -68.5 -13t-46.5 -36.5t-28.5 -62.5t-14.5 -83t-4 -106v-97q189 0 279 9q8 -16 8 -48q0 -40 -21.5 -54.5t-68.5 -16.5 q-66 -2 -197 -2v-426q0 -273 39 -404q-37 -16 -78 -16q-57 0 -78.5 24.5t-21.5 81.5q0 25 2 280t2 458q-58 0 -160 -11q-6 21 -6 56zM776 1516q33 6 72 6q94 0 94 -78q0 -8 -3.5 -110t-7 -268.5t-3.5 -332.5v-319q0 -273 37 -404q-37 -16 -78 -16q-56 0 -77.5 24.5 t-21.5 81.5q0 44 2.5 261t2.5 325v238q0 478 -17 592z" />
<glyph unicode="&#xfb03;" horiz-adv-x="1648" d="M10 883q0 35 20 48t56 17q46 4 90 4q0 95 7 165t28 139t57 112t97.5 69.5t146.5 26.5q74 0 127 -23t53 -59q0 -39 -41 -96q-31 28 -80 46t-98 18q-40 0 -68.5 -13t-46.5 -36.5t-28.5 -62.5t-14.5 -83t-4 -106v-97h496v37q0 108 21 192.5t55 137t81.5 86.5t96.5 47.5 t104 13.5q47 0 96.5 -7.5t99.5 -24t82 -48.5t32 -75q0 -35 -29.5 -58.5t-81.5 -23.5q-40 67 -86 98t-125 31q-49 0 -84.5 -13t-65 -45t-44.5 -95t-15 -156v-97h404q34 6 69 6q96 0 96 -77q0 -11 -4 -83.5t-8 -179.5t-4 -202q0 -89 1.5 -139.5t10.5 -128.5t27 -138 q-37 -16 -78 -16q-59 0 -79.5 27t-20.5 90q0 34 2 162t2 200q0 222 -8 367h-410v-426q0 -273 39 -404q-37 -16 -78 -16q-58 0 -80 24.5t-22 81.5q0 25 2 280t2 458h-496v-424q0 -273 39 -404q-37 -16 -78 -16q-57 0 -78.5 24.5t-21.5 81.5q0 25 2 280t2 458q-58 0 -160 -11 q-6 21 -6 56z" />
<glyph unicode="&#xfb04;" horiz-adv-x="1718" d="M10 883q0 35 20 48t56 17q46 4 90 4q0 95 7 165t28 139t57 112t97.5 69.5t146.5 26.5q74 0 127 -23t53 -59q0 -39 -41 -96q-31 28 -80 46t-98 18q-40 0 -68.5 -13t-46.5 -36.5t-28.5 -62.5t-14.5 -83t-4 -106v-97h496q0 95 7 165t28 139t57 112t97.5 69.5t146.5 26.5 q74 0 127 -23t53 -59q0 -39 -41 -96q-31 28 -80 46t-98 18q-40 0 -68.5 -13t-46.5 -36.5t-28.5 -62.5t-14.5 -83t-4 -106v-97q189 0 279 9q8 -16 8 -48q0 -40 -21.5 -54.5t-68.5 -16.5q-66 -2 -197 -2v-426q0 -273 39 -404q-37 -16 -78 -16q-57 0 -78.5 24.5t-21.5 81.5 q0 25 2 280t2 458h-496v-424q0 -273 39 -404q-37 -16 -78 -16q-57 0 -78.5 24.5t-21.5 81.5q0 25 2 280t2 458q-58 0 -160 -11q-6 21 -6 56zM1407 1516q33 6 72 6q94 0 94 -78q0 -8 -3.5 -110t-7 -268.5t-3.5 -332.5v-319q0 -277 36 -404q-37 -16 -77 -16q-56 0 -77.5 24.5 t-21.5 81.5q0 44 2 261t2 325v238q0 485 -16 592z" />
</font>
</defs>
</svg>
